<mxfile host="app.diagrams.net" agent="Mozilla/5.0 (Macintosh; Intel Mac OS X 10_15_7) AppleWebKit/537.36 (KHTML, like Gecko) Chrome/131.0.0.0 Safari/537.36" version="26.0.3">
  <diagram name="[1] clab limits" id="tJziRCqHFudNewLzHaw2">
    <mxGraphModel dx="2074" dy="1155" grid="0" gridSize="5" guides="1" tooltips="1" connect="1" arrows="1" fold="1" page="1" pageScale="1" pageWidth="827" pageHeight="1169" background="#4d5766" math="0" shadow="0">
      <root>
        <mxCell id="qbExKh2GQzYHgT6TWYTY-0" />
        <mxCell id="qbExKh2GQzYHgT6TWYTY-1" parent="qbExKh2GQzYHgT6TWYTY-0" />
        <mxCell id="hM18RylwCYSOnlRyK38Z-0" value="" style="verticalLabelPosition=bottom;verticalAlign=top;html=1;shape=mxgraph.basic.rect;fillColor2=none;strokeWidth=1;size=3.87;indent=0;topLeftStyle=rounded;topRightStyle=rounded;strokeColor=#98A2AE;rotation=-180;fillColor=#edf3f5;" parent="qbExKh2GQzYHgT6TWYTY-1" vertex="1">
          <mxGeometry x="150" y="265" width="187" height="172" as="geometry" />
        </mxCell>
        <mxCell id="hM18RylwCYSOnlRyK38Z-1" value="&lt;b&gt;Containerlab host&lt;/b&gt;" style="verticalLabelPosition=middle;verticalAlign=middle;html=1;shape=mxgraph.basic.rect;fillColor2=none;strokeWidth=1;size=4.22;indent=29.33;topLeftStyle=rounded;topRightStyle=rounded;strokeColor=#98a2ae;fillColor=#ffffff;labelPosition=center;align=center;fontFamily=Google Sans;fontSource=https%3A%2F%2Ffonts.googleapis.com%2Fcss%3Ffamily%3DGoogle%2BSans;" parent="qbExKh2GQzYHgT6TWYTY-1" vertex="1">
          <mxGeometry x="150" y="246" width="187" height="19" as="geometry" />
        </mxCell>
        <mxCell id="hM18RylwCYSOnlRyK38Z-2" value="" style="rounded=1;whiteSpace=wrap;html=1;strokeColor=none;arcSize=21;fillColor=#001135;" parent="qbExKh2GQzYHgT6TWYTY-1" vertex="1">
          <mxGeometry x="299" y="270" width="34.11" height="30" as="geometry" />
        </mxCell>
        <mxCell id="hM18RylwCYSOnlRyK38Z-3" value="" style="rounded=1;whiteSpace=wrap;html=1;" parent="qbExKh2GQzYHgT6TWYTY-1" vertex="1">
          <mxGeometry x="177" y="368" width="39" height="37" as="geometry" />
        </mxCell>
        <mxCell id="hM18RylwCYSOnlRyK38Z-4" value="" style="group;aspect=fixed;" parent="qbExKh2GQzYHgT6TWYTY-1" vertex="1" connectable="0">
          <mxGeometry x="182" y="372" width="29" height="29" as="geometry" />
        </mxCell>
        <mxCell id="hM18RylwCYSOnlRyK38Z-5" value="" style="group" parent="hM18RylwCYSOnlRyK38Z-4" vertex="1" connectable="0">
          <mxGeometry width="29" height="29" as="geometry" />
        </mxCell>
        <mxCell id="hM18RylwCYSOnlRyK38Z-6" value="" style="whiteSpace=wrap;html=1;aspect=fixed;fillColor=#001135;strokeColor=none;connectable=1;allowArrows=1;fontFamily=Manrope;fontSource=https%3A%2F%2Ffonts.googleapis.com%2Fcss%3Ffamily%3DManrope;" parent="hM18RylwCYSOnlRyK38Z-5" vertex="1">
          <mxGeometry width="29" height="29" as="geometry" />
        </mxCell>
        <mxCell id="hM18RylwCYSOnlRyK38Z-7" value="" style="endArrow=open;html=1;edgeStyle=orthogonalEdgeStyle;rounded=0;endFill=0;startSize=6;endSize=2;strokeColor=#FFFFFF;fontFamily=Manrope;fontSource=https%3A%2F%2Ffonts.googleapis.com%2Fcss%3Ffamily%3DManrope;" parent="hM18RylwCYSOnlRyK38Z-5" edge="1">
          <mxGeometry width="48.33333333333334" height="48.33333333333334" as="geometry">
            <mxPoint x="2.9" y="11.6" as="sourcePoint" />
            <mxPoint x="10.633333333333335" y="2.9" as="targetPoint" />
            <Array as="points">
              <mxPoint x="10.633333333333335" y="11.6" />
            </Array>
          </mxGeometry>
        </mxCell>
        <mxCell id="hM18RylwCYSOnlRyK38Z-8" value="" style="endArrow=open;html=1;edgeStyle=orthogonalEdgeStyle;rounded=0;endFill=0;startSize=6;endSize=2;strokeColor=#FFFFFF;fontFamily=Manrope;fontSource=https%3A%2F%2Ffonts.googleapis.com%2Fcss%3Ffamily%3DManrope;" parent="hM18RylwCYSOnlRyK38Z-5" edge="1">
          <mxGeometry width="48.33333333333334" height="48.33333333333334" as="geometry">
            <mxPoint x="10.633333333333335" y="26.1" as="sourcePoint" />
            <mxPoint x="2.9" y="18.366666666666667" as="targetPoint" />
            <Array as="points">
              <mxPoint x="10.633333333333335" y="18.366666666666667" />
            </Array>
          </mxGeometry>
        </mxCell>
        <mxCell id="hM18RylwCYSOnlRyK38Z-9" value="" style="endArrow=open;html=1;edgeStyle=orthogonalEdgeStyle;rounded=0;endFill=0;startSize=6;endSize=2;strokeColor=#FFFFFF;fontFamily=Manrope;fontSource=https%3A%2F%2Ffonts.googleapis.com%2Fcss%3Ffamily%3DManrope;" parent="hM18RylwCYSOnlRyK38Z-5" edge="1">
          <mxGeometry width="48.33333333333334" height="48.33333333333334" as="geometry">
            <mxPoint x="17.4" y="2.9" as="sourcePoint" />
            <mxPoint x="26.1" y="11.6" as="targetPoint" />
            <Array as="points">
              <mxPoint x="17.4" y="11.6" />
            </Array>
          </mxGeometry>
        </mxCell>
        <mxCell id="hM18RylwCYSOnlRyK38Z-10" value="" style="endArrow=open;html=1;edgeStyle=orthogonalEdgeStyle;rounded=0;endFill=0;startSize=6;endSize=2;strokeColor=#FFFFFF;fontFamily=Manrope;fontSource=https%3A%2F%2Ffonts.googleapis.com%2Fcss%3Ffamily%3DManrope;" parent="hM18RylwCYSOnlRyK38Z-5" edge="1">
          <mxGeometry width="48.33333333333334" height="48.33333333333334" as="geometry">
            <mxPoint x="26.1" y="18.366666666666667" as="sourcePoint" />
            <mxPoint x="17.4" y="26.1" as="targetPoint" />
            <Array as="points">
              <mxPoint x="17.4" y="18.366666666666667" />
            </Array>
          </mxGeometry>
        </mxCell>
        <mxCell id="hM18RylwCYSOnlRyK38Z-11" value="" style="shape=image;verticalLabelPosition=bottom;labelBackgroundColor=#ffffff;verticalAlign=top;aspect=fixed;imageAspect=0;image=data:image/svg+xml,PHN2ZyB4bWxucz0iaHR0cDovL3d3dy53My5vcmcvMjAwMC9zdmciIHhtbG5zOnhsaW5rPSJodHRwOi8vd3d3LnczLm9yZy8xOTk5L3hsaW5rIiB2aWV3Qm94PSIwLjUgMC41IDQ3LjA5NzAwMDEyMjA3MDMxIDI2Ljc0Mzk5OTQ4MTIwMTE3MiIgZmlsbD0iI2ZmZiIgZmlsbC1ydWxlPSJldmVub2RkIiBzdHJva2U9IiMwMDAiIHN0cm9rZS1saW5lY2FwPSJyb3VuZCIgc3Ryb2tlLWxpbmVqb2luPSJyb3VuZCIgd2lkdGg9IjQ3LjA5NzAwMDEyMjA3MDMxIiBoZWlnaHQ9IjI2Ljc0Mzk5OTQ4MTIwMTE3MiI+PHN0eWxlPi5Ce2ZpbGwtcnVsZTpub256ZXJvfS5De2ZpbGw6IzAwMH0uRHtzdHJva2U6bm9uZX0uRXtzdHJva2U6IzM5NGQ1NH0uRntzdHJva2UtbGluZWpvaW46bWl0ZXJ9Lkd7c3Ryb2tlLWxpbmVjYXA6YnV0dH0uSHtzdHJva2Utd2lkdGg6LjI4OH0uSXtmaWxsOiMwMGFjZDN9Lkp7ZmlsbDojMjBjMmVmfTwvc3R5bGU+PHVzZSB4bGluazpocmVmPSIjQSIgeD0iLjUiIHk9Ii41Ii8+PHN5bWJvbCBpZD0iQSIgb3ZlcmZsb3c9InZpc2libGUiPjxnIGNsYXNzPSJEIj48cGF0aCBkPSJNMjcuMjM1IDguNDQ1aDQuMjIydjQuMzE2aDIuMTM1Yy45ODYgMCAyLS4xNzUgMi45MzQtLjQ5Mi40NTktLjE1NS45NzQtLjM3MiAxLjQyNi0uNjQ2LS41OTYtLjc3OC0uOS0xLjc2MS0uOTktMi43MjktLjEyMi0xLjMxNy4xNDQtMy4wMzIgMS4wMzQtNC4wNjNsLjQ0NC0uNTEzLjUyOS40MjVjMS4zMyAxLjA3IDIuNDUyIDIuNTY3IDIuNjQ5IDQuMjY5IDEuNjAzLS40NzIgMy40ODYtLjM2IDQuODk5LjQ1NmwuNTguMzM1LS4zMDUuNTk2Yy0xLjE5NCAyLjMzNS0zLjY5MyAzLjA1Ny02LjEzNiAyLjkyOS0zLjY1NiA5LjEwNC0xMS42MTQgMTMuNDE2LTIxLjI2NSAxMy40MTYtNC45ODYgMC05LjU2LTEuODY0LTEyLjE2NS02LjI4Ny0uMTUzLS4yNzUtLjI4My0uNTYyLS40MjItLjg0NC0uODgtMS45NDctMS4xNzMtNC4wOC0uOTc1LTYuMjExbC4wNTktLjYzOGgzLjYxMVY4LjQ0NWg0LjIyMlY0LjIyMmg4LjQ0NVYwaDUuMDY3djguNDQ1IiBmaWxsPSIjMzk0ZDU0IiBjbGFzcz0iQiIvPjxwYXRoIGZpbGw9IiMxN2I1ZWIiIGQ9Ik00Ni4xNjcgMTAuMDY5Yy0xLjA5MiAyLjEzMy0zLjQ4MyAyLjc3Mi01Ljk3NSAyLjUxNy0zLjUxMyA5LjMwOC0xMS40NSAxMy40NTEtMjAuODAzIDEzLjQ1MS00LjIyMyAwLTcuODgxLTEuMzMtMTAuMzM1LTQuMDg1LS4xNDUtLjIwNC0uMjI4LS4zNzQtLjQ1Ni0uNjgxLS4yMTgtLjI5My0uNDI5LS41OTItLjYwOC0uOTFsLS4zMzktLjYwOGMtLjkyOC0xLjgyNS0xLjMzMi0zLjk1OS0xLjExOC02LjI4OGgyNy4wNThjMi4yMjMgMCA0LjM5NC0uODI5IDUuNDI1LTEuNzQ1LTEuODQ2LTEuNTAxLTEuNjYzLTUuMDY3LS40ODctNi40MjcgMS4wMjEuODIgMi42NjggMi41NDkgMi4zODMgNC43NSAxLjI4Ni0uNjQ4IDMuNTE2LS45NjkgNS4yNTQuMDI2eiIvPjxwYXRoIGQ9Ik0yMi44NzIuNzA0aDMuNjZ2My42NmgtMy42NnoiIGNsYXNzPSJCIEoiLz48L2c+PHVzZSB4bGluazpocmVmPSIjQyIgY2xhc3M9IkIgQyBFIEYgRyBIIi8+PHBhdGggZD0iTTEwLjIwNSAxMi44MWgzLjY2VjkuMTUxaC0zLjY2eiIgY2xhc3M9IkIgRCBJIi8+PHVzZSB4bGluazpocmVmPSIjRCIgY2xhc3M9IkIgQyBFIEYgRyBIIi8+PGcgY2xhc3M9IkQiPjxwYXRoIGQ9Ik0xNC40MjcgNC45MjRoMy42NnYzLjY1OWgtMy42NnoiIGNsYXNzPSJCIEkiLz48cGF0aCBkPSJNMTQuNDI3IDkuMTQ4aDMuNjZ2My42NmgtMy42NnoiIGNsYXNzPSJCIEoiLz48L2c+PGcgY2xhc3M9IkMgRSBGIEcgSCI+PHVzZSB4bGluazpocmVmPSIjQyIgeD0iLTguNDQ1IiB5PSI0LjIyMyIgY2xhc3M9IkIiLz48dXNlIHhsaW5rOmhyZWY9IiNDIiB4PSItOC40NDUiIHk9IjguNDQ1IiBjbGFzcz0iQiIvPjwvZz48ZyBjbGFzcz0iRCI+PHBhdGggZD0iTTE4LjY0OSAxMi44MWgzLjY2VjkuMTUxaC0zLjY2eiIgY2xhc3M9IkIgSSIvPjxwYXRoIGQ9Ik0xOC42NDkgOC41ODZoMy42NnYtMy42NmgtMy42NnoiIGNsYXNzPSJCIEoiLz48L2c+PGcgY2xhc3M9IkMgRSBGIEcgSCI+PHVzZSB4bGluazpocmVmPSIjRCIgeD0iOC40NDUiIGNsYXNzPSJCIi8+PHVzZSB4bGluazpocmVmPSIjRCIgeD0iOC40NDUiIHk9Ii00LjIyMiIgY2xhc3M9IkIiLz48L2c+PGcgY2xhc3M9IkQiPjxwYXRoIGQ9Ik0yMi44NzIgNC45MjRoMy42NnYzLjY1OWgtMy42NnoiIGNsYXNzPSJCIEkiLz48cGF0aCBkPSJNMjIuODcyIDkuMTQ4aDMuNjZ2My42NmgtMy42NnoiIGNsYXNzPSJCIEoiLz48L2c+PGcgY2xhc3M9IkMgRSBGIEcgSCI+PHVzZSB4bGluazpocmVmPSIjQyIgeT0iNC4yMjMiIGNsYXNzPSJCIi8+PHVzZSB4bGluazpocmVmPSIjQyIgeT0iOC40NDUiIGNsYXNzPSJCIi8+PC9nPjxwYXRoIGQ9Ik0yNy4wOTQgMTIuODFoMy42NlY5LjE1MWgtMy42NnoiIGNsYXNzPSJCIEQgSSIvPjx1c2UgeGxpbms6aHJlZj0iI0QiIHg9IjE2Ljg4OSIgY2xhc3M9IkIgQyBFIEYgRyBIIi8+PGcgY2xhc3M9IkQiPjxwYXRoIGQ9Ik0xOC44NjYgMTkuNzUxYTEuMDEgMS4wMSAwIDAgMS0xLjAxIDEuMDEgMS4wMSAxLjAxIDAgMCAxLTEuMDEtMS4wMSAxLjAxIDEuMDEgMCAwIDEgMS4wMS0xLjAxIDEuMDEgMS4wMSAwIDAgMSAxLjAxIDEuMDF6IiBmaWxsPSIjZDRlZGYxIiBjbGFzcz0iQiIvPjxwYXRoIGQ9Ik0xOC4xMTkgMTkuMDc3Yy0uMTE1LjA2Ny0uMTcxLjIwMy0uMTM2LjMzMXMuMTUxLjIxOC4yODQuMjE5Yy4xMTIgMCAuMjA5LS4wNjIuMjU5LS4xNTRhLjcyLjcyIDAgMCAxIC4wNTUuMjc3YzAgLjM5OS0uMzI0LjcyMy0uNzIzLjcyM3MtLjcyMy0uMzI0LS43MjMtLjcyMy4zMjQtLjcyMy43MjMtLjcyM2EuNzIuNzIgMCAwIDEgLjI2Mi4wNDl6TTAgMTYuNjQ5aDQ2Ljk2NGMtMS4wMjMtLjI1OS0zLjIzNS0uNjEtMi44NzEtMS45NS0xLjg2IDIuMTUyLTYuMzQ0IDEuNTA5LTcuNDc1LjQ0OS0xLjI2IDEuODI4LTguNTk3IDEuMTMzLTkuMTA4LS4yOTEtMS41OCAxLjg1NC02LjQ3NSAxLjg1NC04LjA1NSAwLS41MTIgMS40MjItNy44NDggMi4xMTktOS4xMDkuMjkxLTEuMTMyIDEuMDYxLTUuNjE0IDEuNzAzLTcuNDc1LS40NDkuMzY1IDEuMzQtMS44NDggMS42OTEtMi44NzEgMS45NSIgZmlsbD0iIzM5NGQ1NCIgY2xhc3M9IkIiLz48cGF0aCBkPSJNNy45OSAyMC4zNjFsLS4zMzktLjYwOGMtLjUxOC0xLjAxNy0uODcyLTIuMTMxLTEuMDQ4LTMuMzE4aDMxLjcxNWMtNC4wNTcgNi42MS0xMC45ODMgOS42MDItMTguOTMgOS42MDItNC4yMjMgMC03Ljg4MS0xLjMzLTEwLjMzNS00LjA4NS0uMTQ1LS4yMDQtLjIyOC0uMzc0LS40NTYtLjY4MS0uMjE4LS4yOTMtLjQyOS0uNTkyLS42MDgtLjkxeiIgZmlsbC1vcGFjaXR5PSIuMTciIGNsYXNzPSJDIi8+PHBhdGggZmlsbD0iI2Q0ZWRmMSIgZD0iTTIwLjU0MSAyNi4wMThjLTIuNS0xLjE4Ny0zLjg3My0yLjgtNC42MzYtNC41NmwtNi45NzYuMzA0LjEyNS4xODljMi40NTQgMi43NTYgNi4xMTIgNC4wODUgMTAuMzM1IDQuMDg1YTMwLjkyIDMwLjkyIDAgMCAwIDEuMTQ2LS4wMjFsLjA0My0uMDAyIi8+PHBhdGggZD0iTTQxLjA4NyA5Ljk1OWMxLjMwNS0uNTg5IDMuNDE4LS44NDEgNS4wNzguMTE3LTEuMDg5IDIuMTI3LTMuNDggMi43NjYtNS45NzMgMi41MS0zLjUxMyA5LjMwOC0xMS40NSAxMy40NTEtMjAuODAzIDEzLjQ1MS00LjIyMyAwLTcuODgxLTEuMzMtMTAuMzM1LTQuMDg1LS4xNDUtLjIwNC0uMjI4LS4zNzQtLjQ1Ni0uNjgxLS4yMTgtLjI5My0uNDI5LS41OTItLjYwOC0uOTFsLS4zMzktLjYwOGMtLjkyOC0xLjgyNS0xLjMzMi0zLjk1OS0xLjExOC02LjI5aDEuNjAzYy0uMTEgMy41NTQgMS4yMDQgNi4yNTIgMy41MzcgNy44ODNsMS4wMTYuNjEyYzMuMTgzIDEuNjMyIDcuNzk2IDEuNjIzIDEzLjA4OC0uNDEgNS45MzItMi4yNzkgMTEuNDU3LTYuNjE0IDE1LjMxNi0xMS41OTJsLS4wMDcuMDEiIGZpbGwtb3BhY2l0eT0iLjE0IiBjbGFzcz0iQyIvPjwvZz48cGF0aCBkPSJNOC40MjUgMjEuNjExYzIuNjE2LjE0MyA1LjQwNy4xNjkgNy44NDItLjU5NSIgZmlsbD0ibm9uZSIgc3Ryb2tlLXdpZHRoPSIuNjI4IiBjbGFzcz0iRSBGIi8+PC9zeW1ib2w+PGRlZnM+PHBhdGggaWQ9IkMiIGQ9Ik0yMy4zMjEgNC4wNTh2LTMuMDVtLjU0OSAzLjA1di0zLjA1bS41NTQgMy4wNXYtMy4wNW0uNTU1IDMuMDV2LTMuMDVtLjU1NSAzLjA1di0zLjA1bS41NDggMy4wNXYtMy4wNSIvPjxwYXRoIGlkPSJEIiBkPSJNMTAuNjU0IDkuNDUzdjMuMDVtLjU0OS0zLjA1djMuMDVtLjU1NC0zLjA1djMuMDVtLjU1NS0zLjA1djMuMDVtLjU1NS0zLjA1djMuMDVtLjU0OC0zLjA1djMuMDUiLz48L2RlZnM+PC9zdmc+;" parent="qbExKh2GQzYHgT6TWYTY-1" vertex="1">
          <mxGeometry x="167" y="361" width="27" height="15.51" as="geometry" />
        </mxCell>
        <mxCell id="hM18RylwCYSOnlRyK38Z-12" value="" style="rounded=1;whiteSpace=wrap;html=1;" parent="qbExKh2GQzYHgT6TWYTY-1" vertex="1">
          <mxGeometry x="222" y="317" width="39" height="37" as="geometry" />
        </mxCell>
        <mxCell id="hM18RylwCYSOnlRyK38Z-13" value="" style="group;aspect=fixed;" parent="qbExKh2GQzYHgT6TWYTY-1" vertex="1" connectable="0">
          <mxGeometry x="227" y="321" width="29" height="29" as="geometry" />
        </mxCell>
        <mxCell id="hM18RylwCYSOnlRyK38Z-14" value="" style="group" parent="hM18RylwCYSOnlRyK38Z-13" vertex="1" connectable="0">
          <mxGeometry width="29" height="29" as="geometry" />
        </mxCell>
        <mxCell id="hM18RylwCYSOnlRyK38Z-15" value="" style="whiteSpace=wrap;html=1;aspect=fixed;fillColor=#001135;strokeColor=none;connectable=1;allowArrows=1;fontFamily=Manrope;fontSource=https%3A%2F%2Ffonts.googleapis.com%2Fcss%3Ffamily%3DManrope;" parent="hM18RylwCYSOnlRyK38Z-14" vertex="1">
          <mxGeometry width="29" height="29" as="geometry" />
        </mxCell>
        <mxCell id="hM18RylwCYSOnlRyK38Z-16" value="" style="endArrow=open;html=1;edgeStyle=orthogonalEdgeStyle;rounded=0;endFill=0;startSize=6;endSize=2;strokeColor=#FFFFFF;fontFamily=Manrope;fontSource=https%3A%2F%2Ffonts.googleapis.com%2Fcss%3Ffamily%3DManrope;" parent="hM18RylwCYSOnlRyK38Z-14" edge="1">
          <mxGeometry width="48.33333333333334" height="48.33333333333334" as="geometry">
            <mxPoint x="2.9" y="11.6" as="sourcePoint" />
            <mxPoint x="10.633333333333335" y="2.9" as="targetPoint" />
            <Array as="points">
              <mxPoint x="10.633333333333335" y="11.6" />
            </Array>
          </mxGeometry>
        </mxCell>
        <mxCell id="hM18RylwCYSOnlRyK38Z-17" value="" style="endArrow=open;html=1;edgeStyle=orthogonalEdgeStyle;rounded=0;endFill=0;startSize=6;endSize=2;strokeColor=#FFFFFF;fontFamily=Manrope;fontSource=https%3A%2F%2Ffonts.googleapis.com%2Fcss%3Ffamily%3DManrope;" parent="hM18RylwCYSOnlRyK38Z-14" edge="1">
          <mxGeometry width="48.33333333333334" height="48.33333333333334" as="geometry">
            <mxPoint x="10.633333333333335" y="26.1" as="sourcePoint" />
            <mxPoint x="2.9" y="18.366666666666667" as="targetPoint" />
            <Array as="points">
              <mxPoint x="10.633333333333335" y="18.366666666666667" />
            </Array>
          </mxGeometry>
        </mxCell>
        <mxCell id="hM18RylwCYSOnlRyK38Z-18" value="" style="endArrow=open;html=1;edgeStyle=orthogonalEdgeStyle;rounded=0;endFill=0;startSize=6;endSize=2;strokeColor=#FFFFFF;fontFamily=Manrope;fontSource=https%3A%2F%2Ffonts.googleapis.com%2Fcss%3Ffamily%3DManrope;" parent="hM18RylwCYSOnlRyK38Z-14" edge="1">
          <mxGeometry width="48.33333333333334" height="48.33333333333334" as="geometry">
            <mxPoint x="17.4" y="2.9" as="sourcePoint" />
            <mxPoint x="26.1" y="11.6" as="targetPoint" />
            <Array as="points">
              <mxPoint x="17.4" y="11.6" />
            </Array>
          </mxGeometry>
        </mxCell>
        <mxCell id="hM18RylwCYSOnlRyK38Z-19" value="" style="endArrow=open;html=1;edgeStyle=orthogonalEdgeStyle;rounded=0;endFill=0;startSize=6;endSize=2;strokeColor=#FFFFFF;fontFamily=Manrope;fontSource=https%3A%2F%2Ffonts.googleapis.com%2Fcss%3Ffamily%3DManrope;" parent="hM18RylwCYSOnlRyK38Z-14" edge="1">
          <mxGeometry width="48.33333333333334" height="48.33333333333334" as="geometry">
            <mxPoint x="26.1" y="18.366666666666667" as="sourcePoint" />
            <mxPoint x="17.4" y="26.1" as="targetPoint" />
            <Array as="points">
              <mxPoint x="17.4" y="18.366666666666667" />
            </Array>
          </mxGeometry>
        </mxCell>
        <mxCell id="hM18RylwCYSOnlRyK38Z-20" value="" style="shape=image;verticalLabelPosition=bottom;labelBackgroundColor=#ffffff;verticalAlign=top;aspect=fixed;imageAspect=0;image=data:image/svg+xml,PHN2ZyB4bWxucz0iaHR0cDovL3d3dy53My5vcmcvMjAwMC9zdmciIHhtbG5zOnhsaW5rPSJodHRwOi8vd3d3LnczLm9yZy8xOTk5L3hsaW5rIiB2aWV3Qm94PSIwLjUgMC41IDQ3LjA5NzAwMDEyMjA3MDMxIDI2Ljc0Mzk5OTQ4MTIwMTE3MiIgZmlsbD0iI2ZmZiIgZmlsbC1ydWxlPSJldmVub2RkIiBzdHJva2U9IiMwMDAiIHN0cm9rZS1saW5lY2FwPSJyb3VuZCIgc3Ryb2tlLWxpbmVqb2luPSJyb3VuZCIgd2lkdGg9IjQ3LjA5NzAwMDEyMjA3MDMxIiBoZWlnaHQ9IjI2Ljc0Mzk5OTQ4MTIwMTE3MiI+PHN0eWxlPi5Ce2ZpbGwtcnVsZTpub256ZXJvfS5De2ZpbGw6IzAwMH0uRHtzdHJva2U6bm9uZX0uRXtzdHJva2U6IzM5NGQ1NH0uRntzdHJva2UtbGluZWpvaW46bWl0ZXJ9Lkd7c3Ryb2tlLWxpbmVjYXA6YnV0dH0uSHtzdHJva2Utd2lkdGg6LjI4OH0uSXtmaWxsOiMwMGFjZDN9Lkp7ZmlsbDojMjBjMmVmfTwvc3R5bGU+PHVzZSB4bGluazpocmVmPSIjQSIgeD0iLjUiIHk9Ii41Ii8+PHN5bWJvbCBpZD0iQSIgb3ZlcmZsb3c9InZpc2libGUiPjxnIGNsYXNzPSJEIj48cGF0aCBkPSJNMjcuMjM1IDguNDQ1aDQuMjIydjQuMzE2aDIuMTM1Yy45ODYgMCAyLS4xNzUgMi45MzQtLjQ5Mi40NTktLjE1NS45NzQtLjM3MiAxLjQyNi0uNjQ2LS41OTYtLjc3OC0uOS0xLjc2MS0uOTktMi43MjktLjEyMi0xLjMxNy4xNDQtMy4wMzIgMS4wMzQtNC4wNjNsLjQ0NC0uNTEzLjUyOS40MjVjMS4zMyAxLjA3IDIuNDUyIDIuNTY3IDIuNjQ5IDQuMjY5IDEuNjAzLS40NzIgMy40ODYtLjM2IDQuODk5LjQ1NmwuNTguMzM1LS4zMDUuNTk2Yy0xLjE5NCAyLjMzNS0zLjY5MyAzLjA1Ny02LjEzNiAyLjkyOS0zLjY1NiA5LjEwNC0xMS42MTQgMTMuNDE2LTIxLjI2NSAxMy40MTYtNC45ODYgMC05LjU2LTEuODY0LTEyLjE2NS02LjI4Ny0uMTUzLS4yNzUtLjI4My0uNTYyLS40MjItLjg0NC0uODgtMS45NDctMS4xNzMtNC4wOC0uOTc1LTYuMjExbC4wNTktLjYzOGgzLjYxMVY4LjQ0NWg0LjIyMlY0LjIyMmg4LjQ0NVYwaDUuMDY3djguNDQ1IiBmaWxsPSIjMzk0ZDU0IiBjbGFzcz0iQiIvPjxwYXRoIGZpbGw9IiMxN2I1ZWIiIGQ9Ik00Ni4xNjcgMTAuMDY5Yy0xLjA5MiAyLjEzMy0zLjQ4MyAyLjc3Mi01Ljk3NSAyLjUxNy0zLjUxMyA5LjMwOC0xMS40NSAxMy40NTEtMjAuODAzIDEzLjQ1MS00LjIyMyAwLTcuODgxLTEuMzMtMTAuMzM1LTQuMDg1LS4xNDUtLjIwNC0uMjI4LS4zNzQtLjQ1Ni0uNjgxLS4yMTgtLjI5My0uNDI5LS41OTItLjYwOC0uOTFsLS4zMzktLjYwOGMtLjkyOC0xLjgyNS0xLjMzMi0zLjk1OS0xLjExOC02LjI4OGgyNy4wNThjMi4yMjMgMCA0LjM5NC0uODI5IDUuNDI1LTEuNzQ1LTEuODQ2LTEuNTAxLTEuNjYzLTUuMDY3LS40ODctNi40MjcgMS4wMjEuODIgMi42NjggMi41NDkgMi4zODMgNC43NSAxLjI4Ni0uNjQ4IDMuNTE2LS45NjkgNS4yNTQuMDI2eiIvPjxwYXRoIGQ9Ik0yMi44NzIuNzA0aDMuNjZ2My42NmgtMy42NnoiIGNsYXNzPSJCIEoiLz48L2c+PHVzZSB4bGluazpocmVmPSIjQyIgY2xhc3M9IkIgQyBFIEYgRyBIIi8+PHBhdGggZD0iTTEwLjIwNSAxMi44MWgzLjY2VjkuMTUxaC0zLjY2eiIgY2xhc3M9IkIgRCBJIi8+PHVzZSB4bGluazpocmVmPSIjRCIgY2xhc3M9IkIgQyBFIEYgRyBIIi8+PGcgY2xhc3M9IkQiPjxwYXRoIGQ9Ik0xNC40MjcgNC45MjRoMy42NnYzLjY1OWgtMy42NnoiIGNsYXNzPSJCIEkiLz48cGF0aCBkPSJNMTQuNDI3IDkuMTQ4aDMuNjZ2My42NmgtMy42NnoiIGNsYXNzPSJCIEoiLz48L2c+PGcgY2xhc3M9IkMgRSBGIEcgSCI+PHVzZSB4bGluazpocmVmPSIjQyIgeD0iLTguNDQ1IiB5PSI0LjIyMyIgY2xhc3M9IkIiLz48dXNlIHhsaW5rOmhyZWY9IiNDIiB4PSItOC40NDUiIHk9IjguNDQ1IiBjbGFzcz0iQiIvPjwvZz48ZyBjbGFzcz0iRCI+PHBhdGggZD0iTTE4LjY0OSAxMi44MWgzLjY2VjkuMTUxaC0zLjY2eiIgY2xhc3M9IkIgSSIvPjxwYXRoIGQ9Ik0xOC42NDkgOC41ODZoMy42NnYtMy42NmgtMy42NnoiIGNsYXNzPSJCIEoiLz48L2c+PGcgY2xhc3M9IkMgRSBGIEcgSCI+PHVzZSB4bGluazpocmVmPSIjRCIgeD0iOC40NDUiIGNsYXNzPSJCIi8+PHVzZSB4bGluazpocmVmPSIjRCIgeD0iOC40NDUiIHk9Ii00LjIyMiIgY2xhc3M9IkIiLz48L2c+PGcgY2xhc3M9IkQiPjxwYXRoIGQ9Ik0yMi44NzIgNC45MjRoMy42NnYzLjY1OWgtMy42NnoiIGNsYXNzPSJCIEkiLz48cGF0aCBkPSJNMjIuODcyIDkuMTQ4aDMuNjZ2My42NmgtMy42NnoiIGNsYXNzPSJCIEoiLz48L2c+PGcgY2xhc3M9IkMgRSBGIEcgSCI+PHVzZSB4bGluazpocmVmPSIjQyIgeT0iNC4yMjMiIGNsYXNzPSJCIi8+PHVzZSB4bGluazpocmVmPSIjQyIgeT0iOC40NDUiIGNsYXNzPSJCIi8+PC9nPjxwYXRoIGQ9Ik0yNy4wOTQgMTIuODFoMy42NlY5LjE1MWgtMy42NnoiIGNsYXNzPSJCIEQgSSIvPjx1c2UgeGxpbms6aHJlZj0iI0QiIHg9IjE2Ljg4OSIgY2xhc3M9IkIgQyBFIEYgRyBIIi8+PGcgY2xhc3M9IkQiPjxwYXRoIGQ9Ik0xOC44NjYgMTkuNzUxYTEuMDEgMS4wMSAwIDAgMS0xLjAxIDEuMDEgMS4wMSAxLjAxIDAgMCAxLTEuMDEtMS4wMSAxLjAxIDEuMDEgMCAwIDEgMS4wMS0xLjAxIDEuMDEgMS4wMSAwIDAgMSAxLjAxIDEuMDF6IiBmaWxsPSIjZDRlZGYxIiBjbGFzcz0iQiIvPjxwYXRoIGQ9Ik0xOC4xMTkgMTkuMDc3Yy0uMTE1LjA2Ny0uMTcxLjIwMy0uMTM2LjMzMXMuMTUxLjIxOC4yODQuMjE5Yy4xMTIgMCAuMjA5LS4wNjIuMjU5LS4xNTRhLjcyLjcyIDAgMCAxIC4wNTUuMjc3YzAgLjM5OS0uMzI0LjcyMy0uNzIzLjcyM3MtLjcyMy0uMzI0LS43MjMtLjcyMy4zMjQtLjcyMy43MjMtLjcyM2EuNzIuNzIgMCAwIDEgLjI2Mi4wNDl6TTAgMTYuNjQ5aDQ2Ljk2NGMtMS4wMjMtLjI1OS0zLjIzNS0uNjEtMi44NzEtMS45NS0xLjg2IDIuMTUyLTYuMzQ0IDEuNTA5LTcuNDc1LjQ0OS0xLjI2IDEuODI4LTguNTk3IDEuMTMzLTkuMTA4LS4yOTEtMS41OCAxLjg1NC02LjQ3NSAxLjg1NC04LjA1NSAwLS41MTIgMS40MjItNy44NDggMi4xMTktOS4xMDkuMjkxLTEuMTMyIDEuMDYxLTUuNjE0IDEuNzAzLTcuNDc1LS40NDkuMzY1IDEuMzQtMS44NDggMS42OTEtMi44NzEgMS45NSIgZmlsbD0iIzM5NGQ1NCIgY2xhc3M9IkIiLz48cGF0aCBkPSJNNy45OSAyMC4zNjFsLS4zMzktLjYwOGMtLjUxOC0xLjAxNy0uODcyLTIuMTMxLTEuMDQ4LTMuMzE4aDMxLjcxNWMtNC4wNTcgNi42MS0xMC45ODMgOS42MDItMTguOTMgOS42MDItNC4yMjMgMC03Ljg4MS0xLjMzLTEwLjMzNS00LjA4NS0uMTQ1LS4yMDQtLjIyOC0uMzc0LS40NTYtLjY4MS0uMjE4LS4yOTMtLjQyOS0uNTkyLS42MDgtLjkxeiIgZmlsbC1vcGFjaXR5PSIuMTciIGNsYXNzPSJDIi8+PHBhdGggZmlsbD0iI2Q0ZWRmMSIgZD0iTTIwLjU0MSAyNi4wMThjLTIuNS0xLjE4Ny0zLjg3My0yLjgtNC42MzYtNC41NmwtNi45NzYuMzA0LjEyNS4xODljMi40NTQgMi43NTYgNi4xMTIgNC4wODUgMTAuMzM1IDQuMDg1YTMwLjkyIDMwLjkyIDAgMCAwIDEuMTQ2LS4wMjFsLjA0My0uMDAyIi8+PHBhdGggZD0iTTQxLjA4NyA5Ljk1OWMxLjMwNS0uNTg5IDMuNDE4LS44NDEgNS4wNzguMTE3LTEuMDg5IDIuMTI3LTMuNDggMi43NjYtNS45NzMgMi41MS0zLjUxMyA5LjMwOC0xMS40NSAxMy40NTEtMjAuODAzIDEzLjQ1MS00LjIyMyAwLTcuODgxLTEuMzMtMTAuMzM1LTQuMDg1LS4xNDUtLjIwNC0uMjI4LS4zNzQtLjQ1Ni0uNjgxLS4yMTgtLjI5My0uNDI5LS41OTItLjYwOC0uOTFsLS4zMzktLjYwOGMtLjkyOC0xLjgyNS0xLjMzMi0zLjk1OS0xLjExOC02LjI5aDEuNjAzYy0uMTEgMy41NTQgMS4yMDQgNi4yNTIgMy41MzcgNy44ODNsMS4wMTYuNjEyYzMuMTgzIDEuNjMyIDcuNzk2IDEuNjIzIDEzLjA4OC0uNDEgNS45MzItMi4yNzkgMTEuNDU3LTYuNjE0IDE1LjMxNi0xMS41OTJsLS4wMDcuMDEiIGZpbGwtb3BhY2l0eT0iLjE0IiBjbGFzcz0iQyIvPjwvZz48cGF0aCBkPSJNOC40MjUgMjEuNjExYzIuNjE2LjE0MyA1LjQwNy4xNjkgNy44NDItLjU5NSIgZmlsbD0ibm9uZSIgc3Ryb2tlLXdpZHRoPSIuNjI4IiBjbGFzcz0iRSBGIi8+PC9zeW1ib2w+PGRlZnM+PHBhdGggaWQ9IkMiIGQ9Ik0yMy4zMjEgNC4wNTh2LTMuMDVtLjU0OSAzLjA1di0zLjA1bS41NTQgMy4wNXYtMy4wNW0uNTU1IDMuMDV2LTMuMDVtLjU1NSAzLjA1di0zLjA1bS41NDggMy4wNXYtMy4wNSIvPjxwYXRoIGlkPSJEIiBkPSJNMTAuNjU0IDkuNDUzdjMuMDVtLjU0OS0zLjA1djMuMDVtLjU1NC0zLjA1djMuMDVtLjU1NS0zLjA1djMuMDVtLjU1NS0zLjA1djMuMDVtLjU0OC0zLjA1djMuMDUiLz48L2RlZnM+PC9zdmc+;" parent="qbExKh2GQzYHgT6TWYTY-1" vertex="1">
          <mxGeometry x="212" y="310" width="27" height="15.51" as="geometry" />
        </mxCell>
        <mxCell id="hM18RylwCYSOnlRyK38Z-21" value="" style="rounded=1;whiteSpace=wrap;html=1;" parent="qbExKh2GQzYHgT6TWYTY-1" vertex="1">
          <mxGeometry x="269.89" y="366" width="39" height="37" as="geometry" />
        </mxCell>
        <mxCell id="hM18RylwCYSOnlRyK38Z-22" value="" style="group;aspect=fixed;" parent="qbExKh2GQzYHgT6TWYTY-1" vertex="1" connectable="0">
          <mxGeometry x="274.89" y="370" width="29" height="29" as="geometry" />
        </mxCell>
        <mxCell id="hM18RylwCYSOnlRyK38Z-23" value="" style="group" parent="hM18RylwCYSOnlRyK38Z-22" vertex="1" connectable="0">
          <mxGeometry width="29" height="29" as="geometry" />
        </mxCell>
        <mxCell id="hM18RylwCYSOnlRyK38Z-24" value="" style="whiteSpace=wrap;html=1;aspect=fixed;fillColor=#001135;strokeColor=none;connectable=1;allowArrows=1;fontFamily=Manrope;fontSource=https%3A%2F%2Ffonts.googleapis.com%2Fcss%3Ffamily%3DManrope;" parent="hM18RylwCYSOnlRyK38Z-23" vertex="1">
          <mxGeometry width="29" height="29" as="geometry" />
        </mxCell>
        <mxCell id="hM18RylwCYSOnlRyK38Z-25" value="" style="endArrow=open;html=1;edgeStyle=orthogonalEdgeStyle;rounded=0;endFill=0;startSize=6;endSize=2;strokeColor=#FFFFFF;fontFamily=Manrope;fontSource=https%3A%2F%2Ffonts.googleapis.com%2Fcss%3Ffamily%3DManrope;" parent="hM18RylwCYSOnlRyK38Z-23" edge="1">
          <mxGeometry width="48.33333333333334" height="48.33333333333334" as="geometry">
            <mxPoint x="2.9" y="11.6" as="sourcePoint" />
            <mxPoint x="10.633333333333335" y="2.9" as="targetPoint" />
            <Array as="points">
              <mxPoint x="10.633333333333335" y="11.6" />
            </Array>
          </mxGeometry>
        </mxCell>
        <mxCell id="hM18RylwCYSOnlRyK38Z-26" value="" style="endArrow=open;html=1;edgeStyle=orthogonalEdgeStyle;rounded=0;endFill=0;startSize=6;endSize=2;strokeColor=#FFFFFF;fontFamily=Manrope;fontSource=https%3A%2F%2Ffonts.googleapis.com%2Fcss%3Ffamily%3DManrope;" parent="hM18RylwCYSOnlRyK38Z-23" edge="1">
          <mxGeometry width="48.33333333333334" height="48.33333333333334" as="geometry">
            <mxPoint x="10.633333333333335" y="26.1" as="sourcePoint" />
            <mxPoint x="2.9" y="18.366666666666667" as="targetPoint" />
            <Array as="points">
              <mxPoint x="10.633333333333335" y="18.366666666666667" />
            </Array>
          </mxGeometry>
        </mxCell>
        <mxCell id="hM18RylwCYSOnlRyK38Z-27" value="" style="endArrow=open;html=1;edgeStyle=orthogonalEdgeStyle;rounded=0;endFill=0;startSize=6;endSize=2;strokeColor=#FFFFFF;fontFamily=Manrope;fontSource=https%3A%2F%2Ffonts.googleapis.com%2Fcss%3Ffamily%3DManrope;" parent="hM18RylwCYSOnlRyK38Z-23" edge="1">
          <mxGeometry width="48.33333333333334" height="48.33333333333334" as="geometry">
            <mxPoint x="17.4" y="2.9" as="sourcePoint" />
            <mxPoint x="26.1" y="11.6" as="targetPoint" />
            <Array as="points">
              <mxPoint x="17.4" y="11.6" />
            </Array>
          </mxGeometry>
        </mxCell>
        <mxCell id="hM18RylwCYSOnlRyK38Z-28" value="" style="endArrow=open;html=1;edgeStyle=orthogonalEdgeStyle;rounded=0;endFill=0;startSize=6;endSize=2;strokeColor=#FFFFFF;fontFamily=Manrope;fontSource=https%3A%2F%2Ffonts.googleapis.com%2Fcss%3Ffamily%3DManrope;" parent="hM18RylwCYSOnlRyK38Z-23" edge="1">
          <mxGeometry width="48.33333333333334" height="48.33333333333334" as="geometry">
            <mxPoint x="26.1" y="18.366666666666667" as="sourcePoint" />
            <mxPoint x="17.4" y="26.1" as="targetPoint" />
            <Array as="points">
              <mxPoint x="17.4" y="18.366666666666667" />
            </Array>
          </mxGeometry>
        </mxCell>
        <mxCell id="hM18RylwCYSOnlRyK38Z-29" value="" style="shape=image;verticalLabelPosition=bottom;labelBackgroundColor=#ffffff;verticalAlign=top;aspect=fixed;imageAspect=0;image=data:image/svg+xml,PHN2ZyB4bWxucz0iaHR0cDovL3d3dy53My5vcmcvMjAwMC9zdmciIHhtbG5zOnhsaW5rPSJodHRwOi8vd3d3LnczLm9yZy8xOTk5L3hsaW5rIiB2aWV3Qm94PSIwLjUgMC41IDQ3LjA5NzAwMDEyMjA3MDMxIDI2Ljc0Mzk5OTQ4MTIwMTE3MiIgZmlsbD0iI2ZmZiIgZmlsbC1ydWxlPSJldmVub2RkIiBzdHJva2U9IiMwMDAiIHN0cm9rZS1saW5lY2FwPSJyb3VuZCIgc3Ryb2tlLWxpbmVqb2luPSJyb3VuZCIgd2lkdGg9IjQ3LjA5NzAwMDEyMjA3MDMxIiBoZWlnaHQ9IjI2Ljc0Mzk5OTQ4MTIwMTE3MiI+PHN0eWxlPi5Ce2ZpbGwtcnVsZTpub256ZXJvfS5De2ZpbGw6IzAwMH0uRHtzdHJva2U6bm9uZX0uRXtzdHJva2U6IzM5NGQ1NH0uRntzdHJva2UtbGluZWpvaW46bWl0ZXJ9Lkd7c3Ryb2tlLWxpbmVjYXA6YnV0dH0uSHtzdHJva2Utd2lkdGg6LjI4OH0uSXtmaWxsOiMwMGFjZDN9Lkp7ZmlsbDojMjBjMmVmfTwvc3R5bGU+PHVzZSB4bGluazpocmVmPSIjQSIgeD0iLjUiIHk9Ii41Ii8+PHN5bWJvbCBpZD0iQSIgb3ZlcmZsb3c9InZpc2libGUiPjxnIGNsYXNzPSJEIj48cGF0aCBkPSJNMjcuMjM1IDguNDQ1aDQuMjIydjQuMzE2aDIuMTM1Yy45ODYgMCAyLS4xNzUgMi45MzQtLjQ5Mi40NTktLjE1NS45NzQtLjM3MiAxLjQyNi0uNjQ2LS41OTYtLjc3OC0uOS0xLjc2MS0uOTktMi43MjktLjEyMi0xLjMxNy4xNDQtMy4wMzIgMS4wMzQtNC4wNjNsLjQ0NC0uNTEzLjUyOS40MjVjMS4zMyAxLjA3IDIuNDUyIDIuNTY3IDIuNjQ5IDQuMjY5IDEuNjAzLS40NzIgMy40ODYtLjM2IDQuODk5LjQ1NmwuNTguMzM1LS4zMDUuNTk2Yy0xLjE5NCAyLjMzNS0zLjY5MyAzLjA1Ny02LjEzNiAyLjkyOS0zLjY1NiA5LjEwNC0xMS42MTQgMTMuNDE2LTIxLjI2NSAxMy40MTYtNC45ODYgMC05LjU2LTEuODY0LTEyLjE2NS02LjI4Ny0uMTUzLS4yNzUtLjI4My0uNTYyLS40MjItLjg0NC0uODgtMS45NDctMS4xNzMtNC4wOC0uOTc1LTYuMjExbC4wNTktLjYzOGgzLjYxMVY4LjQ0NWg0LjIyMlY0LjIyMmg4LjQ0NVYwaDUuMDY3djguNDQ1IiBmaWxsPSIjMzk0ZDU0IiBjbGFzcz0iQiIvPjxwYXRoIGZpbGw9IiMxN2I1ZWIiIGQ9Ik00Ni4xNjcgMTAuMDY5Yy0xLjA5MiAyLjEzMy0zLjQ4MyAyLjc3Mi01Ljk3NSAyLjUxNy0zLjUxMyA5LjMwOC0xMS40NSAxMy40NTEtMjAuODAzIDEzLjQ1MS00LjIyMyAwLTcuODgxLTEuMzMtMTAuMzM1LTQuMDg1LS4xNDUtLjIwNC0uMjI4LS4zNzQtLjQ1Ni0uNjgxLS4yMTgtLjI5My0uNDI5LS41OTItLjYwOC0uOTFsLS4zMzktLjYwOGMtLjkyOC0xLjgyNS0xLjMzMi0zLjk1OS0xLjExOC02LjI4OGgyNy4wNThjMi4yMjMgMCA0LjM5NC0uODI5IDUuNDI1LTEuNzQ1LTEuODQ2LTEuNTAxLTEuNjYzLTUuMDY3LS40ODctNi40MjcgMS4wMjEuODIgMi42NjggMi41NDkgMi4zODMgNC43NSAxLjI4Ni0uNjQ4IDMuNTE2LS45NjkgNS4yNTQuMDI2eiIvPjxwYXRoIGQ9Ik0yMi44NzIuNzA0aDMuNjZ2My42NmgtMy42NnoiIGNsYXNzPSJCIEoiLz48L2c+PHVzZSB4bGluazpocmVmPSIjQyIgY2xhc3M9IkIgQyBFIEYgRyBIIi8+PHBhdGggZD0iTTEwLjIwNSAxMi44MWgzLjY2VjkuMTUxaC0zLjY2eiIgY2xhc3M9IkIgRCBJIi8+PHVzZSB4bGluazpocmVmPSIjRCIgY2xhc3M9IkIgQyBFIEYgRyBIIi8+PGcgY2xhc3M9IkQiPjxwYXRoIGQ9Ik0xNC40MjcgNC45MjRoMy42NnYzLjY1OWgtMy42NnoiIGNsYXNzPSJCIEkiLz48cGF0aCBkPSJNMTQuNDI3IDkuMTQ4aDMuNjZ2My42NmgtMy42NnoiIGNsYXNzPSJCIEoiLz48L2c+PGcgY2xhc3M9IkMgRSBGIEcgSCI+PHVzZSB4bGluazpocmVmPSIjQyIgeD0iLTguNDQ1IiB5PSI0LjIyMyIgY2xhc3M9IkIiLz48dXNlIHhsaW5rOmhyZWY9IiNDIiB4PSItOC40NDUiIHk9IjguNDQ1IiBjbGFzcz0iQiIvPjwvZz48ZyBjbGFzcz0iRCI+PHBhdGggZD0iTTE4LjY0OSAxMi44MWgzLjY2VjkuMTUxaC0zLjY2eiIgY2xhc3M9IkIgSSIvPjxwYXRoIGQ9Ik0xOC42NDkgOC41ODZoMy42NnYtMy42NmgtMy42NnoiIGNsYXNzPSJCIEoiLz48L2c+PGcgY2xhc3M9IkMgRSBGIEcgSCI+PHVzZSB4bGluazpocmVmPSIjRCIgeD0iOC40NDUiIGNsYXNzPSJCIi8+PHVzZSB4bGluazpocmVmPSIjRCIgeD0iOC40NDUiIHk9Ii00LjIyMiIgY2xhc3M9IkIiLz48L2c+PGcgY2xhc3M9IkQiPjxwYXRoIGQ9Ik0yMi44NzIgNC45MjRoMy42NnYzLjY1OWgtMy42NnoiIGNsYXNzPSJCIEkiLz48cGF0aCBkPSJNMjIuODcyIDkuMTQ4aDMuNjZ2My42NmgtMy42NnoiIGNsYXNzPSJCIEoiLz48L2c+PGcgY2xhc3M9IkMgRSBGIEcgSCI+PHVzZSB4bGluazpocmVmPSIjQyIgeT0iNC4yMjMiIGNsYXNzPSJCIi8+PHVzZSB4bGluazpocmVmPSIjQyIgeT0iOC40NDUiIGNsYXNzPSJCIi8+PC9nPjxwYXRoIGQ9Ik0yNy4wOTQgMTIuODFoMy42NlY5LjE1MWgtMy42NnoiIGNsYXNzPSJCIEQgSSIvPjx1c2UgeGxpbms6aHJlZj0iI0QiIHg9IjE2Ljg4OSIgY2xhc3M9IkIgQyBFIEYgRyBIIi8+PGcgY2xhc3M9IkQiPjxwYXRoIGQ9Ik0xOC44NjYgMTkuNzUxYTEuMDEgMS4wMSAwIDAgMS0xLjAxIDEuMDEgMS4wMSAxLjAxIDAgMCAxLTEuMDEtMS4wMSAxLjAxIDEuMDEgMCAwIDEgMS4wMS0xLjAxIDEuMDEgMS4wMSAwIDAgMSAxLjAxIDEuMDF6IiBmaWxsPSIjZDRlZGYxIiBjbGFzcz0iQiIvPjxwYXRoIGQ9Ik0xOC4xMTkgMTkuMDc3Yy0uMTE1LjA2Ny0uMTcxLjIwMy0uMTM2LjMzMXMuMTUxLjIxOC4yODQuMjE5Yy4xMTIgMCAuMjA5LS4wNjIuMjU5LS4xNTRhLjcyLjcyIDAgMCAxIC4wNTUuMjc3YzAgLjM5OS0uMzI0LjcyMy0uNzIzLjcyM3MtLjcyMy0uMzI0LS43MjMtLjcyMy4zMjQtLjcyMy43MjMtLjcyM2EuNzIuNzIgMCAwIDEgLjI2Mi4wNDl6TTAgMTYuNjQ5aDQ2Ljk2NGMtMS4wMjMtLjI1OS0zLjIzNS0uNjEtMi44NzEtMS45NS0xLjg2IDIuMTUyLTYuMzQ0IDEuNTA5LTcuNDc1LjQ0OS0xLjI2IDEuODI4LTguNTk3IDEuMTMzLTkuMTA4LS4yOTEtMS41OCAxLjg1NC02LjQ3NSAxLjg1NC04LjA1NSAwLS41MTIgMS40MjItNy44NDggMi4xMTktOS4xMDkuMjkxLTEuMTMyIDEuMDYxLTUuNjE0IDEuNzAzLTcuNDc1LS40NDkuMzY1IDEuMzQtMS44NDggMS42OTEtMi44NzEgMS45NSIgZmlsbD0iIzM5NGQ1NCIgY2xhc3M9IkIiLz48cGF0aCBkPSJNNy45OSAyMC4zNjFsLS4zMzktLjYwOGMtLjUxOC0xLjAxNy0uODcyLTIuMTMxLTEuMDQ4LTMuMzE4aDMxLjcxNWMtNC4wNTcgNi42MS0xMC45ODMgOS42MDItMTguOTMgOS42MDItNC4yMjMgMC03Ljg4MS0xLjMzLTEwLjMzNS00LjA4NS0uMTQ1LS4yMDQtLjIyOC0uMzc0LS40NTYtLjY4MS0uMjE4LS4yOTMtLjQyOS0uNTkyLS42MDgtLjkxeiIgZmlsbC1vcGFjaXR5PSIuMTciIGNsYXNzPSJDIi8+PHBhdGggZmlsbD0iI2Q0ZWRmMSIgZD0iTTIwLjU0MSAyNi4wMThjLTIuNS0xLjE4Ny0zLjg3My0yLjgtNC42MzYtNC41NmwtNi45NzYuMzA0LjEyNS4xODljMi40NTQgMi43NTYgNi4xMTIgNC4wODUgMTAuMzM1IDQuMDg1YTMwLjkyIDMwLjkyIDAgMCAwIDEuMTQ2LS4wMjFsLjA0My0uMDAyIi8+PHBhdGggZD0iTTQxLjA4NyA5Ljk1OWMxLjMwNS0uNTg5IDMuNDE4LS44NDEgNS4wNzguMTE3LTEuMDg5IDIuMTI3LTMuNDggMi43NjYtNS45NzMgMi41MS0zLjUxMyA5LjMwOC0xMS40NSAxMy40NTEtMjAuODAzIDEzLjQ1MS00LjIyMyAwLTcuODgxLTEuMzMtMTAuMzM1LTQuMDg1LS4xNDUtLjIwNC0uMjI4LS4zNzQtLjQ1Ni0uNjgxLS4yMTgtLjI5My0uNDI5LS41OTItLjYwOC0uOTFsLS4zMzktLjYwOGMtLjkyOC0xLjgyNS0xLjMzMi0zLjk1OS0xLjExOC02LjI5aDEuNjAzYy0uMTEgMy41NTQgMS4yMDQgNi4yNTIgMy41MzcgNy44ODNsMS4wMTYuNjEyYzMuMTgzIDEuNjMyIDcuNzk2IDEuNjIzIDEzLjA4OC0uNDEgNS45MzItMi4yNzkgMTEuNDU3LTYuNjE0IDE1LjMxNi0xMS41OTJsLS4wMDcuMDEiIGZpbGwtb3BhY2l0eT0iLjE0IiBjbGFzcz0iQyIvPjwvZz48cGF0aCBkPSJNOC40MjUgMjEuNjExYzIuNjE2LjE0MyA1LjQwNy4xNjkgNy44NDItLjU5NSIgZmlsbD0ibm9uZSIgc3Ryb2tlLXdpZHRoPSIuNjI4IiBjbGFzcz0iRSBGIi8+PC9zeW1ib2w+PGRlZnM+PHBhdGggaWQ9IkMiIGQ9Ik0yMy4zMjEgNC4wNTh2LTMuMDVtLjU0OSAzLjA1di0zLjA1bS41NTQgMy4wNXYtMy4wNW0uNTU1IDMuMDV2LTMuMDVtLjU1NSAzLjA1di0zLjA1bS41NDggMy4wNXYtMy4wNSIvPjxwYXRoIGlkPSJEIiBkPSJNMTAuNjU0IDkuNDUzdjMuMDVtLjU0OS0zLjA1djMuMDVtLjU1NC0zLjA1djMuMDVtLjU1NS0zLjA1djMuMDVtLjU1NS0zLjA1djMuMDVtLjU0OC0zLjA1djMuMDUiLz48L2RlZnM+PC9zdmc+;" parent="qbExKh2GQzYHgT6TWYTY-1" vertex="1">
          <mxGeometry x="295.78" y="361" width="27" height="15.51" as="geometry" />
        </mxCell>
        <mxCell id="hM18RylwCYSOnlRyK38Z-30" value="" style="rounded=0;orthogonalLoop=1;jettySize=auto;html=1;fontFamily=Manrope;fontSize=12;fontColor=#FFFFFF;endArrow=oval;endFill=1;startArrow=oval;startFill=1;strokeColor=#98A2AE;entryX=0.409;entryY=0.987;entryDx=0;entryDy=0;exitX=0.947;exitY=0.066;exitDx=0;exitDy=0;endSize=3;startSize=3;entryPerimeter=0;exitPerimeter=0;" parent="qbExKh2GQzYHgT6TWYTY-1" source="hM18RylwCYSOnlRyK38Z-3" target="hM18RylwCYSOnlRyK38Z-12" edge="1">
          <mxGeometry relative="1" as="geometry">
            <mxPoint x="219.53553390593277" y="365.21446609406723" as="sourcePoint" />
            <mxPoint x="236.42999999999995" y="361.51" as="targetPoint" />
          </mxGeometry>
        </mxCell>
        <mxCell id="hM18RylwCYSOnlRyK38Z-31" value="" style="rounded=0;orthogonalLoop=1;jettySize=auto;html=1;fontFamily=Manrope;fontSize=12;fontColor=#FFFFFF;endArrow=oval;endFill=1;startArrow=oval;startFill=1;strokeColor=#98A2AE;entryX=0.666;entryY=0.987;entryDx=0;entryDy=0;exitX=0.018;exitY=0.075;exitDx=0;exitDy=0;endSize=3;startSize=3;exitPerimeter=0;entryPerimeter=0;" parent="qbExKh2GQzYHgT6TWYTY-1" source="hM18RylwCYSOnlRyK38Z-21" target="hM18RylwCYSOnlRyK38Z-12" edge="1">
          <mxGeometry relative="1" as="geometry">
            <mxPoint x="265.21000000000004" y="365.37" as="sourcePoint" />
            <mxPoint x="246.63" y="362.1099999999999" as="targetPoint" />
          </mxGeometry>
        </mxCell>
        <mxCell id="hM18RylwCYSOnlRyK38Z-32" value="" style="shape=image;verticalLabelPosition=bottom;verticalAlign=top;imageAspect=0;aspect=fixed;image=data:image/svg+xml,PHN2ZyB4bWxuczpkYz0iaHR0cDovL3B1cmwub3JnL2RjL2VsZW1lbnRzLzEuMS8iIHhtbG5zOmNjPSJodHRwOi8vY3JlYXRpdmVjb21tb25zLm9yZy9ucyMiIHhtbG5zOnJkZj0iaHR0cDovL3d3dy53My5vcmcvMTk5OS8wMi8yMi1yZGYtc3ludGF4LW5zIyIgeG1sbnM6c3ZnPSJodHRwOi8vd3d3LnczLm9yZy8yMDAwL3N2ZyIgeG1sbnM9Imh0dHA6Ly93d3cudzMub3JnLzIwMDAvc3ZnIiB4bWxuczpzb2RpcG9kaT0iaHR0cDovL3NvZGlwb2RpLnNvdXJjZWZvcmdlLm5ldC9EVEQvc29kaXBvZGktMC5kdGQiIHhtbG5zOmlua3NjYXBlPSJodHRwOi8vd3d3Lmlua3NjYXBlLm9yZy9uYW1lc3BhY2VzL2lua3NjYXBlIiBpbmtzY2FwZTp2ZXJzaW9uPSIxLjByYzEgKDA5OTYwZDYsIDIwMjAtMDQtMDkpIiBzb2RpcG9kaTpkb2NuYW1lPSJjb250YWluZXJsYWJfZXhwb3J0X3doaXRlX2luay5zdmciIHZpZXdCb3g9IjkuOTk3OTkzNDY5MjM4MjgxIDEwLjAwNDU3NzYzNjcxODc1IDE1OC44OTk5MzI4NjEzMjgxMiAxMzMuNDE5NDMzNTkzNzUiIHZlcnNpb249IjEuMSIgaGVpZ2h0PSIxMzMuNDE5NDMzNTkzNzUiIHdpZHRoPSIxNTguODk5OTMyODYxMzI4MTIiIGlkPSJzdmciPiYjeGE7ICA8bWV0YWRhdGEgaWQ9Im1ldGFkYXRhODg2Ij4mI3hhOyAgICA8cmRmOnJkZj4mI3hhOyAgICAgIDxjYzp3b3JrIHJkZjphYm91dD0iIj4mI3hhOyAgICAgICAgPGRjOmZvcm1hdD5pbWFnZS9zdmcreG1sPC9kYzpmb3JtYXQ+JiN4YTsgICAgICAgIDxkYzp0eXBlIHJkZjpyZXNvdXJjZT0iaHR0cDovL3B1cmwub3JnL2RjL2RjbWl0eXBlL1N0aWxsSW1hZ2UiLz4mI3hhOyAgICAgICAgPGRjOnRpdGxlLz4mI3hhOyAgICAgIDwvY2M6d29yaz4mI3hhOyAgICA8L3JkZjpyZGY+JiN4YTsgIDwvbWV0YWRhdGE+JiN4YTsgIDxkZWZzIGlkPSJkZWZzODg0Ii8+JiN4YTsgIDxzb2RpcG9kaTpuYW1lZHZpZXcgaW5rc2NhcGU6Y3VycmVudC1sYXllcj0iZzg3OSIgaW5rc2NhcGU6d2luZG93LW1heGltaXplZD0iMCIgaW5rc2NhcGU6d2luZG93LXk9IjIzIiBpbmtzY2FwZTp3aW5kb3cteD0iMCIgaW5rc2NhcGU6Y3k9IjEzMC4yNTY0MSIgaW5rc2NhcGU6Y3g9IjE2Ny45MjMzIiBpbmtzY2FwZTp6b29tPSIyLjU0MDA2NjYiIHNob3dncmlkPSJmYWxzZSIgaWQ9Im5hbWVkdmlldzg4MiIgaW5rc2NhcGU6d2luZG93LWhlaWdodD0iMTIyMiIgaW5rc2NhcGU6d2luZG93LXdpZHRoPSIyMDA4IiBpbmtzY2FwZTpwYWdlc2hhZG93PSIyIiBpbmtzY2FwZTpwYWdlb3BhY2l0eT0iMCIgZ3VpZGV0b2xlcmFuY2U9IjEwIiBncmlkdG9sZXJhbmNlPSIxMCIgb2JqZWN0dG9sZXJhbmNlPSIxMCIgYm9yZGVyb3BhY2l0eT0iMSIgYm9yZGVyY29sb3I9IiM2NjY2NjYiIHBhZ2Vjb2xvcj0iI2ZmZmZmZiIvPiYjeGE7ICA8ZyBpZD0iZzg0MyIgdHJhbnNmb3JtPSJ0cmFuc2xhdGUoLTEwNC4yNiAtOTcuNjU0KSI+JiN4YTsgICAgPGcgaWQ9Imc4MzkiIHN0cm9rZS13aWR0aD0iLjgiIHN0cm9rZT0iIzAwYzlmZiIgZmlsbD0ibm9uZSI+JiN4YTsgICAgICA8cGF0aCBpZD0icGF0aDgzMyIgZD0ibTE5Ny4wOSAxNjUuODZhMS43NTc4IDEuNzgyOSAwIDAgMS0xLjc1NzggMS43ODI5IDEuNzU3OCAxLjc4MjkgMCAwIDEtMS43NTc4LTEuNzgyOSAxLjc1NzggMS43ODI5IDAgMCAxIDEuNzU3OC0xLjc4MjkgMS43NTc4IDEuNzgyOSAwIDAgMSAxLjc1NzggMS43ODI5Ii8+JiN4YTsgICAgICA8cGF0aCBpZD0icGF0aDgzNSIgZD0ibTE4OS42MiAxNjEuNjZhMi43NTg4IDIuNjUzIDAgMCAxLTIuNzU4OCAyLjY1MyAyLjc1ODggMi42NTMgMCAwIDEtMi43NTg4LTIuNjUzIDIuNzU4OCAyLjY1MyAwIDAgMSAyLjc1ODgtMi42NTMgMi43NTg4IDIuNjUzIDAgMCAxIDIuNzU4OCAyLjY1MyIvPiYjeGE7ICAgICAgPHBhdGggaWQ9InBhdGg4MzciIGQ9Im0xOTYuNDkgMTUyLjQxYTQuMTA0MyAzLjk2MSAwIDAgMS00LjEwNDMgMy45NjEgNC4xMDQzIDMuOTYxIDAgMCAxLTQuMTA0My0zLjk2MSA0LjEwNDMgMy45NjEgMCAwIDEgNC4xMDQzLTMuOTYxIDQuMTA0MyAzLjk2MSAwIDAgMSA0LjEwNDMgMy45NjEiLz4mI3hhOyAgICA8L2c+JiN4YTsgICAgPHBhdGggaWQ9InBhdGg4NDEiIGZpbGw9IiMwMGM5ZmYiIGQ9Im0xODQuNjkgMTY4Ljk2Yy0wLjUwNSAwLjIxMy0xLjUyOCAwLjg1Mi0yLjI3MyAxLjQyLTEuNDMgMS4wOTEtMy4xNTYgMS4zNjItNS4zMDggMC44MzQtMS41NTMtMC4zODEtMS42NjMgMC4wNjgtMC41OSAyLjQwMSA2LjYzMSAxNC40MiAyNi44NDggMTQuODk2IDMzLjg4IDAuNzk5IDEuNTc5LTMuMTY1IDEuNDMzLTMuNzItMC44MTgtMy4wOTgtMS45IDAuNTI0LTMuMTggMC4yMjctNC45NzItMS4xNTctMi40MzYtMS44ODEtNS42OTYtMS44ODMtNy4zOTYtNGUtMyAtMS43MDIgMS44ODEtNS4zNjEgMS43OTMtNy40NzctMC4xNzgtMS4xOTktMS4xMTgtMy42MzktMS42MDktNS4wNDYtMS4wMTciLz4mI3hhOyAgPC9nPiYjeGE7ICA8ZyBpZD0iZzg3NSIgdHJhbnNmb3JtPSJ0cmFuc2xhdGUoLTEwNC4yNiwtOTcuNjU0KSI+JiN4YTsgICAgPGcgaWQ9Imc4NzMiIGFyaWEtbGFiZWw9IkNPTlRBSU5FUmxhYiI+JiN4YTsgICAgICA8ZyBzdHlsZT0iZmlsbDojZmZmZmZmO2ZpbGwtb3BhY2l0eToxIiBpZD0iZzg2MyIgZmlsbD0iIzAwMTEzNSI+JiN4YTsgICAgICAgIDxwYXRoIGlua3NjYXBlOmNvbm5lY3Rvci1jdXJ2YXR1cmU9IjAiIGlkPSJwYXRoODQ1IiBzdHlsZT0iZm9udC12YXJpYW50LWxpZ2F0dXJlczpub3JtYWw7Zm9udC12YXJpYW50LWNhcHM6bm9ybWFsO2ZvbnQtdmFyaWFudC1udW1lcmljOm5vcm1hbDtmb250LXZhcmlhbnQtZWFzdC1hc2lhbjpub3JtYWw7ZmlsbDojZmZmZmZmO2ZpbGwtb3BhY2l0eToxIiBkPSJtIDEyMS41MywyMjQuOSBxIC0yLjcxMiwwIC00LjIsMS44OTYgLTEuNDg4LDEuODcyIC0xLjQ4OCw1LjU2OCAwLDMuNzkyIDEuNDg4LDUuNTQ0IDEuNDg4LDEuNzI4IDQuMiwxLjcyOCAwLjc5MiwwIDEuNDQsLTAuMTQ0IDAuNjcyLC0wLjE0NCAxLjIyNCwtMC4zNiAwLjU1MiwtMC4yMTYgMC45ODQsLTAuNDggMC40MzIsLTAuMjY0IDAuNzQ0LC0wLjUwNCBsIDAuNjk2LDEuMDggcSAtMC44MTYsMC42OTYgLTIuMTYsMS4yMjQgLTEuMzIsMC41MjggLTMuMDI0LDAuNTI4IC0zLjY3MiwwIC01LjQyNCwtMi4yMzIgLTEuNzUyLC0yLjIzMiAtMS43NTIsLTYuMzg0IDAsLTEuOTY4IDAuNDMyLC0zLjU3NiAwLjQ1NiwtMS42MzIgMS4zNDQsLTIuNzg0IDAuOTEyLC0xLjE1MiAyLjI1NiwtMS43NzYgMS4zNjgsLTAuNjQ4IDMuMTkyLC0wLjY0OCAwLjk4NCwwIDEuOCwwLjE5MiAwLjgxNiwwLjE5MiAxLjQ0LDAuNDggMC42MjQsMC4yNjQgMS4wNTYsMC41NzYgMC40NTYsMC4yODggMC43MiwwLjUyOCBsIC0wLjc2OCwxLjA4IHEgLTAuNiwtMC41MDQgLTEuNjMyLC0xLjAwOCAtMS4wMzIsLTAuNTI4IC0yLjU2OCwtMC41MjggeiIvPiYjeGE7ICAgICAgICA8cGF0aCBpbmtzY2FwZTpjb25uZWN0b3ItY3VydmF0dXJlPSIwIiBpZD0icGF0aDg0NyIgc3R5bGU9ImZvbnQtdmFyaWFudC1saWdhdHVyZXM6bm9ybWFsO2ZvbnQtdmFyaWFudC1jYXBzOm5vcm1hbDtmb250LXZhcmlhbnQtbnVtZXJpYzpub3JtYWw7Zm9udC12YXJpYW50LWVhc3QtYXNpYW46bm9ybWFsO2ZpbGw6I2ZmZmZmZjtmaWxsLW9wYWNpdHk6MSIgZD0ibSAxMjkuMTksMjMyLjI3IHEgMCwtMS45NjggMC40NTYsLTMuNTc2IDAuNDgsLTEuNjMyIDEuMzkyLC0yLjc4NCAwLjkxMiwtMS4xNTIgMi4yNTYsLTEuNzc2IDEuMzQ0LC0wLjY0OCAzLjA3MiwtMC42NDggMS43MjgsMCAzLjA0OCwwLjY0OCAxLjM0NCwwLjYyNCAyLjIzMiwxLjc3NiAwLjkxMiwxLjE1MiAxLjM2OCwyLjc4NCAwLjQ4LDEuNjA4IDAuNDgsMy41NzYgMCwxLjk2OCAtMC40OCwzLjYgLTAuNDU2LDEuNjA4IC0xLjM2OCwyLjc4NCAtMC44ODgsMS4xNTIgLTIuMjMyLDEuOCAtMS4zNDQsMC42MjQgLTMuMDcyLDAuNjI0IC0xLjcyOCwwIC0zLjA3MiwtMC42MjQgLTEuMzQ0LC0wLjY0OCAtMi4yNTYsLTEuOCAtMC44ODgsLTEuMTc2IC0xLjM2OCwtMi43ODQgLTAuNDU2LC0xLjYzMiAtMC40NTYsLTMuNiB6IG0gMS41ODQsMCBxIDAsMS42OCAwLjMzNiwzLjA0OCAwLjMzNiwxLjM0NCAxLjAzMiwyLjMyOCAwLjY5NiwwLjk2IDEuNzI4LDEuNDg4IDEuMDU2LDAuNTI4IDIuNDcyLDAuNTI4IDEuNDE2LDAgMi40NDgsLTAuNTI4IDEuMDU2LC0wLjUyOCAxLjc1MiwtMS40ODggMC42OTYsLTAuOTg0IDEuMDMyLC0yLjMyOCAwLjMzNiwtMS4zNjggMC4zMzYsLTMuMDQ4IDAsLTEuNjggLTAuMzM2LC0zLjAyNCAtMC4zMzYsLTEuMzY4IC0xLjAzMiwtMi4zMjggLTAuNjk2LC0wLjk2IC0xLjc1MiwtMS40ODggLTEuMDMyLC0wLjUyOCAtMi40NDgsLTAuNTI4IC0xLjQxNiwwIC0yLjQ3MiwwLjUyOCAtMS4wMzIsMC41MjggLTEuNzI4LDEuNDg4IC0wLjY5NiwwLjk2IC0xLjAzMiwyLjMyOCAtMC4zMzYsMS4zNDQgLTAuMzM2LDMuMDI0IHoiLz4mI3hhOyAgICAgICAgPHBhdGggaW5rc2NhcGU6Y29ubmVjdG9yLWN1cnZhdHVyZT0iMCIgaWQ9InBhdGg4NDkiIHN0eWxlPSJmb250LXZhcmlhbnQtbGlnYXR1cmVzOm5vcm1hbDtmb250LXZhcmlhbnQtY2Fwczpub3JtYWw7Zm9udC12YXJpYW50LW51bWVyaWM6bm9ybWFsO2ZvbnQtdmFyaWFudC1lYXN0LWFzaWFuOm5vcm1hbDtmaWxsOiNmZmZmZmY7ZmlsbC1vcGFjaXR5OjEiIGQ9Im0gMTQ5LjYzLDIyNi4zNCB2IDE0LjM3NiBoIC0xLjQ2NCB2IC0xNi44NzIgaCAxLjU4NCBsIDguMzc2LDE0LjMwNCB2IC0xNC4zMDQgaCAxLjQ2NCB2IDE2Ljg3MiBoIC0xLjQ2NCB6Ii8+JiN4YTsgICAgICAgIDxwYXRoIGlua3NjYXBlOmNvbm5lY3Rvci1jdXJ2YXR1cmU9IjAiIGlkPSJwYXRoODUxIiBzdHlsZT0iZm9udC12YXJpYW50LWxpZ2F0dXJlczpub3JtYWw7Zm9udC12YXJpYW50LWNhcHM6bm9ybWFsO2ZvbnQtdmFyaWFudC1udW1lcmljOm5vcm1hbDtmb250LXZhcmlhbnQtZWFzdC1hc2lhbjpub3JtYWw7ZmlsbDojZmZmZmZmO2ZpbGwtb3BhY2l0eToxIiBkPSJtIDE2OC42MywyMjUuMjYgaCAtNS4xODQgdiAtMS40MTYgaCAxMS44NTYgdiAxLjQxNiBoIC01LjE2IHYgMTUuNDU2IGggLTEuNTEyIHoiLz4mI3hhOyAgICAgICAgPHBhdGggaW5rc2NhcGU6Y29ubmVjdG9yLWN1cnZhdHVyZT0iMCIgaWQ9InBhdGg4NTMiIHN0eWxlPSJmb250LXZhcmlhbnQtbGlnYXR1cmVzOm5vcm1hbDtmb250LXZhcmlhbnQtY2Fwczpub3JtYWw7Zm9udC12YXJpYW50LW51bWVyaWM6bm9ybWFsO2ZvbnQtdmFyaWFudC1lYXN0LWFzaWFuOm5vcm1hbDtmaWxsOiNmZmZmZmY7ZmlsbC1vcGFjaXR5OjEiIGQ9Im0gMTg1LDIzNi4wMSBoIC02LjkzNiBsIC0xLjUxMiw0LjcwNCBoIC0xLjQ0IGwgNS42NCwtMTYuODcyIGggMS42OCBsIDUuNjY0LDE2Ljg3MiBoIC0xLjU2IHogbSAtNi41MjgsLTEuMzIgaCA2LjA5NiBsIC0zLjAyNCwtOS4xMiB6Ii8+JiN4YTsgICAgICAgIDxwYXRoIGlua3NjYXBlOmNvbm5lY3Rvci1jdXJ2YXR1cmU9IjAiIGlkPSJwYXRoODU1IiBzdHlsZT0iZm9udC12YXJpYW50LWxpZ2F0dXJlczpub3JtYWw7Zm9udC12YXJpYW50LWNhcHM6bm9ybWFsO2ZvbnQtdmFyaWFudC1udW1lcmljOm5vcm1hbDtmb250LXZhcmlhbnQtZWFzdC1hc2lhbjpub3JtYWw7ZmlsbDojZmZmZmZmO2ZpbGwtb3BhY2l0eToxIiBkPSJtIDE5My4wNSwyNDAuNzIgaCAtMS41MTIgdiAtMTYuODcyIGggMS41MTIgeiIvPiYjeGE7ICAgICAgICA8cGF0aCBpbmtzY2FwZTpjb25uZWN0b3ItY3VydmF0dXJlPSIwIiBpZD0icGF0aDg1NyIgc3R5bGU9ImZvbnQtdmFyaWFudC1saWdhdHVyZXM6bm9ybWFsO2ZvbnQtdmFyaWFudC1jYXBzOm5vcm1hbDtmb250LXZhcmlhbnQtbnVtZXJpYzpub3JtYWw7Zm9udC12YXJpYW50LWVhc3QtYXNpYW46bm9ybWFsO2ZpbGw6I2ZmZmZmZjtmaWxsLW9wYWNpdHk6MSIgZD0ibSAxOTkuNzEsMjI2LjM0IHYgMTQuMzc2IGggLTEuNDY0IHYgLTE2Ljg3MiBoIDEuNTg0IGwgOC4zNzYsMTQuMzA0IHYgLTE0LjMwNCBoIDEuNDY0IHYgMTYuODcyIGggLTEuNDY0IHoiLz4mI3hhOyAgICAgICAgPHBhdGggaW5rc2NhcGU6Y29ubmVjdG9yLWN1cnZhdHVyZT0iMCIgaWQ9InBhdGg4NTkiIHN0eWxlPSJmb250LXZhcmlhbnQtbGlnYXR1cmVzOm5vcm1hbDtmb250LXZhcmlhbnQtY2Fwczpub3JtYWw7Zm9udC12YXJpYW50LW51bWVyaWM6bm9ybWFsO2ZvbnQtdmFyaWFudC1lYXN0LWFzaWFuOm5vcm1hbDtmaWxsOiNmZmZmZmY7ZmlsbC1vcGFjaXR5OjEiIGQ9Im0gMjE0Ljg5LDIyMy44NSBoIDkuMzEyIHYgMS4zOTIgaCAtNy44IHYgNiBoIDYuMDk2IHYgMS4zOTIgaCAtNi4wOTYgdiA2LjY5NiBoIDguMDQgdiAxLjM5MiBoIC05LjU1MiB6Ii8+JiN4YTsgICAgICAgIDxwYXRoIGlua3NjYXBlOmNvbm5lY3Rvci1jdXJ2YXR1cmU9IjAiIGlkPSJwYXRoODYxIiBzdHlsZT0iZm9udC12YXJpYW50LWxpZ2F0dXJlczpub3JtYWw7Zm9udC12YXJpYW50LWNhcHM6bm9ybWFsO2ZvbnQtdmFyaWFudC1udW1lcmljOm5vcm1hbDtmb250LXZhcmlhbnQtZWFzdC1hc2lhbjpub3JtYWw7ZmlsbDojZmZmZmZmO2ZpbGwtb3BhY2l0eToxIiBkPSJtIDIzOC45OCwyNDAuNzIgaCAtMS43NTIgbCAtNC4xMjgsLTYuOTM2IGggLTMuNDA4IHYgNi45MzYgaCAtMS40ODggdiAtMTYuODcyIGggNC40NCBxIDEuNTEyLDAgMi41MiwwLjQzMiAxLjAzMiwwLjQzMiAxLjY1NiwxLjE1MiAwLjYyNCwwLjY5NiAwLjg4OCwxLjU4NCAwLjI4OCwwLjg2NCAwLjI4OCwxLjc1MiAwLDAuOTM2IC0wLjI2NCwxLjcwNCAtMC4yNjQsMC43NjggLTAuNzIsMS4zNDQgLTAuNDU2LDAuNTc2IC0xLjA4LDAuOTg0IC0wLjYsMC40MDggLTEuMjcyLDAuNjQ4IHogbSAtMi40NzIsLTExLjg4IHEgMCwtMS42OCAtMC45NiwtMi42NjQgLTAuOTM2LC0wLjk4NCAtMy4wNzIsLTAuOTg0IGggLTIuNzg0IHYgNy4yNzIgaCAyLjg4IHEgMi4wNCwwIDIuOTc2LC0wLjk4NCAwLjk2LC0wLjk4NCAwLjk2LC0yLjY0IHoiLz4mI3hhOyAgICAgIDwvZz4mI3hhOyAgICAgIDxnIGlkPSJnODcxIiBmaWxsPSIjMDBjOWZmIj4mI3hhOyAgICAgICAgPHBhdGggaW5rc2NhcGU6Y29ubmVjdG9yLWN1cnZhdHVyZT0iMCIgaWQ9InBhdGg4NjUiIHN0eWxlPSJmb250LXZhcmlhbnQtbGlnYXR1cmVzOm5vcm1hbDtmb250LXZhcmlhbnQtY2Fwczpub3JtYWw7Zm9udC12YXJpYW50LW51bWVyaWM6bm9ybWFsO2ZvbnQtdmFyaWFudC1lYXN0LWFzaWFuOm5vcm1hbCIgZD0ibSAyNDIuNDIsMjIyLjcyIGggMi4xMzYgdiAxOCBoIC0yLjEzNiB6Ii8+JiN4YTsgICAgICAgIDxwYXRoIGlua3NjYXBlOmNvbm5lY3Rvci1jdXJ2YXR1cmU9IjAiIGlkPSJwYXRoODY3IiBzdHlsZT0iZm9udC12YXJpYW50LWxpZ2F0dXJlczpub3JtYWw7Zm9udC12YXJpYW50LWNhcHM6bm9ybWFsO2ZvbnQtdmFyaWFudC1udW1lcmljOm5vcm1hbDtmb250LXZhcmlhbnQtZWFzdC1hc2lhbjpub3JtYWwiIGQ9Im0gMjU1Ljk3LDIzNS4xMyBxIC0wLjAyNCwwIC0wLjMxMiwtMC4wNDggLTAuMjg4LC0wLjA0OCAtMC43MiwtMC4wNzIgLTAuNDMyLC0wLjA0OCAtMC45MzYsLTAuMDcyIC0wLjUwNCwtMC4wNDggLTAuOTM2LC0wLjA0OCAtMC43NjgsMCAtMS4zMiwwLjE5MiAtMC41MjgsMC4xOTIgLTAuODY0LDAuNTI4IC0wLjMzNiwwLjMxMiAtMC41MDQsMC43NDQgLTAuMTQ0LDAuNDMyIC0wLjE0NCwwLjkzNiAwLDEuMDMyIDAuNjcyLDEuNTM2IDAuNjk2LDAuNTA0IDEuOCwwLjUwNCAwLjYsMCAxLjE3NiwtMC4xOTIgMC41NzYsLTAuMTkyIDEuMDMyLC0wLjUyOCAwLjQ4LC0wLjM2IDAuNzY4LC0wLjgxNiAwLjI4OCwtMC40OCAwLjI4OCwtMS4wNTYgeiBtIDAuMTQ0LDUuNTkyIC0wLjA5NiwtMS4zNDQgcSAtMC41NTIsMC43NjggLTEuNjA4LDEuMjI0IC0xLjA1NiwwLjQzMiAtMi4xODQsMC40MzIgLTAuNzIsMCAtMS40NCwtMC4xOTIgLTAuNzIsLTAuMTkyIC0xLjI5NiwtMC42MjQgLTAuNTc2LC0wLjQzMiAtMC45NiwtMS4xNTIgLTAuMzYsLTAuNzIgLTAuMzYsLTEuNzc2IDAsLTEuODQ4IDEuMiwtMi45NTIgMS4yLC0xLjEwNCAzLjYsLTEuMTA0IDAuMzg0LDAgMC44NjQsMC4wMjQgMC40OCwwLjAyNCAwLjkxMiwwLjA3MiAwLjQzMiwwLjAyNCAwLjc2OCwwLjA3MiAwLjMzNiwwLjAyNCAwLjQ1NiwwLjA0OCB2IC0wLjc0NCBxIDAsLTEuMzIgLTAuNzkyLC0xLjg5NiAtMC43NjgsLTAuNTc2IC0yLjIwOCwtMC41NzYgLTEuMjk2LDAgLTIuMjA4LDAuMjg4IC0wLjg4OCwwLjI4OCAtMS4yOTYsMC41MjggbCAtMC42NDgsLTEuNTEyIHEgMC4yMTYsLTAuMTQ0IDAuNiwtMC4zMzYgMC4zODQsLTAuMTkyIDAuOTM2LC0wLjM2IDAuNTc2LC0wLjE5MiAxLjI5NiwtMC4zMTIgMC43NDQsLTAuMTIgMS42NTYsLTAuMTIgMi4xODQsMCAzLjQ1NiwxLjA4IDEuMjcyLDEuMDU2IDEuMjcyLDMuMDk2IHYgOC4xMzYgeiIvPiYjeGE7ICAgICAgICA8cGF0aCBpbmtzY2FwZTpjb25uZWN0b3ItY3VydmF0dXJlPSIwIiBpZD0icGF0aDg2OSIgc3R5bGU9ImZvbnQtdmFyaWFudC1saWdhdHVyZXM6bm9ybWFsO2ZvbnQtdmFyaWFudC1jYXBzOm5vcm1hbDtmb250LXZhcmlhbnQtbnVtZXJpYzpub3JtYWw7Zm9udC12YXJpYW50LWVhc3QtYXNpYW46bm9ybWFsIiBkPSJtIDI2Mi4xOSwyMjIuNzIgaCAyLjEzNiB2IDcuNDg4IHEgMC4wOTYsLTAuMjE2IDAuMzYsLTAuNTA0IDAuMjg4LC0wLjMxMiAwLjc0NCwtMC42IDAuNDU2LC0wLjI4OCAxLjA4LC0wLjQ4IDAuNjI0LC0wLjIxNiAxLjQ0LC0wLjIxNiAxLjMyLDAgMi4zMDQsMC40OCAwLjk4NCwwLjQ4IDEuNjMyLDEuMzIgMC42NDgsMC44NCAwLjk2LDEuOTY4IDAuMzEyLDEuMTA0IDAuMzEyLDIuNCAwLDEuNzc2IC0wLjQ4LDMgLTAuNDgsMS4yIC0xLjI0OCwxLjk0NCAtMC43NjgsMC43NDQgLTEuNzUyLDEuMDggLTAuOTYsMC4zMTIgLTEuOTQ0LDAuMzEyIC0wLjcyLDAgLTEuMjk2LC0wLjE0NCAtMC41NTIsLTAuMTIgLTAuOTg0LC0wLjMxMiAtMC40MzIsLTAuMTkyIC0wLjc0NCwtMC40MDggLTAuMjg4LC0wLjIxNiAtMC40NTYsLTAuNDA4IGwgLTAuMDk2LDEuMDggaCAtMS45NjggeiBtIDUuMjU2LDE2LjM0NCBxIDEuNjA4LDAgMi41NDQsLTEuMDU2IDAuOTYsLTEuMDggMC45NiwtMy40MzIgMCwtMC45MTIgLTAuMTkyLC0xLjY4IC0wLjE5MiwtMC43OTIgLTAuNiwtMS4zNDQgLTAuNDA4LC0wLjU3NiAtMS4wMzIsLTAuODg4IC0wLjYsLTAuMzEyIC0xLjQ0LC0wLjMxMiAtMS42NTYsMCAtMi41MiwxLjE1MiAtMC44NjQsMS4xNTIgLTAuODY0LDMuNTUyIHYgMi42MTYgcSAwLjMzNiwwLjQ1NiAxLjEyOCwwLjkzNiAwLjgxNiwwLjQ1NiAyLjAxNiwwLjQ1NiB6Ii8+JiN4YTsgICAgICA8L2c+JiN4YTsgICAgPC9nPiYjeGE7ICA8L2c+JiN4YTsgIDxnIGlkPSJnODc5IiB0cmFuc2Zvcm09InRyYW5zbGF0ZSgtMTA0LjI2LC05Ny42NTQpIj4mI3hhOyAgICA8cGF0aCBzdHlsZT0iZmlsbDojZmZmZmZmO2ZpbGwtb3BhY2l0eToxIiBpbmtzY2FwZTpjb25uZWN0b3ItY3VydmF0dXJlPSIwIiBpZD0icGF0aDg3NyIgZmlsbC1ydWxlPSJldmVub2RkIiBmaWxsPSIjMDAxMTM1IiBkPSJtIDE4My44OCwxMDguMDMgYyAtMC45MDUsMC4zMDYgLTMuNDk3LDEuNjUxIC01Ljc2MSwyLjk5IC0zLjg1MywyLjI3OCAtMTEuMDEzLDYuMzg1IC0xNS4xMTcsOC42NzIgLTguOTEsNC45NjUgLTEyLjIyMiw3LjI0IC0xMy42LDkuMzQgbCAtMS40LDIuMTM1IHYgNDggbCAxLjQ5NSwyLjIzNCBjIDAuOTgxLDEuNDY2IDIuMTQ5LDIuNjA0IDMuNCwzLjMxMSAxLjA0OCwwLjU5MyAyLjE3NSwxLjI0OSAyLjUwNSwxLjQ1NyAxLjQyNywwLjkwMSA2Ljg4MiwzLjk5OCA3LjA0MSwzLjk5OCAwLjA5NiwwIDAuOTM2LDAuNDkgMS44NjcsMS4wOSAwLjkzMSwwLjU5OSAyLjA2OCwxLjI5MyAyLjUyNywxLjU0MyA1LjExOCwyLjc3NSA2LjQ1NiwzLjU0MyA2Ljk5Niw0LjAxNSAwLjM0OCwwLjMwNCAwLjc0LDAuNTUyIDAuODczLDAuNTUyIDAuMjEyLDAgOS41MTEsNS4zNTkgMTEuMDk2LDYuMzkzIDUuMDY0LDMuMzA4IDkuMjg0LDMuNTU2IDE0LjIsMC44MzcgMS43NiwtMC45NzQgMy41NiwtMS45NjkgNCwtMi4yMTEgMC40NCwtMC4yNDIgMS41NzEsLTAuOTM2IDIuNTEzLC0xLjU0MiAwLjk0MiwtMC42MDcgMi40NzIsLTEuNDk1IDMuNCwtMS45NzQgMC45MjgsLTAuNDc5IDMuMjU3LC0xLjgyMyA1LjE3NSwtMi45ODcgMS45MTgsLTEuMTY0IDMuNTcxLC0yLjExNiAzLjY3MiwtMi4xMTYgMC4xMDIsMCAyLjg1MiwtMS41NzYgNi4xMTIsLTMuNTAzIDMuMjYxLC0xLjkyNyA2LjU3MiwtMy44NDEgNy4zNTksLTQuMjU0IDMuMDI3LC0xLjU4OCA0LjYxNiwtMi45NTIgNS44NjksLTUuMDQxIGwgMS4zLC0yLjE2NyAtMC4wMDQsLTIzLjYxNyAtMC4wMDQsLTIzLjYxOCAtMS4xODQsLTIuMDY2IGMgLTAuNjUyLC0xLjEzNiAtMS44NjUsLTIuNTQxIC0yLjY5NywtMy4xMjEgLTEuNzk1LC0xLjI1NCAtMTEuNTY3LC02Ljk1MSAtMTcuMTExLC05Ljk3NiAtMC40NCwtMC4yNDEgLTEuMDcsLTAuNjQyIC0xLjQsLTAuODkyIC0wLjMzLC0wLjI1MSAtMS41LC0wLjkzNSAtMi42LC0xLjUyMiAtMS4xLC0wLjU4NiAtMi4zNTMsLTEuMjgxIC0yLjc4NSwtMS41NDQgLTguNzg2LC01LjM1NyAtMTEuMDE0LC01Ljg4OSAtMTIuOTk4LC0zLjEwMyAtMC43OTIsMS4xMTIgLTAuODE3LDEuNjY5IC0wLjgxNywxOC4yMDYgdiAxNy4wNTkgbCAxLjUsMC41OTcgYyA0LjUzNSwxLjgwNyA1LjI3NiwyLjIwOSA3Ljg4NSw0LjI3OCAyLjMwNSwxLjgyOSA2LjgxMzgsOC4zNTc3IDYuODEzOCw5LjU2MTcgMCwwLjI5NCAtMC4zNDY4LC0wLjQ1MDczIC0wLjAzNzgsMC4wMzYzIDIuMDg3LDMuMjk3IDEuNTY5LDExLjM3MyAtMS4wNTMsMTYuNDE1IC0xMS43NiwyMi42MTMgLTQ1LjQ5MywxMC41IC00MC4xNDYsLTE0LjQxNyAxLjQzMywtNi42NzggMTAuMTMyLC0xNS41NjkgMTUuMTI2LC0xNS43MTIgMS45NTksLTAuMDU2MSAxLjkxMiwtMC43ODQgMS45MTIsLTE3LjkwOSAwLC0xNy4wMTcgLTAuMDMzLC0xNy4zNTIgLTEuODU5LC0xOC45MzYgLTEuMTE5LC0wLjk3IC0yLjI0NiwtMS4xMDYgLTQuMDYzLC0wLjQ5MiBtIDEuNTc3LDE1LjM3NCBjIDAuMDEyLDUuODEgMC4wMDQsMTIuMjkxIC0wLjAxNywxNC40MDIgbCAtMC4wMzgsMy44MzkgLTIuOTc4LDEuNDcyIGMgLTI0LjEzMywxMS45MjcgLTE1LjY5Nyw0OC4zNzQgMTEuMTc4LDQ4LjI5IDI3LjM3NywtMC4wODUgMzUuNDcsLTM2LjEgMTAuOTEzLC00OC41NjUgbCAtMi41MTMsLTEuMjc1IHYgLTI5LjIgbCAwLjk3OSwwLjEwOSBjIDAuNTM4LDAuMDYgMS4yNTgsMC4zNSAxLjYsMC42NDQgMC4zNDEsMC4yOTMgMS44NTUsMS4yMDMgMy4zNjQsMi4wMjEgMS41MDgsMC44MTggMy44OTYsMi4xOTMgNS4zMDcsMy4wNTYgMS40MSwwLjg2NCAyLjYzNSwxLjU3IDIuNzIzLDEuNTcgMC4yNTYsMCAxMy4wMTIsNy40MjcgMTUuNTk5LDkuMDgyIDQuMjM3LDIuNzEyIDQuMDEzLDEuMjkxIDQuMTIyLDI2LjExOCBsIDAuMDk1LDIxLjQgLTAuOTI1LDEuOCBjIC0wLjkxMywxLjc3NSAtMi41MjMsMy4xMzcgLTUuNjY0LDQuNzg5IC0xLjY2MSwwLjg3MyAtMi41MDIsMS4zNjUgLTQuMTk4LDIuNDU0IC0wLjU1MSwwLjM1NCAtMi4wODIsMS4yMzkgLTMuNDAyLDEuOTY2IC0zLjcyNywyLjA1MyAtNC40MDEsMi40NCAtMTAuOCw2LjE5NSAtMy4zLDEuOTM3IC02LjcyLDMuOTA5IC03LjYsNC4zODIgLTAuODgsMC40NzMgLTMuMDU4LDEuNzA1IC00LjgzOSwyLjczNyAtNC45MjQsMi44NTMgLTUuMDEzLDIuODMxIC0xNi4zNiwtNC4wMDYgLTAuNDQsLTAuMjY1IC0xLjIzNCwtMC42NzcgLTEuNzY0LC0wLjkxNCAtMC41MjksLTAuMjM3IC0xLjc1MywtMC45NjUgLTIuNzIsLTEuNjE3IC0wLjk2NiwtMC42NTIgLTEuODkzLC0xLjE4NiAtMi4wNTksLTEuMTg2IC0wLjE2NiwwIC0xLjE5MiwtMC41NjkgLTIuMjgsLTEuMjY1IC0yLjEwOCwtMS4zNDkgLTkuMzg1LC01LjUzNSAtOS42MjIsLTUuNTM1IC0wLjA3NywwIC0xLjA5MywtMC41ODUgLTIuMjU4LC0xLjMgLTEuMTY1LC0wLjcxNSAtMi40NzMsLTEuNTE4IC0yLjkwOCwtMS43ODUgLTAuNDM0LC0wLjI2NyAtMS41NiwtMC44ODYgLTIuNTAxLC0xLjM3NiAtMC45NDEsLTAuNDkgLTIuMjAxLC0xLjUzMiAtMi44LC0yLjMxNSBsIC0xLjA4OSwtMS40MjQgdiAtNDUuNjIgbCAwLjkxLC0xLjE1NiBjIDAuODQ0LC0xLjA3MyA1LjExOSwtNC4xODcgNS43ODMsLTQuMjEzIDAuMTYxLC0wLjAwNiAxLjQ2OSwtMC43MzEgMi45MDcsLTEuNjExIDEuNDM4LC0wLjg4IDIuNzA4LC0xLjYgMi44MjMsLTEuNiAwLjExNSwwIDAuNjk3LC0wLjMzNSAxLjI5MywtMC43NDQgMS4xMywtMC43NzUgMTAuODEzLC02LjM4MyAxNC4yODQsLTguMjcxIDEuMSwtMC41OTkgMi4yNywtMS4zMTcgMi42LC0xLjU5NiAwLjc0NCwtMC42MjggMi4wOTQsLTAuOTQxIDIuNTE3LC0wLjU4MyAwLjE3NCwwLjE0NyAwLjMyNiw1LjAyMSAwLjMzOCwxMC44MzEiLz4mI3hhOyAgPC9nPiYjeGE7PC9zdmc+;" parent="qbExKh2GQzYHgT6TWYTY-1" vertex="1">
          <mxGeometry x="304.1" y="275" width="23.91" height="20" as="geometry" />
        </mxCell>
        <mxCell id="hM18RylwCYSOnlRyK38Z-33" value="" style="shape=image;verticalLabelPosition=bottom;labelBackgroundColor=default;verticalAlign=top;aspect=fixed;imageAspect=0;image=data:image/svg+xml,PHN2ZyB4bWxuczp4bGluaz0iaHR0cDovL3d3dy53My5vcmcvMTk5OS94bGluayIgeG1sbnM9Imh0dHA6Ly93d3cudzMub3JnLzIwMDAvc3ZnIiB4bWw6c3BhY2U9InByZXNlcnZlIiB3aWR0aD0iODAwcHgiIHZpZXdCb3g9IjAgMCA4MDAgODAwIiB2ZXJzaW9uPSIxLjEiIGlkPSJHVUlERSIgaGVpZ2h0PSI4MDBweCI+PHBhdGggZmlsbD0iIzA4MjEzRCIgZD0iTTU1MC43NTYsMjM0LjI0NEgyNDkuMjQ1Yy04LjI4NSwwLTE1LDYuNzE3LTE1LDE1djMwMS41MTJjMCw4LjI4NCw2LjcxNSwxNSwxNSwxNWgzMDEuNTExICBjOC4yODQsMCwxNS02LjcxNiwxNS0xNVYyNDkuMjQ0QzU2NS43NTYsMjQwLjk2MSw1NTkuMDQsMjM0LjI0NCw1NTAuNzU2LDIzNC4yNDR6IE01MzUuNzU2LDUzNS43NTZIMjY0LjI0NVYyNjQuMjQ0aDI3MS41MTEgIFY1MzUuNzU2eiIvPjxwYXRoIGZpbGw9IiMwODIxM0QiIGQ9Ik03NTYuNTYsMzY0Ljc0OGM4LjI4NCwwLDE1LTYuNzE2LDE1LTE1cy02LjcxNi0xNS0xNS0xNUg2MzcuNTIxdi03MC41MDRINzU2LjU2YzguMjg0LDAsMTUtNi43MTYsMTUtMTUgIGMwLTguMjg0LTYuNzE2LTE1LTE1LTE1SDYzNy41MjFWMTc3LjQ4YzAtOC4yODQtNi43MTctMTUtMTUtMTVoLTU2Ljc2NVY0My40NGMwLTguMjg0LTYuNzE2LTE1LTE1LTE1cy0xNSw2LjcxNi0xNSwxNXYxMTkuMDQgIGgtNzAuNTA0VjQzLjQ0YzAtOC4yODQtNi43MTYtMTUtMTUtMTVzLTE1LDYuNzE2LTE1LDE1djExOS4wNGgtNzAuNTA0VjQzLjQ0YzAtOC4yODQtNi43MTYtMTUtMTUtMTVzLTE1LDYuNzE2LTE1LDE1djExOS4wNCAgaC03MC41MDRWNDMuNDRjMC04LjI4NC02LjcxNi0xNS0xNS0xNWMtOC4yODQsMC0xNSw2LjcxNi0xNSwxNXYxMTkuMDRIMTc3LjQ4Yy04LjI4NCwwLTE1LDYuNzE2LTE1LDE1djU2Ljc2NEg0My40NCAgYy04LjI4NCwwLTE1LDYuNzE3LTE1LDE1YzAsOC4yODUsNi43MTYsMTUsMTUsMTVoMTE5LjA0djcwLjUwNEg0My40NGMtOC4yODQsMC0xNSw2LjcxNy0xNSwxNWMwLDguMjg1LDYuNzE2LDE1LDE1LDE1aDExOS4wNCAgdjcwLjUwNEg0My40NGMtOC4yODQsMC0xNSw2LjcxNi0xNSwxNXM2LjcxNiwxNSwxNSwxNWgxMTkuMDR2NzAuNTA1SDQzLjQ0Yy04LjI4NCwwLTE1LDYuNzE2LTE1LDE1czYuNzE2LDE1LDE1LDE1aDExOS4wNHY1Ni43NjMgIGMwLDguMjg0LDYuNzE2LDE1LDE1LDE1aDU2Ljc2NXYxMTkuMDRjMCw4LjI4NCw2LjcxNSwxNSwxNSwxNWM4LjI4MywwLDE1LTYuNzE2LDE1LTE1VjYzNy41Mmg3MC41MDR2MTE5LjA0YzAsOC4yODQsNi43MTUsMTUsMTUsMTUgIGM4LjI4MywwLDE1LTYuNzE2LDE1LTE1VjYzNy41Mmg3MC41MDN2MTE5LjA0YzAsOC4yODQsNi43MTYsMTUsMTUsMTVzMTUtNi43MTYsMTUtMTVWNjM3LjUyaDcwLjUwNHYxMTkuMDRjMCw4LjI4NCw2LjcxNiwxNSwxNSwxNSAgczE1LTYuNzE2LDE1LTE1VjYzNy41Mmg1Ni43NjRjOC4yODQsMCwxNS02LjcxNiwxNS0xNXYtNTYuNzY0aDExOS4wNGM4LjI4NCwwLDE1LTYuNzE2LDE1LTE1cy02LjcxNi0xNS0xNS0xNUg2MzcuNTIxdi03MC41MDQgIEg3NTYuNTZjOC4yODQsMCwxNS02LjcxNiwxNS0xNXMtNi43MTYtMTUtMTUtMTVINjM3LjUyMXYtNzAuNTA0SDc1Ni41Nkw3NTYuNTYsMzY0Ljc0OHogTTYwNy41MjEsNjA3LjUySDE5Mi40OFYxOTIuNDhoNDE1LjA0MSAgVjYwNy41MnoiLz48L3N2Zz4=;" parent="qbExKh2GQzYHgT6TWYTY-1" vertex="1">
          <mxGeometry x="163" y="275" width="14" height="14" as="geometry" />
        </mxCell>
        <mxCell id="hM18RylwCYSOnlRyK38Z-34" value="" style="shape=image;verticalLabelPosition=bottom;labelBackgroundColor=default;verticalAlign=top;aspect=fixed;imageAspect=0;image=data:image/svg+xml,PHN2ZyB4bWxuczp4bGluaz0iaHR0cDovL3d3dy53My5vcmcvMTk5OS94bGluayIgeG1sbnM9Imh0dHA6Ly93d3cudzMub3JnLzIwMDAvc3ZnIiB4bWw6c3BhY2U9InByZXNlcnZlIiB3aWR0aD0iODAwcHgiIHZpZXdCb3g9IjAgMCA4MDAgODAwIiB2ZXJzaW9uPSIxLjEiIGlkPSJHVUlERSIgaGVpZ2h0PSI4MDBweCI+PHBhdGggZmlsbD0iIzA4MjEzRCIgZD0iTTc1Ni41NzQsMjEwLjMwOEg0My40MjdjLTguMjg2LDAtMTUsNi43MTctMTUsMTV2MjUwdjk5LjM5YzAsOC4yOCw2LjcxMywxNC45OTUsMTUsMTQuOTk1aDI5Ni4wNzQgIGMzLjk3OCwwLDcuNzkyLTEuNTc2LDEwLjYwNC00LjM5NWMyLjgxMy0yLjgwNyw0LjM5NS02LjYyMSw0LjM5NS0xMC42MDJsLTAuMDAzLTIzLjM5M2g5MC45OTh2MjMuMzkzICBjMCw4LjI3OSw2LjcxOCwxNC45OTUsMTUuMDAxLDE0Ljk5NWgyOTYuMDc3YzguMjgzLDAsMTQuOTk4LTYuNzE2LDE0Ljk5OC0xNC45OTV2LTk5LjM5di0yNTAgIEM3NzEuNTcyLDIxNy4wMjQsNzY0Ljg1NywyMTAuMzA4LDc1Ni41NzQsMjEwLjMwOHogTTc0MS41NzMsNTU5LjY5NmgtMjcuNzQ3di0yOS4zOTFjMC04LjI4LTYuNzE4LTE1LjAwMS0xNS4wMDEtMTUuMDAxICBzLTE1LjAwMSw2LjcyMS0xNS4wMDEsMTUuMDAxdjI5LjM5MWgtMzQuNDIzdi0yOS4zOTFjMC04LjI4LTYuNzE5LTE1LjAwMS0xNS4wMDQtMTUuMDAxYy04LjI4MywwLTE1LjAwMSw2LjcyMS0xNS4wMDEsMTUuMDAxICB2MjkuMzkxSDU4NC45N3YtMjkuMzkxYzAtOC4yOC02LjcxOC0xNS4wMDEtMTUuMDAxLTE1LjAwMWMtOC4yODQsMC0xNS4wMDEsNi43MjEtMTUuMDAxLDE1LjAwMXYyOS4zOTFoLTM0LjQzdi0yOS4zOTEgIGMwLTguMjgtNi43MTUtMTUuMDAxLTE0Ljk5OC0xNS4wMDFjLTguMjgsMC0xNC45OTgsNi43MjEtMTQuOTk4LDE1LjAwMXYyOS4zOTFoLTE1LjA0NXYtMjMuMzkzYzAtOC4yOC02LjcxNS0xNS4wMDEtMTUuMDAxLTE1LjAwMSAgSDMzOS40OTljLTMuOTgsMC03Ljc5NSwxLjU4Mi0xMC42MDcsNC4zOTljLTIuODEzLDIuODA2LTQuMzk1LDYuNjI2LTQuMzk1LDEwLjYwNWwwLjAwMiwyMy4zODhoLTE1LjA0M3YtMjkuMzkxICBjMC04LjI4LTYuNzE2LTE1LjAwMS0xNS0xNS4wMDFjLTguMjg2LDAtMTUsNi43MjEtMTUsMTUuMDAxdjI5LjM5MWgtMzQuNDI4di0yOS4zOTFjMC04LjI4LTYuNzE1LTE1LjAwMS0xNS4wMDEtMTUuMDAxICBjLTguMjgzLDAtMTUsNi43MjEtMTUsMTUuMDAxdjI5LjM5MUgxODAuNnYtMjkuMzkxYzAtOC4yOC02LjcxNi0xNS4wMDEtMTUtMTUuMDAxYy04LjI4NCwwLTE1LDYuNzIxLTE1LDE1LjAwMXYyOS4zOTFoLTM0LjQyOSAgdi0yOS4zOTFjMC04LjI4LTYuNzE2LTE1LjAwMS0xNC45OTctMTUuMDAxYy04LjI4NiwwLTE1LDYuNzIxLTE1LDE1LjAwMXYyOS4zOTFINTguNDI3VjQ5MC4zMWg2ODMuMTQ2VjU1OS42OTZ6IE03NDEuNTczLDQ2MC4zMDggIEg1OC40MjdWMjQwLjMwOWg2ODMuMTQ2VjQ2MC4zMDh6Ii8+PHBhdGggZmlsbD0iIzA4MjEzRCIgZD0iTTE4NS44NSwyNzIuODA5aC04NC42NzVjLTguMjg2LDAtMTUsNi43MTUtMTUsMTUuMDAxdjEyNC45OThjMCw4LjI4Niw2LjcxMywxNC45OTUsMTUsMTQuOTk1aDg0LjY3NSAgYzguMjgyLDAsMTUtNi43MDksMTUtMTQuOTk1VjI4Ny44MUMyMDAuODQ5LDI3OS41MjMsMTk0LjEzMSwyNzIuODA5LDE4NS44NSwyNzIuODA5eiBNMTcwLjg1LDM5Ny44MDhoLTU0LjY3OHYtOTVoNTQuNjc4VjM5Ny44MDh6Ii8+PHBhdGggZmlsbD0iIzA4MjEzRCIgZD0iTTM1Ni44NDEsMjcyLjgwOWgtODQuNjc3Yy04LjI4MywwLTE1LDYuNzE1LTE1LDE1LjAwMXYxMjQuOTk4YzAsOC4yODYsNi43MTYsMTQuOTk1LDE1LDE0Ljk5NWg4NC42NzcgIGM4LjI4MiwwLDE0Ljk5OC02LjcwOSwxNC45OTgtMTQuOTk1VjI4Ny44MUMzNzEuODM5LDI3OS41MjMsMzY1LjEyMywyNzIuODA5LDM1Ni44NDEsMjcyLjgwOXogTTM0MS44NCwzOTcuODA4aC01NC42NzV2LTk1aDU0LjY3NSAgVjM5Ny44MDh6Ii8+PHBhdGggZmlsbD0iIzA4MjEzRCIgZD0iTTUyNy44MzMsMjcyLjgwOWgtODQuNjc3Yy04LjI4MywwLTE1LjAwNCw2LjcxNS0xNS4wMDQsMTUuMDAxdjEyNC45OThjMCw4LjI4Niw2LjcyMSwxNC45OTUsMTUuMDA0LDE0Ljk5NSAgaDg0LjY3N2M4LjI4MywwLDE1LjAwMS02LjcwOSwxNS4wMDEtMTQuOTk1VjI4Ny44MUM1NDIuODM0LDI3OS41MjMsNTM2LjExNiwyNzIuODA5LDUyNy44MzMsMjcyLjgwOXogTTUxMi44MjksMzk3LjgwOGgtNTQuNjcydi05NSAgaDU0LjY3MlYzOTcuODA4eiIvPjxwYXRoIGZpbGw9IiMwODIxM0QiIGQ9Ik02OTguODI1LDI3Mi44MDloLTg0LjY3OGMtOC4yODYsMC0xNC45OTgsNi43MTUtMTQuOTk4LDE1LjAwMXYxMjQuOTk4YzAsOC4yODYsNi43MTIsMTQuOTk1LDE0Ljk5OCwxNC45OTUgIGg4NC42NzhjOC4yODMsMCwxNS4wMDEtNi43MDksMTUuMDAxLTE0Ljk5NVYyODcuODFDNzEzLjgyNiwyNzkuNTIzLDcwNy4xMDgsMjcyLjgwOSw2OTguODI1LDI3Mi44MDl6IE02ODMuODIxLDM5Ny44MDhoLTU0LjY3NnYtOTUgIGg1NC42NzZWMzk3LjgwOHoiLz48L3N2Zz4=;" parent="qbExKh2GQzYHgT6TWYTY-1" vertex="1">
          <mxGeometry x="163" y="292" width="14" height="14" as="geometry" />
        </mxCell>
        <mxCell id="hM18RylwCYSOnlRyK38Z-35" value="&lt;font color=&quot;#4bdd33&quot;&gt;4&lt;/font&gt;" style="text;html=1;align=center;verticalAlign=middle;resizable=0;points=[];autosize=1;fontSize=14;fontFamily=Google Sans;fontStyle=0;fontColor=#FFFFFF;fontSource=https%3A%2F%2Ffonts.googleapis.com%2Fcss%3Ffamily%3DGoogle%2BSans;" parent="qbExKh2GQzYHgT6TWYTY-1" vertex="1">
          <mxGeometry x="173" y="267.5" width="26" height="29" as="geometry" />
        </mxCell>
        <mxCell id="hM18RylwCYSOnlRyK38Z-36" value="&lt;font color=&quot;#4bdd33&quot;&gt;16&lt;/font&gt;" style="text;html=1;align=center;verticalAlign=middle;resizable=0;points=[];autosize=1;fontSize=14;fontFamily=Google Sans;fontStyle=0;fontColor=#FFFFFF;fontSource=https%3A%2F%2Ffonts.googleapis.com%2Fcss%3Ffamily%3DGoogle%2BSans;" parent="qbExKh2GQzYHgT6TWYTY-1" vertex="1">
          <mxGeometry x="170.87" y="284.5" width="31" height="29" as="geometry" />
        </mxCell>
        <mxCell id="hM18RylwCYSOnlRyK38Z-37" value="" style="verticalLabelPosition=bottom;verticalAlign=top;html=1;shape=mxgraph.basic.rect;fillColor2=none;strokeWidth=1;size=3.87;indent=0;topLeftStyle=rounded;topRightStyle=rounded;strokeColor=#98A2AE;rotation=-180;fillColor=#edf3f5;" parent="qbExKh2GQzYHgT6TWYTY-1" vertex="1">
          <mxGeometry x="393" y="265" width="187" height="172" as="geometry" />
        </mxCell>
        <mxCell id="hM18RylwCYSOnlRyK38Z-38" value="&lt;b&gt;Containerlab host&lt;/b&gt;" style="verticalLabelPosition=middle;verticalAlign=middle;html=1;shape=mxgraph.basic.rect;fillColor2=none;strokeWidth=1;size=4.22;indent=29.33;topLeftStyle=rounded;topRightStyle=rounded;strokeColor=#98a2ae;fillColor=#ffffff;labelPosition=center;align=center;fontFamily=Google Sans;fontSource=https%3A%2F%2Ffonts.googleapis.com%2Fcss%3Ffamily%3DGoogle%2BSans;" parent="qbExKh2GQzYHgT6TWYTY-1" vertex="1">
          <mxGeometry x="393" y="246" width="187" height="19" as="geometry" />
        </mxCell>
        <mxCell id="hM18RylwCYSOnlRyK38Z-39" value="" style="rounded=1;whiteSpace=wrap;html=1;strokeColor=none;arcSize=21;fillColor=#001135;" parent="qbExKh2GQzYHgT6TWYTY-1" vertex="1">
          <mxGeometry x="542" y="270" width="34.11" height="30" as="geometry" />
        </mxCell>
        <mxCell id="hM18RylwCYSOnlRyK38Z-67" value="" style="rounded=0;orthogonalLoop=1;jettySize=auto;html=1;fontFamily=Manrope;fontSize=12;fontColor=#FFFFFF;endArrow=oval;endFill=1;startArrow=oval;startFill=1;strokeColor=#98A2AE;entryX=0.507;entryY=-0.126;entryDx=0;entryDy=0;exitX=0.5;exitY=1;exitDx=0;exitDy=0;endSize=3;startSize=3;entryPerimeter=0;" parent="qbExKh2GQzYHgT6TWYTY-1" source="hM18RylwCYSOnlRyK38Z-94" target="hM18RylwCYSOnlRyK38Z-52" edge="1">
          <mxGeometry relative="1" as="geometry">
            <mxPoint x="368.53553390593277" y="526.2144660940672" as="sourcePoint" />
            <mxPoint x="385.42999999999995" y="522.51" as="targetPoint" />
          </mxGeometry>
        </mxCell>
        <mxCell id="hM18RylwCYSOnlRyK38Z-69" value="" style="shape=image;verticalLabelPosition=bottom;verticalAlign=top;imageAspect=0;aspect=fixed;image=data:image/svg+xml,PHN2ZyB4bWxuczpkYz0iaHR0cDovL3B1cmwub3JnL2RjL2VsZW1lbnRzLzEuMS8iIHhtbG5zOmNjPSJodHRwOi8vY3JlYXRpdmVjb21tb25zLm9yZy9ucyMiIHhtbG5zOnJkZj0iaHR0cDovL3d3dy53My5vcmcvMTk5OS8wMi8yMi1yZGYtc3ludGF4LW5zIyIgeG1sbnM6c3ZnPSJodHRwOi8vd3d3LnczLm9yZy8yMDAwL3N2ZyIgeG1sbnM9Imh0dHA6Ly93d3cudzMub3JnLzIwMDAvc3ZnIiB4bWxuczpzb2RpcG9kaT0iaHR0cDovL3NvZGlwb2RpLnNvdXJjZWZvcmdlLm5ldC9EVEQvc29kaXBvZGktMC5kdGQiIHhtbG5zOmlua3NjYXBlPSJodHRwOi8vd3d3Lmlua3NjYXBlLm9yZy9uYW1lc3BhY2VzL2lua3NjYXBlIiBpbmtzY2FwZTp2ZXJzaW9uPSIxLjByYzEgKDA5OTYwZDYsIDIwMjAtMDQtMDkpIiBzb2RpcG9kaTpkb2NuYW1lPSJjb250YWluZXJsYWJfZXhwb3J0X3doaXRlX2luay5zdmciIHZpZXdCb3g9IjkuOTk3OTkzNDY5MjM4MjgxIDEwLjAwNDU3NzYzNjcxODc1IDE1OC44OTk5MzI4NjEzMjgxMiAxMzMuNDE5NDMzNTkzNzUiIHZlcnNpb249IjEuMSIgaGVpZ2h0PSIxMzMuNDE5NDMzNTkzNzUiIHdpZHRoPSIxNTguODk5OTMyODYxMzI4MTIiIGlkPSJzdmciPiYjeGE7ICA8bWV0YWRhdGEgaWQ9Im1ldGFkYXRhODg2Ij4mI3hhOyAgICA8cmRmOnJkZj4mI3hhOyAgICAgIDxjYzp3b3JrIHJkZjphYm91dD0iIj4mI3hhOyAgICAgICAgPGRjOmZvcm1hdD5pbWFnZS9zdmcreG1sPC9kYzpmb3JtYXQ+JiN4YTsgICAgICAgIDxkYzp0eXBlIHJkZjpyZXNvdXJjZT0iaHR0cDovL3B1cmwub3JnL2RjL2RjbWl0eXBlL1N0aWxsSW1hZ2UiLz4mI3hhOyAgICAgICAgPGRjOnRpdGxlLz4mI3hhOyAgICAgIDwvY2M6d29yaz4mI3hhOyAgICA8L3JkZjpyZGY+JiN4YTsgIDwvbWV0YWRhdGE+JiN4YTsgIDxkZWZzIGlkPSJkZWZzODg0Ii8+JiN4YTsgIDxzb2RpcG9kaTpuYW1lZHZpZXcgaW5rc2NhcGU6Y3VycmVudC1sYXllcj0iZzg3OSIgaW5rc2NhcGU6d2luZG93LW1heGltaXplZD0iMCIgaW5rc2NhcGU6d2luZG93LXk9IjIzIiBpbmtzY2FwZTp3aW5kb3cteD0iMCIgaW5rc2NhcGU6Y3k9IjEzMC4yNTY0MSIgaW5rc2NhcGU6Y3g9IjE2Ny45MjMzIiBpbmtzY2FwZTp6b29tPSIyLjU0MDA2NjYiIHNob3dncmlkPSJmYWxzZSIgaWQ9Im5hbWVkdmlldzg4MiIgaW5rc2NhcGU6d2luZG93LWhlaWdodD0iMTIyMiIgaW5rc2NhcGU6d2luZG93LXdpZHRoPSIyMDA4IiBpbmtzY2FwZTpwYWdlc2hhZG93PSIyIiBpbmtzY2FwZTpwYWdlb3BhY2l0eT0iMCIgZ3VpZGV0b2xlcmFuY2U9IjEwIiBncmlkdG9sZXJhbmNlPSIxMCIgb2JqZWN0dG9sZXJhbmNlPSIxMCIgYm9yZGVyb3BhY2l0eT0iMSIgYm9yZGVyY29sb3I9IiM2NjY2NjYiIHBhZ2Vjb2xvcj0iI2ZmZmZmZiIvPiYjeGE7ICA8ZyBpZD0iZzg0MyIgdHJhbnNmb3JtPSJ0cmFuc2xhdGUoLTEwNC4yNiAtOTcuNjU0KSI+JiN4YTsgICAgPGcgaWQ9Imc4MzkiIHN0cm9rZS13aWR0aD0iLjgiIHN0cm9rZT0iIzAwYzlmZiIgZmlsbD0ibm9uZSI+JiN4YTsgICAgICA8cGF0aCBpZD0icGF0aDgzMyIgZD0ibTE5Ny4wOSAxNjUuODZhMS43NTc4IDEuNzgyOSAwIDAgMS0xLjc1NzggMS43ODI5IDEuNzU3OCAxLjc4MjkgMCAwIDEtMS43NTc4LTEuNzgyOSAxLjc1NzggMS43ODI5IDAgMCAxIDEuNzU3OC0xLjc4MjkgMS43NTc4IDEuNzgyOSAwIDAgMSAxLjc1NzggMS43ODI5Ii8+JiN4YTsgICAgICA8cGF0aCBpZD0icGF0aDgzNSIgZD0ibTE4OS42MiAxNjEuNjZhMi43NTg4IDIuNjUzIDAgMCAxLTIuNzU4OCAyLjY1MyAyLjc1ODggMi42NTMgMCAwIDEtMi43NTg4LTIuNjUzIDIuNzU4OCAyLjY1MyAwIDAgMSAyLjc1ODgtMi42NTMgMi43NTg4IDIuNjUzIDAgMCAxIDIuNzU4OCAyLjY1MyIvPiYjeGE7ICAgICAgPHBhdGggaWQ9InBhdGg4MzciIGQ9Im0xOTYuNDkgMTUyLjQxYTQuMTA0MyAzLjk2MSAwIDAgMS00LjEwNDMgMy45NjEgNC4xMDQzIDMuOTYxIDAgMCAxLTQuMTA0My0zLjk2MSA0LjEwNDMgMy45NjEgMCAwIDEgNC4xMDQzLTMuOTYxIDQuMTA0MyAzLjk2MSAwIDAgMSA0LjEwNDMgMy45NjEiLz4mI3hhOyAgICA8L2c+JiN4YTsgICAgPHBhdGggaWQ9InBhdGg4NDEiIGZpbGw9IiMwMGM5ZmYiIGQ9Im0xODQuNjkgMTY4Ljk2Yy0wLjUwNSAwLjIxMy0xLjUyOCAwLjg1Mi0yLjI3MyAxLjQyLTEuNDMgMS4wOTEtMy4xNTYgMS4zNjItNS4zMDggMC44MzQtMS41NTMtMC4zODEtMS42NjMgMC4wNjgtMC41OSAyLjQwMSA2LjYzMSAxNC40MiAyNi44NDggMTQuODk2IDMzLjg4IDAuNzk5IDEuNTc5LTMuMTY1IDEuNDMzLTMuNzItMC44MTgtMy4wOTgtMS45IDAuNTI0LTMuMTggMC4yMjctNC45NzItMS4xNTctMi40MzYtMS44ODEtNS42OTYtMS44ODMtNy4zOTYtNGUtMyAtMS43MDIgMS44ODEtNS4zNjEgMS43OTMtNy40NzctMC4xNzgtMS4xOTktMS4xMTgtMy42MzktMS42MDktNS4wNDYtMS4wMTciLz4mI3hhOyAgPC9nPiYjeGE7ICA8ZyBpZD0iZzg3NSIgdHJhbnNmb3JtPSJ0cmFuc2xhdGUoLTEwNC4yNiwtOTcuNjU0KSI+JiN4YTsgICAgPGcgaWQ9Imc4NzMiIGFyaWEtbGFiZWw9IkNPTlRBSU5FUmxhYiI+JiN4YTsgICAgICA8ZyBzdHlsZT0iZmlsbDojZmZmZmZmO2ZpbGwtb3BhY2l0eToxIiBpZD0iZzg2MyIgZmlsbD0iIzAwMTEzNSI+JiN4YTsgICAgICAgIDxwYXRoIGlua3NjYXBlOmNvbm5lY3Rvci1jdXJ2YXR1cmU9IjAiIGlkPSJwYXRoODQ1IiBzdHlsZT0iZm9udC12YXJpYW50LWxpZ2F0dXJlczpub3JtYWw7Zm9udC12YXJpYW50LWNhcHM6bm9ybWFsO2ZvbnQtdmFyaWFudC1udW1lcmljOm5vcm1hbDtmb250LXZhcmlhbnQtZWFzdC1hc2lhbjpub3JtYWw7ZmlsbDojZmZmZmZmO2ZpbGwtb3BhY2l0eToxIiBkPSJtIDEyMS41MywyMjQuOSBxIC0yLjcxMiwwIC00LjIsMS44OTYgLTEuNDg4LDEuODcyIC0xLjQ4OCw1LjU2OCAwLDMuNzkyIDEuNDg4LDUuNTQ0IDEuNDg4LDEuNzI4IDQuMiwxLjcyOCAwLjc5MiwwIDEuNDQsLTAuMTQ0IDAuNjcyLC0wLjE0NCAxLjIyNCwtMC4zNiAwLjU1MiwtMC4yMTYgMC45ODQsLTAuNDggMC40MzIsLTAuMjY0IDAuNzQ0LC0wLjUwNCBsIDAuNjk2LDEuMDggcSAtMC44MTYsMC42OTYgLTIuMTYsMS4yMjQgLTEuMzIsMC41MjggLTMuMDI0LDAuNTI4IC0zLjY3MiwwIC01LjQyNCwtMi4yMzIgLTEuNzUyLC0yLjIzMiAtMS43NTIsLTYuMzg0IDAsLTEuOTY4IDAuNDMyLC0zLjU3NiAwLjQ1NiwtMS42MzIgMS4zNDQsLTIuNzg0IDAuOTEyLC0xLjE1MiAyLjI1NiwtMS43NzYgMS4zNjgsLTAuNjQ4IDMuMTkyLC0wLjY0OCAwLjk4NCwwIDEuOCwwLjE5MiAwLjgxNiwwLjE5MiAxLjQ0LDAuNDggMC42MjQsMC4yNjQgMS4wNTYsMC41NzYgMC40NTYsMC4yODggMC43MiwwLjUyOCBsIC0wLjc2OCwxLjA4IHEgLTAuNiwtMC41MDQgLTEuNjMyLC0xLjAwOCAtMS4wMzIsLTAuNTI4IC0yLjU2OCwtMC41MjggeiIvPiYjeGE7ICAgICAgICA8cGF0aCBpbmtzY2FwZTpjb25uZWN0b3ItY3VydmF0dXJlPSIwIiBpZD0icGF0aDg0NyIgc3R5bGU9ImZvbnQtdmFyaWFudC1saWdhdHVyZXM6bm9ybWFsO2ZvbnQtdmFyaWFudC1jYXBzOm5vcm1hbDtmb250LXZhcmlhbnQtbnVtZXJpYzpub3JtYWw7Zm9udC12YXJpYW50LWVhc3QtYXNpYW46bm9ybWFsO2ZpbGw6I2ZmZmZmZjtmaWxsLW9wYWNpdHk6MSIgZD0ibSAxMjkuMTksMjMyLjI3IHEgMCwtMS45NjggMC40NTYsLTMuNTc2IDAuNDgsLTEuNjMyIDEuMzkyLC0yLjc4NCAwLjkxMiwtMS4xNTIgMi4yNTYsLTEuNzc2IDEuMzQ0LC0wLjY0OCAzLjA3MiwtMC42NDggMS43MjgsMCAzLjA0OCwwLjY0OCAxLjM0NCwwLjYyNCAyLjIzMiwxLjc3NiAwLjkxMiwxLjE1MiAxLjM2OCwyLjc4NCAwLjQ4LDEuNjA4IDAuNDgsMy41NzYgMCwxLjk2OCAtMC40OCwzLjYgLTAuNDU2LDEuNjA4IC0xLjM2OCwyLjc4NCAtMC44ODgsMS4xNTIgLTIuMjMyLDEuOCAtMS4zNDQsMC42MjQgLTMuMDcyLDAuNjI0IC0xLjcyOCwwIC0zLjA3MiwtMC42MjQgLTEuMzQ0LC0wLjY0OCAtMi4yNTYsLTEuOCAtMC44ODgsLTEuMTc2IC0xLjM2OCwtMi43ODQgLTAuNDU2LC0xLjYzMiAtMC40NTYsLTMuNiB6IG0gMS41ODQsMCBxIDAsMS42OCAwLjMzNiwzLjA0OCAwLjMzNiwxLjM0NCAxLjAzMiwyLjMyOCAwLjY5NiwwLjk2IDEuNzI4LDEuNDg4IDEuMDU2LDAuNTI4IDIuNDcyLDAuNTI4IDEuNDE2LDAgMi40NDgsLTAuNTI4IDEuMDU2LC0wLjUyOCAxLjc1MiwtMS40ODggMC42OTYsLTAuOTg0IDEuMDMyLC0yLjMyOCAwLjMzNiwtMS4zNjggMC4zMzYsLTMuMDQ4IDAsLTEuNjggLTAuMzM2LC0zLjAyNCAtMC4zMzYsLTEuMzY4IC0xLjAzMiwtMi4zMjggLTAuNjk2LC0wLjk2IC0xLjc1MiwtMS40ODggLTEuMDMyLC0wLjUyOCAtMi40NDgsLTAuNTI4IC0xLjQxNiwwIC0yLjQ3MiwwLjUyOCAtMS4wMzIsMC41MjggLTEuNzI4LDEuNDg4IC0wLjY5NiwwLjk2IC0xLjAzMiwyLjMyOCAtMC4zMzYsMS4zNDQgLTAuMzM2LDMuMDI0IHoiLz4mI3hhOyAgICAgICAgPHBhdGggaW5rc2NhcGU6Y29ubmVjdG9yLWN1cnZhdHVyZT0iMCIgaWQ9InBhdGg4NDkiIHN0eWxlPSJmb250LXZhcmlhbnQtbGlnYXR1cmVzOm5vcm1hbDtmb250LXZhcmlhbnQtY2Fwczpub3JtYWw7Zm9udC12YXJpYW50LW51bWVyaWM6bm9ybWFsO2ZvbnQtdmFyaWFudC1lYXN0LWFzaWFuOm5vcm1hbDtmaWxsOiNmZmZmZmY7ZmlsbC1vcGFjaXR5OjEiIGQ9Im0gMTQ5LjYzLDIyNi4zNCB2IDE0LjM3NiBoIC0xLjQ2NCB2IC0xNi44NzIgaCAxLjU4NCBsIDguMzc2LDE0LjMwNCB2IC0xNC4zMDQgaCAxLjQ2NCB2IDE2Ljg3MiBoIC0xLjQ2NCB6Ii8+JiN4YTsgICAgICAgIDxwYXRoIGlua3NjYXBlOmNvbm5lY3Rvci1jdXJ2YXR1cmU9IjAiIGlkPSJwYXRoODUxIiBzdHlsZT0iZm9udC12YXJpYW50LWxpZ2F0dXJlczpub3JtYWw7Zm9udC12YXJpYW50LWNhcHM6bm9ybWFsO2ZvbnQtdmFyaWFudC1udW1lcmljOm5vcm1hbDtmb250LXZhcmlhbnQtZWFzdC1hc2lhbjpub3JtYWw7ZmlsbDojZmZmZmZmO2ZpbGwtb3BhY2l0eToxIiBkPSJtIDE2OC42MywyMjUuMjYgaCAtNS4xODQgdiAtMS40MTYgaCAxMS44NTYgdiAxLjQxNiBoIC01LjE2IHYgMTUuNDU2IGggLTEuNTEyIHoiLz4mI3hhOyAgICAgICAgPHBhdGggaW5rc2NhcGU6Y29ubmVjdG9yLWN1cnZhdHVyZT0iMCIgaWQ9InBhdGg4NTMiIHN0eWxlPSJmb250LXZhcmlhbnQtbGlnYXR1cmVzOm5vcm1hbDtmb250LXZhcmlhbnQtY2Fwczpub3JtYWw7Zm9udC12YXJpYW50LW51bWVyaWM6bm9ybWFsO2ZvbnQtdmFyaWFudC1lYXN0LWFzaWFuOm5vcm1hbDtmaWxsOiNmZmZmZmY7ZmlsbC1vcGFjaXR5OjEiIGQ9Im0gMTg1LDIzNi4wMSBoIC02LjkzNiBsIC0xLjUxMiw0LjcwNCBoIC0xLjQ0IGwgNS42NCwtMTYuODcyIGggMS42OCBsIDUuNjY0LDE2Ljg3MiBoIC0xLjU2IHogbSAtNi41MjgsLTEuMzIgaCA2LjA5NiBsIC0zLjAyNCwtOS4xMiB6Ii8+JiN4YTsgICAgICAgIDxwYXRoIGlua3NjYXBlOmNvbm5lY3Rvci1jdXJ2YXR1cmU9IjAiIGlkPSJwYXRoODU1IiBzdHlsZT0iZm9udC12YXJpYW50LWxpZ2F0dXJlczpub3JtYWw7Zm9udC12YXJpYW50LWNhcHM6bm9ybWFsO2ZvbnQtdmFyaWFudC1udW1lcmljOm5vcm1hbDtmb250LXZhcmlhbnQtZWFzdC1hc2lhbjpub3JtYWw7ZmlsbDojZmZmZmZmO2ZpbGwtb3BhY2l0eToxIiBkPSJtIDE5My4wNSwyNDAuNzIgaCAtMS41MTIgdiAtMTYuODcyIGggMS41MTIgeiIvPiYjeGE7ICAgICAgICA8cGF0aCBpbmtzY2FwZTpjb25uZWN0b3ItY3VydmF0dXJlPSIwIiBpZD0icGF0aDg1NyIgc3R5bGU9ImZvbnQtdmFyaWFudC1saWdhdHVyZXM6bm9ybWFsO2ZvbnQtdmFyaWFudC1jYXBzOm5vcm1hbDtmb250LXZhcmlhbnQtbnVtZXJpYzpub3JtYWw7Zm9udC12YXJpYW50LWVhc3QtYXNpYW46bm9ybWFsO2ZpbGw6I2ZmZmZmZjtmaWxsLW9wYWNpdHk6MSIgZD0ibSAxOTkuNzEsMjI2LjM0IHYgMTQuMzc2IGggLTEuNDY0IHYgLTE2Ljg3MiBoIDEuNTg0IGwgOC4zNzYsMTQuMzA0IHYgLTE0LjMwNCBoIDEuNDY0IHYgMTYuODcyIGggLTEuNDY0IHoiLz4mI3hhOyAgICAgICAgPHBhdGggaW5rc2NhcGU6Y29ubmVjdG9yLWN1cnZhdHVyZT0iMCIgaWQ9InBhdGg4NTkiIHN0eWxlPSJmb250LXZhcmlhbnQtbGlnYXR1cmVzOm5vcm1hbDtmb250LXZhcmlhbnQtY2Fwczpub3JtYWw7Zm9udC12YXJpYW50LW51bWVyaWM6bm9ybWFsO2ZvbnQtdmFyaWFudC1lYXN0LWFzaWFuOm5vcm1hbDtmaWxsOiNmZmZmZmY7ZmlsbC1vcGFjaXR5OjEiIGQ9Im0gMjE0Ljg5LDIyMy44NSBoIDkuMzEyIHYgMS4zOTIgaCAtNy44IHYgNiBoIDYuMDk2IHYgMS4zOTIgaCAtNi4wOTYgdiA2LjY5NiBoIDguMDQgdiAxLjM5MiBoIC05LjU1MiB6Ii8+JiN4YTsgICAgICAgIDxwYXRoIGlua3NjYXBlOmNvbm5lY3Rvci1jdXJ2YXR1cmU9IjAiIGlkPSJwYXRoODYxIiBzdHlsZT0iZm9udC12YXJpYW50LWxpZ2F0dXJlczpub3JtYWw7Zm9udC12YXJpYW50LWNhcHM6bm9ybWFsO2ZvbnQtdmFyaWFudC1udW1lcmljOm5vcm1hbDtmb250LXZhcmlhbnQtZWFzdC1hc2lhbjpub3JtYWw7ZmlsbDojZmZmZmZmO2ZpbGwtb3BhY2l0eToxIiBkPSJtIDIzOC45OCwyNDAuNzIgaCAtMS43NTIgbCAtNC4xMjgsLTYuOTM2IGggLTMuNDA4IHYgNi45MzYgaCAtMS40ODggdiAtMTYuODcyIGggNC40NCBxIDEuNTEyLDAgMi41MiwwLjQzMiAxLjAzMiwwLjQzMiAxLjY1NiwxLjE1MiAwLjYyNCwwLjY5NiAwLjg4OCwxLjU4NCAwLjI4OCwwLjg2NCAwLjI4OCwxLjc1MiAwLDAuOTM2IC0wLjI2NCwxLjcwNCAtMC4yNjQsMC43NjggLTAuNzIsMS4zNDQgLTAuNDU2LDAuNTc2IC0xLjA4LDAuOTg0IC0wLjYsMC40MDggLTEuMjcyLDAuNjQ4IHogbSAtMi40NzIsLTExLjg4IHEgMCwtMS42OCAtMC45NiwtMi42NjQgLTAuOTM2LC0wLjk4NCAtMy4wNzIsLTAuOTg0IGggLTIuNzg0IHYgNy4yNzIgaCAyLjg4IHEgMi4wNCwwIDIuOTc2LC0wLjk4NCAwLjk2LC0wLjk4NCAwLjk2LC0yLjY0IHoiLz4mI3hhOyAgICAgIDwvZz4mI3hhOyAgICAgIDxnIGlkPSJnODcxIiBmaWxsPSIjMDBjOWZmIj4mI3hhOyAgICAgICAgPHBhdGggaW5rc2NhcGU6Y29ubmVjdG9yLWN1cnZhdHVyZT0iMCIgaWQ9InBhdGg4NjUiIHN0eWxlPSJmb250LXZhcmlhbnQtbGlnYXR1cmVzOm5vcm1hbDtmb250LXZhcmlhbnQtY2Fwczpub3JtYWw7Zm9udC12YXJpYW50LW51bWVyaWM6bm9ybWFsO2ZvbnQtdmFyaWFudC1lYXN0LWFzaWFuOm5vcm1hbCIgZD0ibSAyNDIuNDIsMjIyLjcyIGggMi4xMzYgdiAxOCBoIC0yLjEzNiB6Ii8+JiN4YTsgICAgICAgIDxwYXRoIGlua3NjYXBlOmNvbm5lY3Rvci1jdXJ2YXR1cmU9IjAiIGlkPSJwYXRoODY3IiBzdHlsZT0iZm9udC12YXJpYW50LWxpZ2F0dXJlczpub3JtYWw7Zm9udC12YXJpYW50LWNhcHM6bm9ybWFsO2ZvbnQtdmFyaWFudC1udW1lcmljOm5vcm1hbDtmb250LXZhcmlhbnQtZWFzdC1hc2lhbjpub3JtYWwiIGQ9Im0gMjU1Ljk3LDIzNS4xMyBxIC0wLjAyNCwwIC0wLjMxMiwtMC4wNDggLTAuMjg4LC0wLjA0OCAtMC43MiwtMC4wNzIgLTAuNDMyLC0wLjA0OCAtMC45MzYsLTAuMDcyIC0wLjUwNCwtMC4wNDggLTAuOTM2LC0wLjA0OCAtMC43NjgsMCAtMS4zMiwwLjE5MiAtMC41MjgsMC4xOTIgLTAuODY0LDAuNTI4IC0wLjMzNiwwLjMxMiAtMC41MDQsMC43NDQgLTAuMTQ0LDAuNDMyIC0wLjE0NCwwLjkzNiAwLDEuMDMyIDAuNjcyLDEuNTM2IDAuNjk2LDAuNTA0IDEuOCwwLjUwNCAwLjYsMCAxLjE3NiwtMC4xOTIgMC41NzYsLTAuMTkyIDEuMDMyLC0wLjUyOCAwLjQ4LC0wLjM2IDAuNzY4LC0wLjgxNiAwLjI4OCwtMC40OCAwLjI4OCwtMS4wNTYgeiBtIDAuMTQ0LDUuNTkyIC0wLjA5NiwtMS4zNDQgcSAtMC41NTIsMC43NjggLTEuNjA4LDEuMjI0IC0xLjA1NiwwLjQzMiAtMi4xODQsMC40MzIgLTAuNzIsMCAtMS40NCwtMC4xOTIgLTAuNzIsLTAuMTkyIC0xLjI5NiwtMC42MjQgLTAuNTc2LC0wLjQzMiAtMC45NiwtMS4xNTIgLTAuMzYsLTAuNzIgLTAuMzYsLTEuNzc2IDAsLTEuODQ4IDEuMiwtMi45NTIgMS4yLC0xLjEwNCAzLjYsLTEuMTA0IDAuMzg0LDAgMC44NjQsMC4wMjQgMC40OCwwLjAyNCAwLjkxMiwwLjA3MiAwLjQzMiwwLjAyNCAwLjc2OCwwLjA3MiAwLjMzNiwwLjAyNCAwLjQ1NiwwLjA0OCB2IC0wLjc0NCBxIDAsLTEuMzIgLTAuNzkyLC0xLjg5NiAtMC43NjgsLTAuNTc2IC0yLjIwOCwtMC41NzYgLTEuMjk2LDAgLTIuMjA4LDAuMjg4IC0wLjg4OCwwLjI4OCAtMS4yOTYsMC41MjggbCAtMC42NDgsLTEuNTEyIHEgMC4yMTYsLTAuMTQ0IDAuNiwtMC4zMzYgMC4zODQsLTAuMTkyIDAuOTM2LC0wLjM2IDAuNTc2LC0wLjE5MiAxLjI5NiwtMC4zMTIgMC43NDQsLTAuMTIgMS42NTYsLTAuMTIgMi4xODQsMCAzLjQ1NiwxLjA4IDEuMjcyLDEuMDU2IDEuMjcyLDMuMDk2IHYgOC4xMzYgeiIvPiYjeGE7ICAgICAgICA8cGF0aCBpbmtzY2FwZTpjb25uZWN0b3ItY3VydmF0dXJlPSIwIiBpZD0icGF0aDg2OSIgc3R5bGU9ImZvbnQtdmFyaWFudC1saWdhdHVyZXM6bm9ybWFsO2ZvbnQtdmFyaWFudC1jYXBzOm5vcm1hbDtmb250LXZhcmlhbnQtbnVtZXJpYzpub3JtYWw7Zm9udC12YXJpYW50LWVhc3QtYXNpYW46bm9ybWFsIiBkPSJtIDI2Mi4xOSwyMjIuNzIgaCAyLjEzNiB2IDcuNDg4IHEgMC4wOTYsLTAuMjE2IDAuMzYsLTAuNTA0IDAuMjg4LC0wLjMxMiAwLjc0NCwtMC42IDAuNDU2LC0wLjI4OCAxLjA4LC0wLjQ4IDAuNjI0LC0wLjIxNiAxLjQ0LC0wLjIxNiAxLjMyLDAgMi4zMDQsMC40OCAwLjk4NCwwLjQ4IDEuNjMyLDEuMzIgMC42NDgsMC44NCAwLjk2LDEuOTY4IDAuMzEyLDEuMTA0IDAuMzEyLDIuNCAwLDEuNzc2IC0wLjQ4LDMgLTAuNDgsMS4yIC0xLjI0OCwxLjk0NCAtMC43NjgsMC43NDQgLTEuNzUyLDEuMDggLTAuOTYsMC4zMTIgLTEuOTQ0LDAuMzEyIC0wLjcyLDAgLTEuMjk2LC0wLjE0NCAtMC41NTIsLTAuMTIgLTAuOTg0LC0wLjMxMiAtMC40MzIsLTAuMTkyIC0wLjc0NCwtMC40MDggLTAuMjg4LC0wLjIxNiAtMC40NTYsLTAuNDA4IGwgLTAuMDk2LDEuMDggaCAtMS45NjggeiBtIDUuMjU2LDE2LjM0NCBxIDEuNjA4LDAgMi41NDQsLTEuMDU2IDAuOTYsLTEuMDggMC45NiwtMy40MzIgMCwtMC45MTIgLTAuMTkyLC0xLjY4IC0wLjE5MiwtMC43OTIgLTAuNiwtMS4zNDQgLTAuNDA4LC0wLjU3NiAtMS4wMzIsLTAuODg4IC0wLjYsLTAuMzEyIC0xLjQ0LC0wLjMxMiAtMS42NTYsMCAtMi41MiwxLjE1MiAtMC44NjQsMS4xNTIgLTAuODY0LDMuNTUyIHYgMi42MTYgcSAwLjMzNiwwLjQ1NiAxLjEyOCwwLjkzNiAwLjgxNiwwLjQ1NiAyLjAxNiwwLjQ1NiB6Ii8+JiN4YTsgICAgICA8L2c+JiN4YTsgICAgPC9nPiYjeGE7ICA8L2c+JiN4YTsgIDxnIGlkPSJnODc5IiB0cmFuc2Zvcm09InRyYW5zbGF0ZSgtMTA0LjI2LC05Ny42NTQpIj4mI3hhOyAgICA8cGF0aCBzdHlsZT0iZmlsbDojZmZmZmZmO2ZpbGwtb3BhY2l0eToxIiBpbmtzY2FwZTpjb25uZWN0b3ItY3VydmF0dXJlPSIwIiBpZD0icGF0aDg3NyIgZmlsbC1ydWxlPSJldmVub2RkIiBmaWxsPSIjMDAxMTM1IiBkPSJtIDE4My44OCwxMDguMDMgYyAtMC45MDUsMC4zMDYgLTMuNDk3LDEuNjUxIC01Ljc2MSwyLjk5IC0zLjg1MywyLjI3OCAtMTEuMDEzLDYuMzg1IC0xNS4xMTcsOC42NzIgLTguOTEsNC45NjUgLTEyLjIyMiw3LjI0IC0xMy42LDkuMzQgbCAtMS40LDIuMTM1IHYgNDggbCAxLjQ5NSwyLjIzNCBjIDAuOTgxLDEuNDY2IDIuMTQ5LDIuNjA0IDMuNCwzLjMxMSAxLjA0OCwwLjU5MyAyLjE3NSwxLjI0OSAyLjUwNSwxLjQ1NyAxLjQyNywwLjkwMSA2Ljg4MiwzLjk5OCA3LjA0MSwzLjk5OCAwLjA5NiwwIDAuOTM2LDAuNDkgMS44NjcsMS4wOSAwLjkzMSwwLjU5OSAyLjA2OCwxLjI5MyAyLjUyNywxLjU0MyA1LjExOCwyLjc3NSA2LjQ1NiwzLjU0MyA2Ljk5Niw0LjAxNSAwLjM0OCwwLjMwNCAwLjc0LDAuNTUyIDAuODczLDAuNTUyIDAuMjEyLDAgOS41MTEsNS4zNTkgMTEuMDk2LDYuMzkzIDUuMDY0LDMuMzA4IDkuMjg0LDMuNTU2IDE0LjIsMC44MzcgMS43NiwtMC45NzQgMy41NiwtMS45NjkgNCwtMi4yMTEgMC40NCwtMC4yNDIgMS41NzEsLTAuOTM2IDIuNTEzLC0xLjU0MiAwLjk0MiwtMC42MDcgMi40NzIsLTEuNDk1IDMuNCwtMS45NzQgMC45MjgsLTAuNDc5IDMuMjU3LC0xLjgyMyA1LjE3NSwtMi45ODcgMS45MTgsLTEuMTY0IDMuNTcxLC0yLjExNiAzLjY3MiwtMi4xMTYgMC4xMDIsMCAyLjg1MiwtMS41NzYgNi4xMTIsLTMuNTAzIDMuMjYxLC0xLjkyNyA2LjU3MiwtMy44NDEgNy4zNTksLTQuMjU0IDMuMDI3LC0xLjU4OCA0LjYxNiwtMi45NTIgNS44NjksLTUuMDQxIGwgMS4zLC0yLjE2NyAtMC4wMDQsLTIzLjYxNyAtMC4wMDQsLTIzLjYxOCAtMS4xODQsLTIuMDY2IGMgLTAuNjUyLC0xLjEzNiAtMS44NjUsLTIuNTQxIC0yLjY5NywtMy4xMjEgLTEuNzk1LC0xLjI1NCAtMTEuNTY3LC02Ljk1MSAtMTcuMTExLC05Ljk3NiAtMC40NCwtMC4yNDEgLTEuMDcsLTAuNjQyIC0xLjQsLTAuODkyIC0wLjMzLC0wLjI1MSAtMS41LC0wLjkzNSAtMi42LC0xLjUyMiAtMS4xLC0wLjU4NiAtMi4zNTMsLTEuMjgxIC0yLjc4NSwtMS41NDQgLTguNzg2LC01LjM1NyAtMTEuMDE0LC01Ljg4OSAtMTIuOTk4LC0zLjEwMyAtMC43OTIsMS4xMTIgLTAuODE3LDEuNjY5IC0wLjgxNywxOC4yMDYgdiAxNy4wNTkgbCAxLjUsMC41OTcgYyA0LjUzNSwxLjgwNyA1LjI3NiwyLjIwOSA3Ljg4NSw0LjI3OCAyLjMwNSwxLjgyOSA2LjgxMzgsOC4zNTc3IDYuODEzOCw5LjU2MTcgMCwwLjI5NCAtMC4zNDY4LC0wLjQ1MDczIC0wLjAzNzgsMC4wMzYzIDIuMDg3LDMuMjk3IDEuNTY5LDExLjM3MyAtMS4wNTMsMTYuNDE1IC0xMS43NiwyMi42MTMgLTQ1LjQ5MywxMC41IC00MC4xNDYsLTE0LjQxNyAxLjQzMywtNi42NzggMTAuMTMyLC0xNS41NjkgMTUuMTI2LC0xNS43MTIgMS45NTksLTAuMDU2MSAxLjkxMiwtMC43ODQgMS45MTIsLTE3LjkwOSAwLC0xNy4wMTcgLTAuMDMzLC0xNy4zNTIgLTEuODU5LC0xOC45MzYgLTEuMTE5LC0wLjk3IC0yLjI0NiwtMS4xMDYgLTQuMDYzLC0wLjQ5MiBtIDEuNTc3LDE1LjM3NCBjIDAuMDEyLDUuODEgMC4wMDQsMTIuMjkxIC0wLjAxNywxNC40MDIgbCAtMC4wMzgsMy44MzkgLTIuOTc4LDEuNDcyIGMgLTI0LjEzMywxMS45MjcgLTE1LjY5Nyw0OC4zNzQgMTEuMTc4LDQ4LjI5IDI3LjM3NywtMC4wODUgMzUuNDcsLTM2LjEgMTAuOTEzLC00OC41NjUgbCAtMi41MTMsLTEuMjc1IHYgLTI5LjIgbCAwLjk3OSwwLjEwOSBjIDAuNTM4LDAuMDYgMS4yNTgsMC4zNSAxLjYsMC42NDQgMC4zNDEsMC4yOTMgMS44NTUsMS4yMDMgMy4zNjQsMi4wMjEgMS41MDgsMC44MTggMy44OTYsMi4xOTMgNS4zMDcsMy4wNTYgMS40MSwwLjg2NCAyLjYzNSwxLjU3IDIuNzIzLDEuNTcgMC4yNTYsMCAxMy4wMTIsNy40MjcgMTUuNTk5LDkuMDgyIDQuMjM3LDIuNzEyIDQuMDEzLDEuMjkxIDQuMTIyLDI2LjExOCBsIDAuMDk1LDIxLjQgLTAuOTI1LDEuOCBjIC0wLjkxMywxLjc3NSAtMi41MjMsMy4xMzcgLTUuNjY0LDQuNzg5IC0xLjY2MSwwLjg3MyAtMi41MDIsMS4zNjUgLTQuMTk4LDIuNDU0IC0wLjU1MSwwLjM1NCAtMi4wODIsMS4yMzkgLTMuNDAyLDEuOTY2IC0zLjcyNywyLjA1MyAtNC40MDEsMi40NCAtMTAuOCw2LjE5NSAtMy4zLDEuOTM3IC02LjcyLDMuOTA5IC03LjYsNC4zODIgLTAuODgsMC40NzMgLTMuMDU4LDEuNzA1IC00LjgzOSwyLjczNyAtNC45MjQsMi44NTMgLTUuMDEzLDIuODMxIC0xNi4zNiwtNC4wMDYgLTAuNDQsLTAuMjY1IC0xLjIzNCwtMC42NzcgLTEuNzY0LC0wLjkxNCAtMC41MjksLTAuMjM3IC0xLjc1MywtMC45NjUgLTIuNzIsLTEuNjE3IC0wLjk2NiwtMC42NTIgLTEuODkzLC0xLjE4NiAtMi4wNTksLTEuMTg2IC0wLjE2NiwwIC0xLjE5MiwtMC41NjkgLTIuMjgsLTEuMjY1IC0yLjEwOCwtMS4zNDkgLTkuMzg1LC01LjUzNSAtOS42MjIsLTUuNTM1IC0wLjA3NywwIC0xLjA5MywtMC41ODUgLTIuMjU4LC0xLjMgLTEuMTY1LC0wLjcxNSAtMi40NzMsLTEuNTE4IC0yLjkwOCwtMS43ODUgLTAuNDM0LC0wLjI2NyAtMS41NiwtMC44ODYgLTIuNTAxLC0xLjM3NiAtMC45NDEsLTAuNDkgLTIuMjAxLC0xLjUzMiAtMi44LC0yLjMxNSBsIC0xLjA4OSwtMS40MjQgdiAtNDUuNjIgbCAwLjkxLC0xLjE1NiBjIDAuODQ0LC0xLjA3MyA1LjExOSwtNC4xODcgNS43ODMsLTQuMjEzIDAuMTYxLC0wLjAwNiAxLjQ2OSwtMC43MzEgMi45MDcsLTEuNjExIDEuNDM4LC0wLjg4IDIuNzA4LC0xLjYgMi44MjMsLTEuNiAwLjExNSwwIDAuNjk3LC0wLjMzNSAxLjI5MywtMC43NDQgMS4xMywtMC43NzUgMTAuODEzLC02LjM4MyAxNC4yODQsLTguMjcxIDEuMSwtMC41OTkgMi4yNywtMS4zMTcgMi42LC0xLjU5NiAwLjc0NCwtMC42MjggMi4wOTQsLTAuOTQxIDIuNTE3LC0wLjU4MyAwLjE3NCwwLjE0NyAwLjMyNiw1LjAyMSAwLjMzOCwxMC44MzEiLz4mI3hhOyAgPC9nPiYjeGE7PC9zdmc+;" parent="qbExKh2GQzYHgT6TWYTY-1" vertex="1">
          <mxGeometry x="547.1" y="275" width="23.91" height="20" as="geometry" />
        </mxCell>
        <mxCell id="hM18RylwCYSOnlRyK38Z-70" value="" style="shape=image;verticalLabelPosition=bottom;labelBackgroundColor=default;verticalAlign=top;aspect=fixed;imageAspect=0;image=data:image/svg+xml,PHN2ZyB4bWxuczp4bGluaz0iaHR0cDovL3d3dy53My5vcmcvMTk5OS94bGluayIgeG1sbnM9Imh0dHA6Ly93d3cudzMub3JnLzIwMDAvc3ZnIiB4bWw6c3BhY2U9InByZXNlcnZlIiB3aWR0aD0iODAwcHgiIHZpZXdCb3g9IjAgMCA4MDAgODAwIiB2ZXJzaW9uPSIxLjEiIGlkPSJHVUlERSIgaGVpZ2h0PSI4MDBweCI+PHBhdGggZmlsbD0iIzA4MjEzRCIgZD0iTTU1MC43NTYsMjM0LjI0NEgyNDkuMjQ1Yy04LjI4NSwwLTE1LDYuNzE3LTE1LDE1djMwMS41MTJjMCw4LjI4NCw2LjcxNSwxNSwxNSwxNWgzMDEuNTExICBjOC4yODQsMCwxNS02LjcxNiwxNS0xNVYyNDkuMjQ0QzU2NS43NTYsMjQwLjk2MSw1NTkuMDQsMjM0LjI0NCw1NTAuNzU2LDIzNC4yNDR6IE01MzUuNzU2LDUzNS43NTZIMjY0LjI0NVYyNjQuMjQ0aDI3MS41MTEgIFY1MzUuNzU2eiIvPjxwYXRoIGZpbGw9IiMwODIxM0QiIGQ9Ik03NTYuNTYsMzY0Ljc0OGM4LjI4NCwwLDE1LTYuNzE2LDE1LTE1cy02LjcxNi0xNS0xNS0xNUg2MzcuNTIxdi03MC41MDRINzU2LjU2YzguMjg0LDAsMTUtNi43MTYsMTUtMTUgIGMwLTguMjg0LTYuNzE2LTE1LTE1LTE1SDYzNy41MjFWMTc3LjQ4YzAtOC4yODQtNi43MTctMTUtMTUtMTVoLTU2Ljc2NVY0My40NGMwLTguMjg0LTYuNzE2LTE1LTE1LTE1cy0xNSw2LjcxNi0xNSwxNXYxMTkuMDQgIGgtNzAuNTA0VjQzLjQ0YzAtOC4yODQtNi43MTYtMTUtMTUtMTVzLTE1LDYuNzE2LTE1LDE1djExOS4wNGgtNzAuNTA0VjQzLjQ0YzAtOC4yODQtNi43MTYtMTUtMTUtMTVzLTE1LDYuNzE2LTE1LDE1djExOS4wNCAgaC03MC41MDRWNDMuNDRjMC04LjI4NC02LjcxNi0xNS0xNS0xNWMtOC4yODQsMC0xNSw2LjcxNi0xNSwxNXYxMTkuMDRIMTc3LjQ4Yy04LjI4NCwwLTE1LDYuNzE2LTE1LDE1djU2Ljc2NEg0My40NCAgYy04LjI4NCwwLTE1LDYuNzE3LTE1LDE1YzAsOC4yODUsNi43MTYsMTUsMTUsMTVoMTE5LjA0djcwLjUwNEg0My40NGMtOC4yODQsMC0xNSw2LjcxNy0xNSwxNWMwLDguMjg1LDYuNzE2LDE1LDE1LDE1aDExOS4wNCAgdjcwLjUwNEg0My40NGMtOC4yODQsMC0xNSw2LjcxNi0xNSwxNXM2LjcxNiwxNSwxNSwxNWgxMTkuMDR2NzAuNTA1SDQzLjQ0Yy04LjI4NCwwLTE1LDYuNzE2LTE1LDE1czYuNzE2LDE1LDE1LDE1aDExOS4wNHY1Ni43NjMgIGMwLDguMjg0LDYuNzE2LDE1LDE1LDE1aDU2Ljc2NXYxMTkuMDRjMCw4LjI4NCw2LjcxNSwxNSwxNSwxNWM4LjI4MywwLDE1LTYuNzE2LDE1LTE1VjYzNy41Mmg3MC41MDR2MTE5LjA0YzAsOC4yODQsNi43MTUsMTUsMTUsMTUgIGM4LjI4MywwLDE1LTYuNzE2LDE1LTE1VjYzNy41Mmg3MC41MDN2MTE5LjA0YzAsOC4yODQsNi43MTYsMTUsMTUsMTVzMTUtNi43MTYsMTUtMTVWNjM3LjUyaDcwLjUwNHYxMTkuMDRjMCw4LjI4NCw2LjcxNiwxNSwxNSwxNSAgczE1LTYuNzE2LDE1LTE1VjYzNy41Mmg1Ni43NjRjOC4yODQsMCwxNS02LjcxNiwxNS0xNXYtNTYuNzY0aDExOS4wNGM4LjI4NCwwLDE1LTYuNzE2LDE1LTE1cy02LjcxNi0xNS0xNS0xNUg2MzcuNTIxdi03MC41MDQgIEg3NTYuNTZjOC4yODQsMCwxNS02LjcxNiwxNS0xNXMtNi43MTYtMTUtMTUtMTVINjM3LjUyMXYtNzAuNTA0SDc1Ni41Nkw3NTYuNTYsMzY0Ljc0OHogTTYwNy41MjEsNjA3LjUySDE5Mi40OFYxOTIuNDhoNDE1LjA0MSAgVjYwNy41MnoiLz48L3N2Zz4=;" parent="qbExKh2GQzYHgT6TWYTY-1" vertex="1">
          <mxGeometry x="406" y="275" width="14" height="14" as="geometry" />
        </mxCell>
        <mxCell id="hM18RylwCYSOnlRyK38Z-71" value="" style="shape=image;verticalLabelPosition=bottom;labelBackgroundColor=default;verticalAlign=top;aspect=fixed;imageAspect=0;image=data:image/svg+xml,PHN2ZyB4bWxuczp4bGluaz0iaHR0cDovL3d3dy53My5vcmcvMTk5OS94bGluayIgeG1sbnM9Imh0dHA6Ly93d3cudzMub3JnLzIwMDAvc3ZnIiB4bWw6c3BhY2U9InByZXNlcnZlIiB3aWR0aD0iODAwcHgiIHZpZXdCb3g9IjAgMCA4MDAgODAwIiB2ZXJzaW9uPSIxLjEiIGlkPSJHVUlERSIgaGVpZ2h0PSI4MDBweCI+PHBhdGggZmlsbD0iIzA4MjEzRCIgZD0iTTc1Ni41NzQsMjEwLjMwOEg0My40MjdjLTguMjg2LDAtMTUsNi43MTctMTUsMTV2MjUwdjk5LjM5YzAsOC4yOCw2LjcxMywxNC45OTUsMTUsMTQuOTk1aDI5Ni4wNzQgIGMzLjk3OCwwLDcuNzkyLTEuNTc2LDEwLjYwNC00LjM5NWMyLjgxMy0yLjgwNyw0LjM5NS02LjYyMSw0LjM5NS0xMC42MDJsLTAuMDAzLTIzLjM5M2g5MC45OTh2MjMuMzkzICBjMCw4LjI3OSw2LjcxOCwxNC45OTUsMTUuMDAxLDE0Ljk5NWgyOTYuMDc3YzguMjgzLDAsMTQuOTk4LTYuNzE2LDE0Ljk5OC0xNC45OTV2LTk5LjM5di0yNTAgIEM3NzEuNTcyLDIxNy4wMjQsNzY0Ljg1NywyMTAuMzA4LDc1Ni41NzQsMjEwLjMwOHogTTc0MS41NzMsNTU5LjY5NmgtMjcuNzQ3di0yOS4zOTFjMC04LjI4LTYuNzE4LTE1LjAwMS0xNS4wMDEtMTUuMDAxICBzLTE1LjAwMSw2LjcyMS0xNS4wMDEsMTUuMDAxdjI5LjM5MWgtMzQuNDIzdi0yOS4zOTFjMC04LjI4LTYuNzE5LTE1LjAwMS0xNS4wMDQtMTUuMDAxYy04LjI4MywwLTE1LjAwMSw2LjcyMS0xNS4wMDEsMTUuMDAxICB2MjkuMzkxSDU4NC45N3YtMjkuMzkxYzAtOC4yOC02LjcxOC0xNS4wMDEtMTUuMDAxLTE1LjAwMWMtOC4yODQsMC0xNS4wMDEsNi43MjEtMTUuMDAxLDE1LjAwMXYyOS4zOTFoLTM0LjQzdi0yOS4zOTEgIGMwLTguMjgtNi43MTUtMTUuMDAxLTE0Ljk5OC0xNS4wMDFjLTguMjgsMC0xNC45OTgsNi43MjEtMTQuOTk4LDE1LjAwMXYyOS4zOTFoLTE1LjA0NXYtMjMuMzkzYzAtOC4yOC02LjcxNS0xNS4wMDEtMTUuMDAxLTE1LjAwMSAgSDMzOS40OTljLTMuOTgsMC03Ljc5NSwxLjU4Mi0xMC42MDcsNC4zOTljLTIuODEzLDIuODA2LTQuMzk1LDYuNjI2LTQuMzk1LDEwLjYwNWwwLjAwMiwyMy4zODhoLTE1LjA0M3YtMjkuMzkxICBjMC04LjI4LTYuNzE2LTE1LjAwMS0xNS0xNS4wMDFjLTguMjg2LDAtMTUsNi43MjEtMTUsMTUuMDAxdjI5LjM5MWgtMzQuNDI4di0yOS4zOTFjMC04LjI4LTYuNzE1LTE1LjAwMS0xNS4wMDEtMTUuMDAxICBjLTguMjgzLDAtMTUsNi43MjEtMTUsMTUuMDAxdjI5LjM5MUgxODAuNnYtMjkuMzkxYzAtOC4yOC02LjcxNi0xNS4wMDEtMTUtMTUuMDAxYy04LjI4NCwwLTE1LDYuNzIxLTE1LDE1LjAwMXYyOS4zOTFoLTM0LjQyOSAgdi0yOS4zOTFjMC04LjI4LTYuNzE2LTE1LjAwMS0xNC45OTctMTUuMDAxYy04LjI4NiwwLTE1LDYuNzIxLTE1LDE1LjAwMXYyOS4zOTFINTguNDI3VjQ5MC4zMWg2ODMuMTQ2VjU1OS42OTZ6IE03NDEuNTczLDQ2MC4zMDggIEg1OC40MjdWMjQwLjMwOWg2ODMuMTQ2VjQ2MC4zMDh6Ii8+PHBhdGggZmlsbD0iIzA4MjEzRCIgZD0iTTE4NS44NSwyNzIuODA5aC04NC42NzVjLTguMjg2LDAtMTUsNi43MTUtMTUsMTUuMDAxdjEyNC45OThjMCw4LjI4Niw2LjcxMywxNC45OTUsMTUsMTQuOTk1aDg0LjY3NSAgYzguMjgyLDAsMTUtNi43MDksMTUtMTQuOTk1VjI4Ny44MUMyMDAuODQ5LDI3OS41MjMsMTk0LjEzMSwyNzIuODA5LDE4NS44NSwyNzIuODA5eiBNMTcwLjg1LDM5Ny44MDhoLTU0LjY3OHYtOTVoNTQuNjc4VjM5Ny44MDh6Ii8+PHBhdGggZmlsbD0iIzA4MjEzRCIgZD0iTTM1Ni44NDEsMjcyLjgwOWgtODQuNjc3Yy04LjI4MywwLTE1LDYuNzE1LTE1LDE1LjAwMXYxMjQuOTk4YzAsOC4yODYsNi43MTYsMTQuOTk1LDE1LDE0Ljk5NWg4NC42NzcgIGM4LjI4MiwwLDE0Ljk5OC02LjcwOSwxNC45OTgtMTQuOTk1VjI4Ny44MUMzNzEuODM5LDI3OS41MjMsMzY1LjEyMywyNzIuODA5LDM1Ni44NDEsMjcyLjgwOXogTTM0MS44NCwzOTcuODA4aC01NC42NzV2LTk1aDU0LjY3NSAgVjM5Ny44MDh6Ii8+PHBhdGggZmlsbD0iIzA4MjEzRCIgZD0iTTUyNy44MzMsMjcyLjgwOWgtODQuNjc3Yy04LjI4MywwLTE1LjAwNCw2LjcxNS0xNS4wMDQsMTUuMDAxdjEyNC45OThjMCw4LjI4Niw2LjcyMSwxNC45OTUsMTUuMDA0LDE0Ljk5NSAgaDg0LjY3N2M4LjI4MywwLDE1LjAwMS02LjcwOSwxNS4wMDEtMTQuOTk1VjI4Ny44MUM1NDIuODM0LDI3OS41MjMsNTM2LjExNiwyNzIuODA5LDUyNy44MzMsMjcyLjgwOXogTTUxMi44MjksMzk3LjgwOGgtNTQuNjcydi05NSAgaDU0LjY3MlYzOTcuODA4eiIvPjxwYXRoIGZpbGw9IiMwODIxM0QiIGQ9Ik02OTguODI1LDI3Mi44MDloLTg0LjY3OGMtOC4yODYsMC0xNC45OTgsNi43MTUtMTQuOTk4LDE1LjAwMXYxMjQuOTk4YzAsOC4yODYsNi43MTIsMTQuOTk1LDE0Ljk5OCwxNC45OTUgIGg4NC42NzhjOC4yODMsMCwxNS4wMDEtNi43MDksMTUuMDAxLTE0Ljk5NVYyODcuODFDNzEzLjgyNiwyNzkuNTIzLDcwNy4xMDgsMjcyLjgwOSw2OTguODI1LDI3Mi44MDl6IE02ODMuODIxLDM5Ny44MDhoLTU0LjY3NnYtOTUgIGg1NC42NzZWMzk3LjgwOHoiLz48L3N2Zz4=;" parent="qbExKh2GQzYHgT6TWYTY-1" vertex="1">
          <mxGeometry x="406" y="292" width="14" height="14" as="geometry" />
        </mxCell>
        <mxCell id="hM18RylwCYSOnlRyK38Z-72" value="&lt;font&gt;32+&lt;/font&gt;" style="text;html=1;align=left;verticalAlign=middle;resizable=0;points=[];autosize=1;fontSize=14;fontFamily=Google Sans;fontStyle=0;fontColor=#ff3154;fontSource=https%3A%2F%2Ffonts.googleapis.com%2Fcss%3Ffamily%3DGoogle%2BSans;" parent="qbExKh2GQzYHgT6TWYTY-1" vertex="1">
          <mxGeometry x="423" y="266" width="41" height="29" as="geometry" />
        </mxCell>
        <mxCell id="hM18RylwCYSOnlRyK38Z-73" value="&lt;font&gt;128+&lt;/font&gt;" style="text;html=1;align=left;verticalAlign=middle;resizable=0;points=[];autosize=1;fontSize=14;fontFamily=Google Sans;fontStyle=0;fontColor=#ff3154;fontSource=https%3A%2F%2Ffonts.googleapis.com%2Fcss%3Ffamily%3DGoogle%2BSans;" parent="qbExKh2GQzYHgT6TWYTY-1" vertex="1">
          <mxGeometry x="423.00000000000006" y="284.5" width="46" height="29" as="geometry" />
        </mxCell>
        <mxCell id="hM18RylwCYSOnlRyK38Z-74" value="" style="group" parent="qbExKh2GQzYHgT6TWYTY-1" vertex="1" connectable="0">
          <mxGeometry x="400" y="403" width="23" height="21" as="geometry" />
        </mxCell>
        <mxCell id="hM18RylwCYSOnlRyK38Z-49" value="" style="rounded=1;whiteSpace=wrap;html=1;arcSize=8;" parent="hM18RylwCYSOnlRyK38Z-74" vertex="1">
          <mxGeometry width="23" height="21" as="geometry" />
        </mxCell>
        <mxCell id="hM18RylwCYSOnlRyK38Z-50" value="" style="group;aspect=fixed;" parent="hM18RylwCYSOnlRyK38Z-74" vertex="1" connectable="0">
          <mxGeometry x="2.8899999999999864" y="2" width="17" height="17" as="geometry" />
        </mxCell>
        <mxCell id="hM18RylwCYSOnlRyK38Z-51" value="" style="group" parent="hM18RylwCYSOnlRyK38Z-50" vertex="1" connectable="0">
          <mxGeometry width="17" height="17" as="geometry" />
        </mxCell>
        <mxCell id="hM18RylwCYSOnlRyK38Z-52" value="" style="whiteSpace=wrap;html=1;aspect=fixed;fillColor=#001135;strokeColor=none;connectable=1;allowArrows=1;fontFamily=Manrope;fontSource=https%3A%2F%2Ffonts.googleapis.com%2Fcss%3Ffamily%3DManrope;" parent="hM18RylwCYSOnlRyK38Z-51" vertex="1">
          <mxGeometry width="17" height="17" as="geometry" />
        </mxCell>
        <mxCell id="hM18RylwCYSOnlRyK38Z-53" value="" style="endArrow=open;html=1;edgeStyle=orthogonalEdgeStyle;rounded=0;endFill=0;startSize=6;endSize=2;strokeColor=#FFFFFF;fontFamily=Manrope;fontSource=https%3A%2F%2Ffonts.googleapis.com%2Fcss%3Ffamily%3DManrope;strokeWidth=0.5;" parent="hM18RylwCYSOnlRyK38Z-51" edge="1">
          <mxGeometry width="28.333333333333336" height="28.333333333333336" as="geometry">
            <mxPoint x="1.6999999999999997" y="6.799999999999999" as="sourcePoint" />
            <mxPoint x="6.233333333333333" y="1.6999999999999997" as="targetPoint" />
            <Array as="points">
              <mxPoint x="6.233333333333333" y="6.799999999999999" />
            </Array>
          </mxGeometry>
        </mxCell>
        <mxCell id="hM18RylwCYSOnlRyK38Z-54" value="" style="endArrow=open;html=1;edgeStyle=orthogonalEdgeStyle;rounded=0;endFill=0;startSize=6;endSize=2;strokeColor=#FFFFFF;fontFamily=Manrope;fontSource=https%3A%2F%2Ffonts.googleapis.com%2Fcss%3Ffamily%3DManrope;strokeWidth=0.5;" parent="hM18RylwCYSOnlRyK38Z-51" edge="1">
          <mxGeometry width="28.333333333333336" height="28.333333333333336" as="geometry">
            <mxPoint x="6.233333333333333" y="15.299999999999999" as="sourcePoint" />
            <mxPoint x="1.6999999999999997" y="10.766666666666666" as="targetPoint" />
            <Array as="points">
              <mxPoint x="6.233333333333333" y="10.766666666666666" />
            </Array>
          </mxGeometry>
        </mxCell>
        <mxCell id="hM18RylwCYSOnlRyK38Z-55" value="" style="endArrow=open;html=1;edgeStyle=orthogonalEdgeStyle;rounded=0;endFill=0;startSize=6;endSize=2;strokeColor=#FFFFFF;fontFamily=Manrope;fontSource=https%3A%2F%2Ffonts.googleapis.com%2Fcss%3Ffamily%3DManrope;strokeWidth=0.5;" parent="hM18RylwCYSOnlRyK38Z-51" edge="1">
          <mxGeometry width="28.333333333333336" height="28.333333333333336" as="geometry">
            <mxPoint x="10.199999999999998" y="1.6999999999999997" as="sourcePoint" />
            <mxPoint x="15.299999999999999" y="6.799999999999999" as="targetPoint" />
            <Array as="points">
              <mxPoint x="10.199999999999998" y="6.799999999999999" />
            </Array>
          </mxGeometry>
        </mxCell>
        <mxCell id="hM18RylwCYSOnlRyK38Z-56" value="" style="endArrow=open;html=1;edgeStyle=orthogonalEdgeStyle;rounded=0;endFill=0;startSize=6;endSize=2;strokeColor=#FFFFFF;fontFamily=Manrope;fontSource=https%3A%2F%2Ffonts.googleapis.com%2Fcss%3Ffamily%3DManrope;strokeWidth=0.5;" parent="hM18RylwCYSOnlRyK38Z-51" edge="1">
          <mxGeometry width="28.333333333333336" height="28.333333333333336" as="geometry">
            <mxPoint x="15.299999999999999" y="10.766666666666666" as="sourcePoint" />
            <mxPoint x="10.199999999999998" y="15.299999999999999" as="targetPoint" />
            <Array as="points">
              <mxPoint x="10.199999999999998" y="10.766666666666666" />
            </Array>
          </mxGeometry>
        </mxCell>
        <mxCell id="hM18RylwCYSOnlRyK38Z-75" value="" style="group" parent="qbExKh2GQzYHgT6TWYTY-1" vertex="1" connectable="0">
          <mxGeometry x="429.87" y="403" width="23" height="21" as="geometry" />
        </mxCell>
        <mxCell id="hM18RylwCYSOnlRyK38Z-76" value="" style="rounded=1;whiteSpace=wrap;html=1;arcSize=8;" parent="hM18RylwCYSOnlRyK38Z-75" vertex="1">
          <mxGeometry width="23" height="21" as="geometry" />
        </mxCell>
        <mxCell id="hM18RylwCYSOnlRyK38Z-77" value="" style="group;aspect=fixed;" parent="hM18RylwCYSOnlRyK38Z-75" vertex="1" connectable="0">
          <mxGeometry x="2.8899999999999864" y="2" width="17" height="17" as="geometry" />
        </mxCell>
        <mxCell id="hM18RylwCYSOnlRyK38Z-78" value="" style="group" parent="hM18RylwCYSOnlRyK38Z-77" vertex="1" connectable="0">
          <mxGeometry width="17" height="17" as="geometry" />
        </mxCell>
        <mxCell id="hM18RylwCYSOnlRyK38Z-79" value="" style="whiteSpace=wrap;html=1;aspect=fixed;fillColor=#001135;strokeColor=none;connectable=1;allowArrows=1;fontFamily=Manrope;fontSource=https%3A%2F%2Ffonts.googleapis.com%2Fcss%3Ffamily%3DManrope;" parent="hM18RylwCYSOnlRyK38Z-78" vertex="1">
          <mxGeometry width="17" height="17" as="geometry" />
        </mxCell>
        <mxCell id="hM18RylwCYSOnlRyK38Z-80" value="" style="endArrow=open;html=1;edgeStyle=orthogonalEdgeStyle;rounded=0;endFill=0;startSize=6;endSize=2;strokeColor=#FFFFFF;fontFamily=Manrope;fontSource=https%3A%2F%2Ffonts.googleapis.com%2Fcss%3Ffamily%3DManrope;strokeWidth=0.5;" parent="hM18RylwCYSOnlRyK38Z-78" edge="1">
          <mxGeometry width="28.333333333333336" height="28.333333333333336" as="geometry">
            <mxPoint x="1.6999999999999997" y="6.799999999999999" as="sourcePoint" />
            <mxPoint x="6.233333333333333" y="1.6999999999999997" as="targetPoint" />
            <Array as="points">
              <mxPoint x="6.233333333333333" y="6.799999999999999" />
            </Array>
          </mxGeometry>
        </mxCell>
        <mxCell id="hM18RylwCYSOnlRyK38Z-81" value="" style="endArrow=open;html=1;edgeStyle=orthogonalEdgeStyle;rounded=0;endFill=0;startSize=6;endSize=2;strokeColor=#FFFFFF;fontFamily=Manrope;fontSource=https%3A%2F%2Ffonts.googleapis.com%2Fcss%3Ffamily%3DManrope;strokeWidth=0.5;" parent="hM18RylwCYSOnlRyK38Z-78" edge="1">
          <mxGeometry width="28.333333333333336" height="28.333333333333336" as="geometry">
            <mxPoint x="6.233333333333333" y="15.299999999999999" as="sourcePoint" />
            <mxPoint x="1.6999999999999997" y="10.766666666666666" as="targetPoint" />
            <Array as="points">
              <mxPoint x="6.233333333333333" y="10.766666666666666" />
            </Array>
          </mxGeometry>
        </mxCell>
        <mxCell id="hM18RylwCYSOnlRyK38Z-82" value="" style="endArrow=open;html=1;edgeStyle=orthogonalEdgeStyle;rounded=0;endFill=0;startSize=6;endSize=2;strokeColor=#FFFFFF;fontFamily=Manrope;fontSource=https%3A%2F%2Ffonts.googleapis.com%2Fcss%3Ffamily%3DManrope;strokeWidth=0.5;" parent="hM18RylwCYSOnlRyK38Z-78" edge="1">
          <mxGeometry width="28.333333333333336" height="28.333333333333336" as="geometry">
            <mxPoint x="10.199999999999998" y="1.6999999999999997" as="sourcePoint" />
            <mxPoint x="15.299999999999999" y="6.799999999999999" as="targetPoint" />
            <Array as="points">
              <mxPoint x="10.199999999999998" y="6.799999999999999" />
            </Array>
          </mxGeometry>
        </mxCell>
        <mxCell id="hM18RylwCYSOnlRyK38Z-83" value="" style="endArrow=open;html=1;edgeStyle=orthogonalEdgeStyle;rounded=0;endFill=0;startSize=6;endSize=2;strokeColor=#FFFFFF;fontFamily=Manrope;fontSource=https%3A%2F%2Ffonts.googleapis.com%2Fcss%3Ffamily%3DManrope;strokeWidth=0.5;" parent="hM18RylwCYSOnlRyK38Z-78" edge="1">
          <mxGeometry width="28.333333333333336" height="28.333333333333336" as="geometry">
            <mxPoint x="15.299999999999999" y="10.766666666666666" as="sourcePoint" />
            <mxPoint x="10.199999999999998" y="15.299999999999999" as="targetPoint" />
            <Array as="points">
              <mxPoint x="10.199999999999998" y="10.766666666666666" />
            </Array>
          </mxGeometry>
        </mxCell>
        <mxCell id="hM18RylwCYSOnlRyK38Z-84" value="" style="group" parent="qbExKh2GQzYHgT6TWYTY-1" vertex="1" connectable="0">
          <mxGeometry x="461.5" y="403" width="23" height="21" as="geometry" />
        </mxCell>
        <mxCell id="hM18RylwCYSOnlRyK38Z-85" value="" style="rounded=1;whiteSpace=wrap;html=1;arcSize=8;" parent="hM18RylwCYSOnlRyK38Z-84" vertex="1">
          <mxGeometry width="23" height="21" as="geometry" />
        </mxCell>
        <mxCell id="hM18RylwCYSOnlRyK38Z-86" value="" style="group;aspect=fixed;" parent="hM18RylwCYSOnlRyK38Z-84" vertex="1" connectable="0">
          <mxGeometry x="2.8899999999999864" y="2" width="17" height="17" as="geometry" />
        </mxCell>
        <mxCell id="hM18RylwCYSOnlRyK38Z-87" value="" style="group" parent="hM18RylwCYSOnlRyK38Z-86" vertex="1" connectable="0">
          <mxGeometry width="17" height="17" as="geometry" />
        </mxCell>
        <mxCell id="hM18RylwCYSOnlRyK38Z-88" value="" style="whiteSpace=wrap;html=1;aspect=fixed;fillColor=#001135;strokeColor=none;connectable=1;allowArrows=1;fontFamily=Manrope;fontSource=https%3A%2F%2Ffonts.googleapis.com%2Fcss%3Ffamily%3DManrope;" parent="hM18RylwCYSOnlRyK38Z-87" vertex="1">
          <mxGeometry width="17" height="17" as="geometry" />
        </mxCell>
        <mxCell id="hM18RylwCYSOnlRyK38Z-89" value="" style="endArrow=open;html=1;edgeStyle=orthogonalEdgeStyle;rounded=0;endFill=0;startSize=6;endSize=2;strokeColor=#FFFFFF;fontFamily=Manrope;fontSource=https%3A%2F%2Ffonts.googleapis.com%2Fcss%3Ffamily%3DManrope;strokeWidth=0.5;" parent="hM18RylwCYSOnlRyK38Z-87" edge="1">
          <mxGeometry width="28.333333333333336" height="28.333333333333336" as="geometry">
            <mxPoint x="1.6999999999999997" y="6.799999999999999" as="sourcePoint" />
            <mxPoint x="6.233333333333333" y="1.6999999999999997" as="targetPoint" />
            <Array as="points">
              <mxPoint x="6.233333333333333" y="6.799999999999999" />
            </Array>
          </mxGeometry>
        </mxCell>
        <mxCell id="hM18RylwCYSOnlRyK38Z-90" value="" style="endArrow=open;html=1;edgeStyle=orthogonalEdgeStyle;rounded=0;endFill=0;startSize=6;endSize=2;strokeColor=#FFFFFF;fontFamily=Manrope;fontSource=https%3A%2F%2Ffonts.googleapis.com%2Fcss%3Ffamily%3DManrope;strokeWidth=0.5;" parent="hM18RylwCYSOnlRyK38Z-87" edge="1">
          <mxGeometry width="28.333333333333336" height="28.333333333333336" as="geometry">
            <mxPoint x="6.233333333333333" y="15.299999999999999" as="sourcePoint" />
            <mxPoint x="1.6999999999999997" y="10.766666666666666" as="targetPoint" />
            <Array as="points">
              <mxPoint x="6.233333333333333" y="10.766666666666666" />
            </Array>
          </mxGeometry>
        </mxCell>
        <mxCell id="hM18RylwCYSOnlRyK38Z-91" value="" style="endArrow=open;html=1;edgeStyle=orthogonalEdgeStyle;rounded=0;endFill=0;startSize=6;endSize=2;strokeColor=#FFFFFF;fontFamily=Manrope;fontSource=https%3A%2F%2Ffonts.googleapis.com%2Fcss%3Ffamily%3DManrope;strokeWidth=0.5;" parent="hM18RylwCYSOnlRyK38Z-87" edge="1">
          <mxGeometry width="28.333333333333336" height="28.333333333333336" as="geometry">
            <mxPoint x="10.199999999999998" y="1.6999999999999997" as="sourcePoint" />
            <mxPoint x="15.299999999999999" y="6.799999999999999" as="targetPoint" />
            <Array as="points">
              <mxPoint x="10.199999999999998" y="6.799999999999999" />
            </Array>
          </mxGeometry>
        </mxCell>
        <mxCell id="hM18RylwCYSOnlRyK38Z-92" value="" style="endArrow=open;html=1;edgeStyle=orthogonalEdgeStyle;rounded=0;endFill=0;startSize=6;endSize=2;strokeColor=#FFFFFF;fontFamily=Manrope;fontSource=https%3A%2F%2Ffonts.googleapis.com%2Fcss%3Ffamily%3DManrope;strokeWidth=0.5;" parent="hM18RylwCYSOnlRyK38Z-87" edge="1">
          <mxGeometry width="28.333333333333336" height="28.333333333333336" as="geometry">
            <mxPoint x="15.299999999999999" y="10.766666666666666" as="sourcePoint" />
            <mxPoint x="10.199999999999998" y="15.299999999999999" as="targetPoint" />
            <Array as="points">
              <mxPoint x="10.199999999999998" y="10.766666666666666" />
            </Array>
          </mxGeometry>
        </mxCell>
        <mxCell id="hM18RylwCYSOnlRyK38Z-93" value="" style="group" parent="qbExKh2GQzYHgT6TWYTY-1" vertex="1" connectable="0">
          <mxGeometry x="412" y="365" width="23" height="21" as="geometry" />
        </mxCell>
        <mxCell id="hM18RylwCYSOnlRyK38Z-94" value="" style="rounded=1;whiteSpace=wrap;html=1;arcSize=8;" parent="hM18RylwCYSOnlRyK38Z-93" vertex="1">
          <mxGeometry width="23" height="21" as="geometry" />
        </mxCell>
        <mxCell id="hM18RylwCYSOnlRyK38Z-95" value="" style="group;aspect=fixed;" parent="hM18RylwCYSOnlRyK38Z-93" vertex="1" connectable="0">
          <mxGeometry x="2.8899999999999864" y="2" width="17" height="17" as="geometry" />
        </mxCell>
        <mxCell id="hM18RylwCYSOnlRyK38Z-96" value="" style="group" parent="hM18RylwCYSOnlRyK38Z-95" vertex="1" connectable="0">
          <mxGeometry width="17" height="17" as="geometry" />
        </mxCell>
        <mxCell id="hM18RylwCYSOnlRyK38Z-97" value="" style="whiteSpace=wrap;html=1;aspect=fixed;fillColor=#001135;strokeColor=none;connectable=1;allowArrows=1;fontFamily=Manrope;fontSource=https%3A%2F%2Ffonts.googleapis.com%2Fcss%3Ffamily%3DManrope;" parent="hM18RylwCYSOnlRyK38Z-96" vertex="1">
          <mxGeometry width="17" height="17" as="geometry" />
        </mxCell>
        <mxCell id="hM18RylwCYSOnlRyK38Z-98" value="" style="endArrow=open;html=1;edgeStyle=orthogonalEdgeStyle;rounded=0;endFill=0;startSize=6;endSize=2;strokeColor=#FFFFFF;fontFamily=Manrope;fontSource=https%3A%2F%2Ffonts.googleapis.com%2Fcss%3Ffamily%3DManrope;strokeWidth=0.5;" parent="hM18RylwCYSOnlRyK38Z-96" edge="1">
          <mxGeometry width="28.333333333333336" height="28.333333333333336" as="geometry">
            <mxPoint x="1.6999999999999997" y="6.799999999999999" as="sourcePoint" />
            <mxPoint x="6.233333333333333" y="1.6999999999999997" as="targetPoint" />
            <Array as="points">
              <mxPoint x="6.233333333333333" y="6.799999999999999" />
            </Array>
          </mxGeometry>
        </mxCell>
        <mxCell id="hM18RylwCYSOnlRyK38Z-99" value="" style="endArrow=open;html=1;edgeStyle=orthogonalEdgeStyle;rounded=0;endFill=0;startSize=6;endSize=2;strokeColor=#FFFFFF;fontFamily=Manrope;fontSource=https%3A%2F%2Ffonts.googleapis.com%2Fcss%3Ffamily%3DManrope;strokeWidth=0.5;" parent="hM18RylwCYSOnlRyK38Z-96" edge="1">
          <mxGeometry width="28.333333333333336" height="28.333333333333336" as="geometry">
            <mxPoint x="6.233333333333333" y="15.299999999999999" as="sourcePoint" />
            <mxPoint x="1.6999999999999997" y="10.766666666666666" as="targetPoint" />
            <Array as="points">
              <mxPoint x="6.233333333333333" y="10.766666666666666" />
            </Array>
          </mxGeometry>
        </mxCell>
        <mxCell id="hM18RylwCYSOnlRyK38Z-100" value="" style="endArrow=open;html=1;edgeStyle=orthogonalEdgeStyle;rounded=0;endFill=0;startSize=6;endSize=2;strokeColor=#FFFFFF;fontFamily=Manrope;fontSource=https%3A%2F%2Ffonts.googleapis.com%2Fcss%3Ffamily%3DManrope;strokeWidth=0.5;" parent="hM18RylwCYSOnlRyK38Z-96" edge="1">
          <mxGeometry width="28.333333333333336" height="28.333333333333336" as="geometry">
            <mxPoint x="10.199999999999998" y="1.6999999999999997" as="sourcePoint" />
            <mxPoint x="15.299999999999999" y="6.799999999999999" as="targetPoint" />
            <Array as="points">
              <mxPoint x="10.199999999999998" y="6.799999999999999" />
            </Array>
          </mxGeometry>
        </mxCell>
        <mxCell id="hM18RylwCYSOnlRyK38Z-101" value="" style="endArrow=open;html=1;edgeStyle=orthogonalEdgeStyle;rounded=0;endFill=0;startSize=6;endSize=2;strokeColor=#FFFFFF;fontFamily=Manrope;fontSource=https%3A%2F%2Ffonts.googleapis.com%2Fcss%3Ffamily%3DManrope;strokeWidth=0.5;" parent="hM18RylwCYSOnlRyK38Z-96" edge="1">
          <mxGeometry width="28.333333333333336" height="28.333333333333336" as="geometry">
            <mxPoint x="15.299999999999999" y="10.766666666666666" as="sourcePoint" />
            <mxPoint x="10.199999999999998" y="15.299999999999999" as="targetPoint" />
            <Array as="points">
              <mxPoint x="10.199999999999998" y="10.766666666666666" />
            </Array>
          </mxGeometry>
        </mxCell>
        <mxCell id="hM18RylwCYSOnlRyK38Z-102" value="" style="group" parent="qbExKh2GQzYHgT6TWYTY-1" vertex="1" connectable="0">
          <mxGeometry x="444" y="365" width="23" height="21" as="geometry" />
        </mxCell>
        <mxCell id="hM18RylwCYSOnlRyK38Z-103" value="" style="rounded=1;whiteSpace=wrap;html=1;arcSize=8;" parent="hM18RylwCYSOnlRyK38Z-102" vertex="1">
          <mxGeometry width="23" height="21" as="geometry" />
        </mxCell>
        <mxCell id="hM18RylwCYSOnlRyK38Z-104" value="" style="group;aspect=fixed;" parent="hM18RylwCYSOnlRyK38Z-102" vertex="1" connectable="0">
          <mxGeometry x="2.8899999999999864" y="2" width="17" height="17" as="geometry" />
        </mxCell>
        <mxCell id="hM18RylwCYSOnlRyK38Z-105" value="" style="group" parent="hM18RylwCYSOnlRyK38Z-104" vertex="1" connectable="0">
          <mxGeometry width="17" height="17" as="geometry" />
        </mxCell>
        <mxCell id="hM18RylwCYSOnlRyK38Z-106" value="" style="whiteSpace=wrap;html=1;aspect=fixed;fillColor=#001135;strokeColor=none;connectable=1;allowArrows=1;fontFamily=Manrope;fontSource=https%3A%2F%2Ffonts.googleapis.com%2Fcss%3Ffamily%3DManrope;" parent="hM18RylwCYSOnlRyK38Z-105" vertex="1">
          <mxGeometry width="17" height="17" as="geometry" />
        </mxCell>
        <mxCell id="hM18RylwCYSOnlRyK38Z-107" value="" style="endArrow=open;html=1;edgeStyle=orthogonalEdgeStyle;rounded=0;endFill=0;startSize=6;endSize=2;strokeColor=#FFFFFF;fontFamily=Manrope;fontSource=https%3A%2F%2Ffonts.googleapis.com%2Fcss%3Ffamily%3DManrope;strokeWidth=0.5;" parent="hM18RylwCYSOnlRyK38Z-105" edge="1">
          <mxGeometry width="28.333333333333336" height="28.333333333333336" as="geometry">
            <mxPoint x="1.6999999999999997" y="6.799999999999999" as="sourcePoint" />
            <mxPoint x="6.233333333333333" y="1.6999999999999997" as="targetPoint" />
            <Array as="points">
              <mxPoint x="6.233333333333333" y="6.799999999999999" />
            </Array>
          </mxGeometry>
        </mxCell>
        <mxCell id="hM18RylwCYSOnlRyK38Z-108" value="" style="endArrow=open;html=1;edgeStyle=orthogonalEdgeStyle;rounded=0;endFill=0;startSize=6;endSize=2;strokeColor=#FFFFFF;fontFamily=Manrope;fontSource=https%3A%2F%2Ffonts.googleapis.com%2Fcss%3Ffamily%3DManrope;strokeWidth=0.5;" parent="hM18RylwCYSOnlRyK38Z-105" edge="1">
          <mxGeometry width="28.333333333333336" height="28.333333333333336" as="geometry">
            <mxPoint x="6.233333333333333" y="15.299999999999999" as="sourcePoint" />
            <mxPoint x="1.6999999999999997" y="10.766666666666666" as="targetPoint" />
            <Array as="points">
              <mxPoint x="6.233333333333333" y="10.766666666666666" />
            </Array>
          </mxGeometry>
        </mxCell>
        <mxCell id="hM18RylwCYSOnlRyK38Z-109" value="" style="endArrow=open;html=1;edgeStyle=orthogonalEdgeStyle;rounded=0;endFill=0;startSize=6;endSize=2;strokeColor=#FFFFFF;fontFamily=Manrope;fontSource=https%3A%2F%2Ffonts.googleapis.com%2Fcss%3Ffamily%3DManrope;strokeWidth=0.5;" parent="hM18RylwCYSOnlRyK38Z-105" edge="1">
          <mxGeometry width="28.333333333333336" height="28.333333333333336" as="geometry">
            <mxPoint x="10.199999999999998" y="1.6999999999999997" as="sourcePoint" />
            <mxPoint x="15.299999999999999" y="6.799999999999999" as="targetPoint" />
            <Array as="points">
              <mxPoint x="10.199999999999998" y="6.799999999999999" />
            </Array>
          </mxGeometry>
        </mxCell>
        <mxCell id="hM18RylwCYSOnlRyK38Z-110" value="" style="endArrow=open;html=1;edgeStyle=orthogonalEdgeStyle;rounded=0;endFill=0;startSize=6;endSize=2;strokeColor=#FFFFFF;fontFamily=Manrope;fontSource=https%3A%2F%2Ffonts.googleapis.com%2Fcss%3Ffamily%3DManrope;strokeWidth=0.5;" parent="hM18RylwCYSOnlRyK38Z-105" edge="1">
          <mxGeometry width="28.333333333333336" height="28.333333333333336" as="geometry">
            <mxPoint x="15.299999999999999" y="10.766666666666666" as="sourcePoint" />
            <mxPoint x="10.199999999999998" y="15.299999999999999" as="targetPoint" />
            <Array as="points">
              <mxPoint x="10.199999999999998" y="10.766666666666666" />
            </Array>
          </mxGeometry>
        </mxCell>
        <mxCell id="hM18RylwCYSOnlRyK38Z-111" value="" style="group" parent="qbExKh2GQzYHgT6TWYTY-1" vertex="1" connectable="0">
          <mxGeometry x="428" y="328" width="23" height="21" as="geometry" />
        </mxCell>
        <mxCell id="hM18RylwCYSOnlRyK38Z-112" value="" style="rounded=1;whiteSpace=wrap;html=1;arcSize=8;" parent="hM18RylwCYSOnlRyK38Z-111" vertex="1">
          <mxGeometry width="23" height="21" as="geometry" />
        </mxCell>
        <mxCell id="hM18RylwCYSOnlRyK38Z-113" value="" style="group;aspect=fixed;" parent="hM18RylwCYSOnlRyK38Z-111" vertex="1" connectable="0">
          <mxGeometry x="2.8899999999999864" y="2" width="17" height="17" as="geometry" />
        </mxCell>
        <mxCell id="hM18RylwCYSOnlRyK38Z-114" value="" style="group" parent="hM18RylwCYSOnlRyK38Z-113" vertex="1" connectable="0">
          <mxGeometry width="17" height="17" as="geometry" />
        </mxCell>
        <mxCell id="hM18RylwCYSOnlRyK38Z-115" value="" style="whiteSpace=wrap;html=1;aspect=fixed;fillColor=#001135;strokeColor=none;connectable=1;allowArrows=1;fontFamily=Manrope;fontSource=https%3A%2F%2Ffonts.googleapis.com%2Fcss%3Ffamily%3DManrope;" parent="hM18RylwCYSOnlRyK38Z-114" vertex="1">
          <mxGeometry width="17" height="17" as="geometry" />
        </mxCell>
        <mxCell id="hM18RylwCYSOnlRyK38Z-116" value="" style="endArrow=open;html=1;edgeStyle=orthogonalEdgeStyle;rounded=0;endFill=0;startSize=6;endSize=2;strokeColor=#FFFFFF;fontFamily=Manrope;fontSource=https%3A%2F%2Ffonts.googleapis.com%2Fcss%3Ffamily%3DManrope;strokeWidth=0.5;" parent="hM18RylwCYSOnlRyK38Z-114" edge="1">
          <mxGeometry width="28.333333333333336" height="28.333333333333336" as="geometry">
            <mxPoint x="1.6999999999999997" y="6.799999999999999" as="sourcePoint" />
            <mxPoint x="6.233333333333333" y="1.6999999999999997" as="targetPoint" />
            <Array as="points">
              <mxPoint x="6.233333333333333" y="6.799999999999999" />
            </Array>
          </mxGeometry>
        </mxCell>
        <mxCell id="hM18RylwCYSOnlRyK38Z-117" value="" style="endArrow=open;html=1;edgeStyle=orthogonalEdgeStyle;rounded=0;endFill=0;startSize=6;endSize=2;strokeColor=#FFFFFF;fontFamily=Manrope;fontSource=https%3A%2F%2Ffonts.googleapis.com%2Fcss%3Ffamily%3DManrope;strokeWidth=0.5;" parent="hM18RylwCYSOnlRyK38Z-114" edge="1">
          <mxGeometry width="28.333333333333336" height="28.333333333333336" as="geometry">
            <mxPoint x="6.233333333333333" y="15.299999999999999" as="sourcePoint" />
            <mxPoint x="1.6999999999999997" y="10.766666666666666" as="targetPoint" />
            <Array as="points">
              <mxPoint x="6.233333333333333" y="10.766666666666666" />
            </Array>
          </mxGeometry>
        </mxCell>
        <mxCell id="hM18RylwCYSOnlRyK38Z-118" value="" style="endArrow=open;html=1;edgeStyle=orthogonalEdgeStyle;rounded=0;endFill=0;startSize=6;endSize=2;strokeColor=#FFFFFF;fontFamily=Manrope;fontSource=https%3A%2F%2Ffonts.googleapis.com%2Fcss%3Ffamily%3DManrope;strokeWidth=0.5;" parent="hM18RylwCYSOnlRyK38Z-114" edge="1">
          <mxGeometry width="28.333333333333336" height="28.333333333333336" as="geometry">
            <mxPoint x="10.199999999999998" y="1.6999999999999997" as="sourcePoint" />
            <mxPoint x="15.299999999999999" y="6.799999999999999" as="targetPoint" />
            <Array as="points">
              <mxPoint x="10.199999999999998" y="6.799999999999999" />
            </Array>
          </mxGeometry>
        </mxCell>
        <mxCell id="hM18RylwCYSOnlRyK38Z-119" value="" style="endArrow=open;html=1;edgeStyle=orthogonalEdgeStyle;rounded=0;endFill=0;startSize=6;endSize=2;strokeColor=#FFFFFF;fontFamily=Manrope;fontSource=https%3A%2F%2Ffonts.googleapis.com%2Fcss%3Ffamily%3DManrope;strokeWidth=0.5;" parent="hM18RylwCYSOnlRyK38Z-114" edge="1">
          <mxGeometry width="28.333333333333336" height="28.333333333333336" as="geometry">
            <mxPoint x="15.299999999999999" y="10.766666666666666" as="sourcePoint" />
            <mxPoint x="10.199999999999998" y="15.299999999999999" as="targetPoint" />
            <Array as="points">
              <mxPoint x="10.199999999999998" y="10.766666666666666" />
            </Array>
          </mxGeometry>
        </mxCell>
        <mxCell id="hM18RylwCYSOnlRyK38Z-120" value="" style="rounded=0;orthogonalLoop=1;jettySize=auto;html=1;fontFamily=Manrope;fontSize=12;fontColor=#FFFFFF;endArrow=oval;endFill=1;startArrow=oval;startFill=1;strokeColor=#98A2AE;entryX=0.478;entryY=-0.141;entryDx=0;entryDy=0;exitX=0.5;exitY=1;exitDx=0;exitDy=0;endSize=3;startSize=3;entryPerimeter=0;" parent="qbExKh2GQzYHgT6TWYTY-1" source="hM18RylwCYSOnlRyK38Z-103" target="hM18RylwCYSOnlRyK38Z-52" edge="1">
          <mxGeometry relative="1" as="geometry">
            <mxPoint x="429" y="391" as="sourcePoint" />
            <mxPoint x="417" y="408" as="targetPoint" />
          </mxGeometry>
        </mxCell>
        <mxCell id="hM18RylwCYSOnlRyK38Z-121" value="" style="rounded=0;orthogonalLoop=1;jettySize=auto;html=1;fontFamily=Manrope;fontSize=12;fontColor=#FFFFFF;endArrow=oval;endFill=1;startArrow=oval;startFill=1;strokeColor=#98A2AE;entryX=0.5;entryY=0;entryDx=0;entryDy=0;exitX=0.5;exitY=1;exitDx=0;exitDy=0;endSize=3;startSize=3;" parent="qbExKh2GQzYHgT6TWYTY-1" source="hM18RylwCYSOnlRyK38Z-94" target="hM18RylwCYSOnlRyK38Z-76" edge="1">
          <mxGeometry relative="1" as="geometry">
            <mxPoint x="461" y="391" as="sourcePoint" />
            <mxPoint x="416" y="408" as="targetPoint" />
          </mxGeometry>
        </mxCell>
        <mxCell id="hM18RylwCYSOnlRyK38Z-122" value="" style="rounded=0;orthogonalLoop=1;jettySize=auto;html=1;fontFamily=Manrope;fontSize=12;fontColor=#FFFFFF;endArrow=oval;endFill=1;startArrow=oval;startFill=1;strokeColor=#98A2AE;entryX=0.508;entryY=1.11;entryDx=0;entryDy=0;endSize=3;startSize=3;entryPerimeter=0;" parent="qbExKh2GQzYHgT6TWYTY-1" target="hM18RylwCYSOnlRyK38Z-106" edge="1">
          <mxGeometry relative="1" as="geometry">
            <mxPoint x="441" y="403" as="sourcePoint" />
            <mxPoint x="446" y="408" as="targetPoint" />
          </mxGeometry>
        </mxCell>
        <mxCell id="hM18RylwCYSOnlRyK38Z-123" value="" style="rounded=0;orthogonalLoop=1;jettySize=auto;html=1;fontFamily=Manrope;fontSize=12;fontColor=#FFFFFF;endArrow=oval;endFill=1;startArrow=oval;startFill=1;strokeColor=#98A2AE;entryX=0.506;entryY=0.965;entryDx=0;entryDy=0;endSize=3;startSize=3;entryPerimeter=0;exitX=0.5;exitY=0;exitDx=0;exitDy=0;" parent="qbExKh2GQzYHgT6TWYTY-1" source="hM18RylwCYSOnlRyK38Z-85" target="hM18RylwCYSOnlRyK38Z-103" edge="1">
          <mxGeometry relative="1" as="geometry">
            <mxPoint x="446" y="408" as="sourcePoint" />
            <mxPoint x="461" y="391" as="targetPoint" />
          </mxGeometry>
        </mxCell>
        <mxCell id="hM18RylwCYSOnlRyK38Z-124" value="" style="rounded=0;orthogonalLoop=1;jettySize=auto;html=1;fontFamily=Manrope;fontSize=12;fontColor=#FFFFFF;endArrow=oval;endFill=1;startArrow=oval;startFill=1;strokeColor=#98A2AE;endSize=3;startSize=3;exitX=0.48;exitY=-0.117;exitDx=0;exitDy=0;exitPerimeter=0;" parent="qbExKh2GQzYHgT6TWYTY-1" source="hM18RylwCYSOnlRyK38Z-88" edge="1">
          <mxGeometry relative="1" as="geometry">
            <mxPoint x="478" y="408" as="sourcePoint" />
            <mxPoint x="424" y="386" as="targetPoint" />
          </mxGeometry>
        </mxCell>
        <mxCell id="hM18RylwCYSOnlRyK38Z-125" value="" style="rounded=0;orthogonalLoop=1;jettySize=auto;html=1;fontFamily=Manrope;fontSize=12;fontColor=#FFFFFF;endArrow=oval;endFill=1;startArrow=oval;startFill=1;strokeColor=#98A2AE;endSize=3;startSize=3;exitX=0.5;exitY=0;exitDx=0;exitDy=0;entryX=0.5;entryY=1;entryDx=0;entryDy=0;" parent="qbExKh2GQzYHgT6TWYTY-1" source="hM18RylwCYSOnlRyK38Z-106" target="hM18RylwCYSOnlRyK38Z-112" edge="1">
          <mxGeometry relative="1" as="geometry">
            <mxPoint x="478" y="408" as="sourcePoint" />
            <mxPoint x="429" y="391" as="targetPoint" />
          </mxGeometry>
        </mxCell>
        <mxCell id="hM18RylwCYSOnlRyK38Z-126" value="" style="rounded=0;orthogonalLoop=1;jettySize=auto;html=1;fontFamily=Manrope;fontSize=12;fontColor=#FFFFFF;endArrow=oval;endFill=1;startArrow=oval;startFill=1;strokeColor=#98A2AE;endSize=3;startSize=3;exitX=0.5;exitY=0;exitDx=0;exitDy=0;" parent="qbExKh2GQzYHgT6TWYTY-1" source="hM18RylwCYSOnlRyK38Z-94" edge="1">
          <mxGeometry relative="1" as="geometry">
            <mxPoint x="460" y="372" as="sourcePoint" />
            <mxPoint x="440" y="349" as="targetPoint" />
          </mxGeometry>
        </mxCell>
        <mxCell id="hM18RylwCYSOnlRyK38Z-127" value="" style="rounded=0;orthogonalLoop=1;jettySize=auto;html=1;fontFamily=Manrope;fontSize=12;fontColor=#FFFFFF;endArrow=oval;endFill=1;startArrow=oval;startFill=1;strokeColor=#98A2AE;entryX=0.507;entryY=-0.126;entryDx=0;entryDy=0;exitX=0.5;exitY=1;exitDx=0;exitDy=0;endSize=3;startSize=3;entryPerimeter=0;" parent="qbExKh2GQzYHgT6TWYTY-1" source="hM18RylwCYSOnlRyK38Z-156" target="hM18RylwCYSOnlRyK38Z-132" edge="1">
          <mxGeometry relative="1" as="geometry">
            <mxPoint x="459.53553390593277" y="526.2144660940672" as="sourcePoint" />
            <mxPoint x="476.42999999999995" y="522.51" as="targetPoint" />
          </mxGeometry>
        </mxCell>
        <mxCell id="hM18RylwCYSOnlRyK38Z-128" value="" style="group" parent="qbExKh2GQzYHgT6TWYTY-1" vertex="1" connectable="0">
          <mxGeometry x="491" y="403" width="23" height="21" as="geometry" />
        </mxCell>
        <mxCell id="hM18RylwCYSOnlRyK38Z-129" value="" style="rounded=1;whiteSpace=wrap;html=1;arcSize=8;" parent="hM18RylwCYSOnlRyK38Z-128" vertex="1">
          <mxGeometry width="23" height="21" as="geometry" />
        </mxCell>
        <mxCell id="hM18RylwCYSOnlRyK38Z-130" value="" style="group;aspect=fixed;" parent="hM18RylwCYSOnlRyK38Z-128" vertex="1" connectable="0">
          <mxGeometry x="2.8899999999999864" y="2" width="17" height="17" as="geometry" />
        </mxCell>
        <mxCell id="hM18RylwCYSOnlRyK38Z-131" value="" style="group" parent="hM18RylwCYSOnlRyK38Z-130" vertex="1" connectable="0">
          <mxGeometry width="17" height="17" as="geometry" />
        </mxCell>
        <mxCell id="hM18RylwCYSOnlRyK38Z-132" value="" style="whiteSpace=wrap;html=1;aspect=fixed;fillColor=#001135;strokeColor=none;connectable=1;allowArrows=1;fontFamily=Manrope;fontSource=https%3A%2F%2Ffonts.googleapis.com%2Fcss%3Ffamily%3DManrope;" parent="hM18RylwCYSOnlRyK38Z-131" vertex="1">
          <mxGeometry width="17" height="17" as="geometry" />
        </mxCell>
        <mxCell id="hM18RylwCYSOnlRyK38Z-133" value="" style="endArrow=open;html=1;edgeStyle=orthogonalEdgeStyle;rounded=0;endFill=0;startSize=6;endSize=2;strokeColor=#FFFFFF;fontFamily=Manrope;fontSource=https%3A%2F%2Ffonts.googleapis.com%2Fcss%3Ffamily%3DManrope;strokeWidth=0.5;" parent="hM18RylwCYSOnlRyK38Z-131" edge="1">
          <mxGeometry width="28.333333333333336" height="28.333333333333336" as="geometry">
            <mxPoint x="1.6999999999999997" y="6.799999999999999" as="sourcePoint" />
            <mxPoint x="6.233333333333333" y="1.6999999999999997" as="targetPoint" />
            <Array as="points">
              <mxPoint x="6.233333333333333" y="6.799999999999999" />
            </Array>
          </mxGeometry>
        </mxCell>
        <mxCell id="hM18RylwCYSOnlRyK38Z-134" value="" style="endArrow=open;html=1;edgeStyle=orthogonalEdgeStyle;rounded=0;endFill=0;startSize=6;endSize=2;strokeColor=#FFFFFF;fontFamily=Manrope;fontSource=https%3A%2F%2Ffonts.googleapis.com%2Fcss%3Ffamily%3DManrope;strokeWidth=0.5;" parent="hM18RylwCYSOnlRyK38Z-131" edge="1">
          <mxGeometry width="28.333333333333336" height="28.333333333333336" as="geometry">
            <mxPoint x="6.233333333333333" y="15.299999999999999" as="sourcePoint" />
            <mxPoint x="1.6999999999999997" y="10.766666666666666" as="targetPoint" />
            <Array as="points">
              <mxPoint x="6.233333333333333" y="10.766666666666666" />
            </Array>
          </mxGeometry>
        </mxCell>
        <mxCell id="hM18RylwCYSOnlRyK38Z-135" value="" style="endArrow=open;html=1;edgeStyle=orthogonalEdgeStyle;rounded=0;endFill=0;startSize=6;endSize=2;strokeColor=#FFFFFF;fontFamily=Manrope;fontSource=https%3A%2F%2Ffonts.googleapis.com%2Fcss%3Ffamily%3DManrope;strokeWidth=0.5;" parent="hM18RylwCYSOnlRyK38Z-131" edge="1">
          <mxGeometry width="28.333333333333336" height="28.333333333333336" as="geometry">
            <mxPoint x="10.199999999999998" y="1.6999999999999997" as="sourcePoint" />
            <mxPoint x="15.299999999999999" y="6.799999999999999" as="targetPoint" />
            <Array as="points">
              <mxPoint x="10.199999999999998" y="6.799999999999999" />
            </Array>
          </mxGeometry>
        </mxCell>
        <mxCell id="hM18RylwCYSOnlRyK38Z-136" value="" style="endArrow=open;html=1;edgeStyle=orthogonalEdgeStyle;rounded=0;endFill=0;startSize=6;endSize=2;strokeColor=#FFFFFF;fontFamily=Manrope;fontSource=https%3A%2F%2Ffonts.googleapis.com%2Fcss%3Ffamily%3DManrope;strokeWidth=0.5;" parent="hM18RylwCYSOnlRyK38Z-131" edge="1">
          <mxGeometry width="28.333333333333336" height="28.333333333333336" as="geometry">
            <mxPoint x="15.299999999999999" y="10.766666666666666" as="sourcePoint" />
            <mxPoint x="10.199999999999998" y="15.299999999999999" as="targetPoint" />
            <Array as="points">
              <mxPoint x="10.199999999999998" y="10.766666666666666" />
            </Array>
          </mxGeometry>
        </mxCell>
        <mxCell id="hM18RylwCYSOnlRyK38Z-137" value="" style="group" parent="qbExKh2GQzYHgT6TWYTY-1" vertex="1" connectable="0">
          <mxGeometry x="520.87" y="403" width="23" height="21" as="geometry" />
        </mxCell>
        <mxCell id="hM18RylwCYSOnlRyK38Z-138" value="" style="rounded=1;whiteSpace=wrap;html=1;arcSize=8;" parent="hM18RylwCYSOnlRyK38Z-137" vertex="1">
          <mxGeometry width="23" height="21" as="geometry" />
        </mxCell>
        <mxCell id="hM18RylwCYSOnlRyK38Z-139" value="" style="group;aspect=fixed;" parent="hM18RylwCYSOnlRyK38Z-137" vertex="1" connectable="0">
          <mxGeometry x="2.8899999999999864" y="2" width="17" height="17" as="geometry" />
        </mxCell>
        <mxCell id="hM18RylwCYSOnlRyK38Z-140" value="" style="group" parent="hM18RylwCYSOnlRyK38Z-139" vertex="1" connectable="0">
          <mxGeometry width="17" height="17" as="geometry" />
        </mxCell>
        <mxCell id="hM18RylwCYSOnlRyK38Z-141" value="" style="whiteSpace=wrap;html=1;aspect=fixed;fillColor=#001135;strokeColor=none;connectable=1;allowArrows=1;fontFamily=Manrope;fontSource=https%3A%2F%2Ffonts.googleapis.com%2Fcss%3Ffamily%3DManrope;" parent="hM18RylwCYSOnlRyK38Z-140" vertex="1">
          <mxGeometry width="17" height="17" as="geometry" />
        </mxCell>
        <mxCell id="hM18RylwCYSOnlRyK38Z-142" value="" style="endArrow=open;html=1;edgeStyle=orthogonalEdgeStyle;rounded=0;endFill=0;startSize=6;endSize=2;strokeColor=#FFFFFF;fontFamily=Manrope;fontSource=https%3A%2F%2Ffonts.googleapis.com%2Fcss%3Ffamily%3DManrope;strokeWidth=0.5;" parent="hM18RylwCYSOnlRyK38Z-140" edge="1">
          <mxGeometry width="28.333333333333336" height="28.333333333333336" as="geometry">
            <mxPoint x="1.6999999999999997" y="6.799999999999999" as="sourcePoint" />
            <mxPoint x="6.233333333333333" y="1.6999999999999997" as="targetPoint" />
            <Array as="points">
              <mxPoint x="6.233333333333333" y="6.799999999999999" />
            </Array>
          </mxGeometry>
        </mxCell>
        <mxCell id="hM18RylwCYSOnlRyK38Z-143" value="" style="endArrow=open;html=1;edgeStyle=orthogonalEdgeStyle;rounded=0;endFill=0;startSize=6;endSize=2;strokeColor=#FFFFFF;fontFamily=Manrope;fontSource=https%3A%2F%2Ffonts.googleapis.com%2Fcss%3Ffamily%3DManrope;strokeWidth=0.5;" parent="hM18RylwCYSOnlRyK38Z-140" edge="1">
          <mxGeometry width="28.333333333333336" height="28.333333333333336" as="geometry">
            <mxPoint x="6.233333333333333" y="15.299999999999999" as="sourcePoint" />
            <mxPoint x="1.6999999999999997" y="10.766666666666666" as="targetPoint" />
            <Array as="points">
              <mxPoint x="6.233333333333333" y="10.766666666666666" />
            </Array>
          </mxGeometry>
        </mxCell>
        <mxCell id="hM18RylwCYSOnlRyK38Z-144" value="" style="endArrow=open;html=1;edgeStyle=orthogonalEdgeStyle;rounded=0;endFill=0;startSize=6;endSize=2;strokeColor=#FFFFFF;fontFamily=Manrope;fontSource=https%3A%2F%2Ffonts.googleapis.com%2Fcss%3Ffamily%3DManrope;strokeWidth=0.5;" parent="hM18RylwCYSOnlRyK38Z-140" edge="1">
          <mxGeometry width="28.333333333333336" height="28.333333333333336" as="geometry">
            <mxPoint x="10.199999999999998" y="1.6999999999999997" as="sourcePoint" />
            <mxPoint x="15.299999999999999" y="6.799999999999999" as="targetPoint" />
            <Array as="points">
              <mxPoint x="10.199999999999998" y="6.799999999999999" />
            </Array>
          </mxGeometry>
        </mxCell>
        <mxCell id="hM18RylwCYSOnlRyK38Z-145" value="" style="endArrow=open;html=1;edgeStyle=orthogonalEdgeStyle;rounded=0;endFill=0;startSize=6;endSize=2;strokeColor=#FFFFFF;fontFamily=Manrope;fontSource=https%3A%2F%2Ffonts.googleapis.com%2Fcss%3Ffamily%3DManrope;strokeWidth=0.5;" parent="hM18RylwCYSOnlRyK38Z-140" edge="1">
          <mxGeometry width="28.333333333333336" height="28.333333333333336" as="geometry">
            <mxPoint x="15.299999999999999" y="10.766666666666666" as="sourcePoint" />
            <mxPoint x="10.199999999999998" y="15.299999999999999" as="targetPoint" />
            <Array as="points">
              <mxPoint x="10.199999999999998" y="10.766666666666666" />
            </Array>
          </mxGeometry>
        </mxCell>
        <mxCell id="hM18RylwCYSOnlRyK38Z-146" value="" style="group" parent="qbExKh2GQzYHgT6TWYTY-1" vertex="1" connectable="0">
          <mxGeometry x="552.5" y="403" width="23" height="21" as="geometry" />
        </mxCell>
        <mxCell id="hM18RylwCYSOnlRyK38Z-147" value="" style="rounded=1;whiteSpace=wrap;html=1;arcSize=8;" parent="hM18RylwCYSOnlRyK38Z-146" vertex="1">
          <mxGeometry width="23" height="21" as="geometry" />
        </mxCell>
        <mxCell id="hM18RylwCYSOnlRyK38Z-148" value="" style="group;aspect=fixed;" parent="hM18RylwCYSOnlRyK38Z-146" vertex="1" connectable="0">
          <mxGeometry x="2.8899999999999864" y="2" width="17" height="17" as="geometry" />
        </mxCell>
        <mxCell id="hM18RylwCYSOnlRyK38Z-149" value="" style="group" parent="hM18RylwCYSOnlRyK38Z-148" vertex="1" connectable="0">
          <mxGeometry width="17" height="17" as="geometry" />
        </mxCell>
        <mxCell id="hM18RylwCYSOnlRyK38Z-150" value="" style="whiteSpace=wrap;html=1;aspect=fixed;fillColor=#001135;strokeColor=none;connectable=1;allowArrows=1;fontFamily=Manrope;fontSource=https%3A%2F%2Ffonts.googleapis.com%2Fcss%3Ffamily%3DManrope;" parent="hM18RylwCYSOnlRyK38Z-149" vertex="1">
          <mxGeometry width="17" height="17" as="geometry" />
        </mxCell>
        <mxCell id="hM18RylwCYSOnlRyK38Z-151" value="" style="endArrow=open;html=1;edgeStyle=orthogonalEdgeStyle;rounded=0;endFill=0;startSize=6;endSize=2;strokeColor=#FFFFFF;fontFamily=Manrope;fontSource=https%3A%2F%2Ffonts.googleapis.com%2Fcss%3Ffamily%3DManrope;strokeWidth=0.5;" parent="hM18RylwCYSOnlRyK38Z-149" edge="1">
          <mxGeometry width="28.333333333333336" height="28.333333333333336" as="geometry">
            <mxPoint x="1.6999999999999997" y="6.799999999999999" as="sourcePoint" />
            <mxPoint x="6.233333333333333" y="1.6999999999999997" as="targetPoint" />
            <Array as="points">
              <mxPoint x="6.233333333333333" y="6.799999999999999" />
            </Array>
          </mxGeometry>
        </mxCell>
        <mxCell id="hM18RylwCYSOnlRyK38Z-152" value="" style="endArrow=open;html=1;edgeStyle=orthogonalEdgeStyle;rounded=0;endFill=0;startSize=6;endSize=2;strokeColor=#FFFFFF;fontFamily=Manrope;fontSource=https%3A%2F%2Ffonts.googleapis.com%2Fcss%3Ffamily%3DManrope;strokeWidth=0.5;" parent="hM18RylwCYSOnlRyK38Z-149" edge="1">
          <mxGeometry width="28.333333333333336" height="28.333333333333336" as="geometry">
            <mxPoint x="6.233333333333333" y="15.299999999999999" as="sourcePoint" />
            <mxPoint x="1.6999999999999997" y="10.766666666666666" as="targetPoint" />
            <Array as="points">
              <mxPoint x="6.233333333333333" y="10.766666666666666" />
            </Array>
          </mxGeometry>
        </mxCell>
        <mxCell id="hM18RylwCYSOnlRyK38Z-153" value="" style="endArrow=open;html=1;edgeStyle=orthogonalEdgeStyle;rounded=0;endFill=0;startSize=6;endSize=2;strokeColor=#FFFFFF;fontFamily=Manrope;fontSource=https%3A%2F%2Ffonts.googleapis.com%2Fcss%3Ffamily%3DManrope;strokeWidth=0.5;" parent="hM18RylwCYSOnlRyK38Z-149" edge="1">
          <mxGeometry width="28.333333333333336" height="28.333333333333336" as="geometry">
            <mxPoint x="10.199999999999998" y="1.6999999999999997" as="sourcePoint" />
            <mxPoint x="15.299999999999999" y="6.799999999999999" as="targetPoint" />
            <Array as="points">
              <mxPoint x="10.199999999999998" y="6.799999999999999" />
            </Array>
          </mxGeometry>
        </mxCell>
        <mxCell id="hM18RylwCYSOnlRyK38Z-154" value="" style="endArrow=open;html=1;edgeStyle=orthogonalEdgeStyle;rounded=0;endFill=0;startSize=6;endSize=2;strokeColor=#FFFFFF;fontFamily=Manrope;fontSource=https%3A%2F%2Ffonts.googleapis.com%2Fcss%3Ffamily%3DManrope;strokeWidth=0.5;" parent="hM18RylwCYSOnlRyK38Z-149" edge="1">
          <mxGeometry width="28.333333333333336" height="28.333333333333336" as="geometry">
            <mxPoint x="15.299999999999999" y="10.766666666666666" as="sourcePoint" />
            <mxPoint x="10.199999999999998" y="15.299999999999999" as="targetPoint" />
            <Array as="points">
              <mxPoint x="10.199999999999998" y="10.766666666666666" />
            </Array>
          </mxGeometry>
        </mxCell>
        <mxCell id="hM18RylwCYSOnlRyK38Z-155" value="" style="group" parent="qbExKh2GQzYHgT6TWYTY-1" vertex="1" connectable="0">
          <mxGeometry x="503" y="365" width="23" height="21" as="geometry" />
        </mxCell>
        <mxCell id="hM18RylwCYSOnlRyK38Z-156" value="" style="rounded=1;whiteSpace=wrap;html=1;arcSize=8;" parent="hM18RylwCYSOnlRyK38Z-155" vertex="1">
          <mxGeometry width="23" height="21" as="geometry" />
        </mxCell>
        <mxCell id="hM18RylwCYSOnlRyK38Z-157" value="" style="group;aspect=fixed;" parent="hM18RylwCYSOnlRyK38Z-155" vertex="1" connectable="0">
          <mxGeometry x="2.8899999999999864" y="2" width="17" height="17" as="geometry" />
        </mxCell>
        <mxCell id="hM18RylwCYSOnlRyK38Z-158" value="" style="group" parent="hM18RylwCYSOnlRyK38Z-157" vertex="1" connectable="0">
          <mxGeometry width="17" height="17" as="geometry" />
        </mxCell>
        <mxCell id="hM18RylwCYSOnlRyK38Z-159" value="" style="whiteSpace=wrap;html=1;aspect=fixed;fillColor=#001135;strokeColor=none;connectable=1;allowArrows=1;fontFamily=Manrope;fontSource=https%3A%2F%2Ffonts.googleapis.com%2Fcss%3Ffamily%3DManrope;" parent="hM18RylwCYSOnlRyK38Z-158" vertex="1">
          <mxGeometry width="17" height="17" as="geometry" />
        </mxCell>
        <mxCell id="hM18RylwCYSOnlRyK38Z-160" value="" style="endArrow=open;html=1;edgeStyle=orthogonalEdgeStyle;rounded=0;endFill=0;startSize=6;endSize=2;strokeColor=#FFFFFF;fontFamily=Manrope;fontSource=https%3A%2F%2Ffonts.googleapis.com%2Fcss%3Ffamily%3DManrope;strokeWidth=0.5;" parent="hM18RylwCYSOnlRyK38Z-158" edge="1">
          <mxGeometry width="28.333333333333336" height="28.333333333333336" as="geometry">
            <mxPoint x="1.6999999999999997" y="6.799999999999999" as="sourcePoint" />
            <mxPoint x="6.233333333333333" y="1.6999999999999997" as="targetPoint" />
            <Array as="points">
              <mxPoint x="6.233333333333333" y="6.799999999999999" />
            </Array>
          </mxGeometry>
        </mxCell>
        <mxCell id="hM18RylwCYSOnlRyK38Z-161" value="" style="endArrow=open;html=1;edgeStyle=orthogonalEdgeStyle;rounded=0;endFill=0;startSize=6;endSize=2;strokeColor=#FFFFFF;fontFamily=Manrope;fontSource=https%3A%2F%2Ffonts.googleapis.com%2Fcss%3Ffamily%3DManrope;strokeWidth=0.5;" parent="hM18RylwCYSOnlRyK38Z-158" edge="1">
          <mxGeometry width="28.333333333333336" height="28.333333333333336" as="geometry">
            <mxPoint x="6.233333333333333" y="15.299999999999999" as="sourcePoint" />
            <mxPoint x="1.6999999999999997" y="10.766666666666666" as="targetPoint" />
            <Array as="points">
              <mxPoint x="6.233333333333333" y="10.766666666666666" />
            </Array>
          </mxGeometry>
        </mxCell>
        <mxCell id="hM18RylwCYSOnlRyK38Z-162" value="" style="endArrow=open;html=1;edgeStyle=orthogonalEdgeStyle;rounded=0;endFill=0;startSize=6;endSize=2;strokeColor=#FFFFFF;fontFamily=Manrope;fontSource=https%3A%2F%2Ffonts.googleapis.com%2Fcss%3Ffamily%3DManrope;strokeWidth=0.5;" parent="hM18RylwCYSOnlRyK38Z-158" edge="1">
          <mxGeometry width="28.333333333333336" height="28.333333333333336" as="geometry">
            <mxPoint x="10.199999999999998" y="1.6999999999999997" as="sourcePoint" />
            <mxPoint x="15.299999999999999" y="6.799999999999999" as="targetPoint" />
            <Array as="points">
              <mxPoint x="10.199999999999998" y="6.799999999999999" />
            </Array>
          </mxGeometry>
        </mxCell>
        <mxCell id="hM18RylwCYSOnlRyK38Z-163" value="" style="endArrow=open;html=1;edgeStyle=orthogonalEdgeStyle;rounded=0;endFill=0;startSize=6;endSize=2;strokeColor=#FFFFFF;fontFamily=Manrope;fontSource=https%3A%2F%2Ffonts.googleapis.com%2Fcss%3Ffamily%3DManrope;strokeWidth=0.5;" parent="hM18RylwCYSOnlRyK38Z-158" edge="1">
          <mxGeometry width="28.333333333333336" height="28.333333333333336" as="geometry">
            <mxPoint x="15.299999999999999" y="10.766666666666666" as="sourcePoint" />
            <mxPoint x="10.199999999999998" y="15.299999999999999" as="targetPoint" />
            <Array as="points">
              <mxPoint x="10.199999999999998" y="10.766666666666666" />
            </Array>
          </mxGeometry>
        </mxCell>
        <mxCell id="hM18RylwCYSOnlRyK38Z-164" value="" style="group" parent="qbExKh2GQzYHgT6TWYTY-1" vertex="1" connectable="0">
          <mxGeometry x="535" y="365" width="23" height="21" as="geometry" />
        </mxCell>
        <mxCell id="hM18RylwCYSOnlRyK38Z-165" value="" style="rounded=1;whiteSpace=wrap;html=1;arcSize=8;" parent="hM18RylwCYSOnlRyK38Z-164" vertex="1">
          <mxGeometry width="23" height="21" as="geometry" />
        </mxCell>
        <mxCell id="hM18RylwCYSOnlRyK38Z-166" value="" style="group;aspect=fixed;" parent="hM18RylwCYSOnlRyK38Z-164" vertex="1" connectable="0">
          <mxGeometry x="2.8899999999999864" y="2" width="17" height="17" as="geometry" />
        </mxCell>
        <mxCell id="hM18RylwCYSOnlRyK38Z-167" value="" style="group" parent="hM18RylwCYSOnlRyK38Z-166" vertex="1" connectable="0">
          <mxGeometry width="17" height="17" as="geometry" />
        </mxCell>
        <mxCell id="hM18RylwCYSOnlRyK38Z-168" value="" style="whiteSpace=wrap;html=1;aspect=fixed;fillColor=#001135;strokeColor=none;connectable=1;allowArrows=1;fontFamily=Manrope;fontSource=https%3A%2F%2Ffonts.googleapis.com%2Fcss%3Ffamily%3DManrope;" parent="hM18RylwCYSOnlRyK38Z-167" vertex="1">
          <mxGeometry width="17" height="17" as="geometry" />
        </mxCell>
        <mxCell id="hM18RylwCYSOnlRyK38Z-169" value="" style="endArrow=open;html=1;edgeStyle=orthogonalEdgeStyle;rounded=0;endFill=0;startSize=6;endSize=2;strokeColor=#FFFFFF;fontFamily=Manrope;fontSource=https%3A%2F%2Ffonts.googleapis.com%2Fcss%3Ffamily%3DManrope;strokeWidth=0.5;" parent="hM18RylwCYSOnlRyK38Z-167" edge="1">
          <mxGeometry width="28.333333333333336" height="28.333333333333336" as="geometry">
            <mxPoint x="1.6999999999999997" y="6.799999999999999" as="sourcePoint" />
            <mxPoint x="6.233333333333333" y="1.6999999999999997" as="targetPoint" />
            <Array as="points">
              <mxPoint x="6.233333333333333" y="6.799999999999999" />
            </Array>
          </mxGeometry>
        </mxCell>
        <mxCell id="hM18RylwCYSOnlRyK38Z-170" value="" style="endArrow=open;html=1;edgeStyle=orthogonalEdgeStyle;rounded=0;endFill=0;startSize=6;endSize=2;strokeColor=#FFFFFF;fontFamily=Manrope;fontSource=https%3A%2F%2Ffonts.googleapis.com%2Fcss%3Ffamily%3DManrope;strokeWidth=0.5;" parent="hM18RylwCYSOnlRyK38Z-167" edge="1">
          <mxGeometry width="28.333333333333336" height="28.333333333333336" as="geometry">
            <mxPoint x="6.233333333333333" y="15.299999999999999" as="sourcePoint" />
            <mxPoint x="1.6999999999999997" y="10.766666666666666" as="targetPoint" />
            <Array as="points">
              <mxPoint x="6.233333333333333" y="10.766666666666666" />
            </Array>
          </mxGeometry>
        </mxCell>
        <mxCell id="hM18RylwCYSOnlRyK38Z-171" value="" style="endArrow=open;html=1;edgeStyle=orthogonalEdgeStyle;rounded=0;endFill=0;startSize=6;endSize=2;strokeColor=#FFFFFF;fontFamily=Manrope;fontSource=https%3A%2F%2Ffonts.googleapis.com%2Fcss%3Ffamily%3DManrope;strokeWidth=0.5;" parent="hM18RylwCYSOnlRyK38Z-167" edge="1">
          <mxGeometry width="28.333333333333336" height="28.333333333333336" as="geometry">
            <mxPoint x="10.199999999999998" y="1.6999999999999997" as="sourcePoint" />
            <mxPoint x="15.299999999999999" y="6.799999999999999" as="targetPoint" />
            <Array as="points">
              <mxPoint x="10.199999999999998" y="6.799999999999999" />
            </Array>
          </mxGeometry>
        </mxCell>
        <mxCell id="hM18RylwCYSOnlRyK38Z-172" value="" style="endArrow=open;html=1;edgeStyle=orthogonalEdgeStyle;rounded=0;endFill=0;startSize=6;endSize=2;strokeColor=#FFFFFF;fontFamily=Manrope;fontSource=https%3A%2F%2Ffonts.googleapis.com%2Fcss%3Ffamily%3DManrope;strokeWidth=0.5;" parent="hM18RylwCYSOnlRyK38Z-167" edge="1">
          <mxGeometry width="28.333333333333336" height="28.333333333333336" as="geometry">
            <mxPoint x="15.299999999999999" y="10.766666666666666" as="sourcePoint" />
            <mxPoint x="10.199999999999998" y="15.299999999999999" as="targetPoint" />
            <Array as="points">
              <mxPoint x="10.199999999999998" y="10.766666666666666" />
            </Array>
          </mxGeometry>
        </mxCell>
        <mxCell id="hM18RylwCYSOnlRyK38Z-173" value="" style="group" parent="qbExKh2GQzYHgT6TWYTY-1" vertex="1" connectable="0">
          <mxGeometry x="519" y="328" width="23" height="21" as="geometry" />
        </mxCell>
        <mxCell id="hM18RylwCYSOnlRyK38Z-174" value="" style="rounded=1;whiteSpace=wrap;html=1;arcSize=8;" parent="hM18RylwCYSOnlRyK38Z-173" vertex="1">
          <mxGeometry width="23" height="21" as="geometry" />
        </mxCell>
        <mxCell id="hM18RylwCYSOnlRyK38Z-175" value="" style="group;aspect=fixed;" parent="hM18RylwCYSOnlRyK38Z-173" vertex="1" connectable="0">
          <mxGeometry x="2.8899999999999864" y="2" width="17" height="17" as="geometry" />
        </mxCell>
        <mxCell id="hM18RylwCYSOnlRyK38Z-176" value="" style="group" parent="hM18RylwCYSOnlRyK38Z-175" vertex="1" connectable="0">
          <mxGeometry width="17" height="17" as="geometry" />
        </mxCell>
        <mxCell id="hM18RylwCYSOnlRyK38Z-177" value="" style="whiteSpace=wrap;html=1;aspect=fixed;fillColor=#001135;strokeColor=none;connectable=1;allowArrows=1;fontFamily=Manrope;fontSource=https%3A%2F%2Ffonts.googleapis.com%2Fcss%3Ffamily%3DManrope;" parent="hM18RylwCYSOnlRyK38Z-176" vertex="1">
          <mxGeometry width="17" height="17" as="geometry" />
        </mxCell>
        <mxCell id="hM18RylwCYSOnlRyK38Z-178" value="" style="endArrow=open;html=1;edgeStyle=orthogonalEdgeStyle;rounded=0;endFill=0;startSize=6;endSize=2;strokeColor=#FFFFFF;fontFamily=Manrope;fontSource=https%3A%2F%2Ffonts.googleapis.com%2Fcss%3Ffamily%3DManrope;strokeWidth=0.5;" parent="hM18RylwCYSOnlRyK38Z-176" edge="1">
          <mxGeometry width="28.333333333333336" height="28.333333333333336" as="geometry">
            <mxPoint x="1.6999999999999997" y="6.799999999999999" as="sourcePoint" />
            <mxPoint x="6.233333333333333" y="1.6999999999999997" as="targetPoint" />
            <Array as="points">
              <mxPoint x="6.233333333333333" y="6.799999999999999" />
            </Array>
          </mxGeometry>
        </mxCell>
        <mxCell id="hM18RylwCYSOnlRyK38Z-179" value="" style="endArrow=open;html=1;edgeStyle=orthogonalEdgeStyle;rounded=0;endFill=0;startSize=6;endSize=2;strokeColor=#FFFFFF;fontFamily=Manrope;fontSource=https%3A%2F%2Ffonts.googleapis.com%2Fcss%3Ffamily%3DManrope;strokeWidth=0.5;" parent="hM18RylwCYSOnlRyK38Z-176" edge="1">
          <mxGeometry width="28.333333333333336" height="28.333333333333336" as="geometry">
            <mxPoint x="6.233333333333333" y="15.299999999999999" as="sourcePoint" />
            <mxPoint x="1.6999999999999997" y="10.766666666666666" as="targetPoint" />
            <Array as="points">
              <mxPoint x="6.233333333333333" y="10.766666666666666" />
            </Array>
          </mxGeometry>
        </mxCell>
        <mxCell id="hM18RylwCYSOnlRyK38Z-180" value="" style="endArrow=open;html=1;edgeStyle=orthogonalEdgeStyle;rounded=0;endFill=0;startSize=6;endSize=2;strokeColor=#FFFFFF;fontFamily=Manrope;fontSource=https%3A%2F%2Ffonts.googleapis.com%2Fcss%3Ffamily%3DManrope;strokeWidth=0.5;" parent="hM18RylwCYSOnlRyK38Z-176" edge="1">
          <mxGeometry width="28.333333333333336" height="28.333333333333336" as="geometry">
            <mxPoint x="10.199999999999998" y="1.6999999999999997" as="sourcePoint" />
            <mxPoint x="15.299999999999999" y="6.799999999999999" as="targetPoint" />
            <Array as="points">
              <mxPoint x="10.199999999999998" y="6.799999999999999" />
            </Array>
          </mxGeometry>
        </mxCell>
        <mxCell id="hM18RylwCYSOnlRyK38Z-181" value="" style="endArrow=open;html=1;edgeStyle=orthogonalEdgeStyle;rounded=0;endFill=0;startSize=6;endSize=2;strokeColor=#FFFFFF;fontFamily=Manrope;fontSource=https%3A%2F%2Ffonts.googleapis.com%2Fcss%3Ffamily%3DManrope;strokeWidth=0.5;" parent="hM18RylwCYSOnlRyK38Z-176" edge="1">
          <mxGeometry width="28.333333333333336" height="28.333333333333336" as="geometry">
            <mxPoint x="15.299999999999999" y="10.766666666666666" as="sourcePoint" />
            <mxPoint x="10.199999999999998" y="15.299999999999999" as="targetPoint" />
            <Array as="points">
              <mxPoint x="10.199999999999998" y="10.766666666666666" />
            </Array>
          </mxGeometry>
        </mxCell>
        <mxCell id="hM18RylwCYSOnlRyK38Z-182" value="" style="rounded=0;orthogonalLoop=1;jettySize=auto;html=1;fontFamily=Manrope;fontSize=12;fontColor=#FFFFFF;endArrow=oval;endFill=1;startArrow=oval;startFill=1;strokeColor=#98A2AE;entryX=0.478;entryY=-0.141;entryDx=0;entryDy=0;exitX=0.5;exitY=1;exitDx=0;exitDy=0;endSize=3;startSize=3;entryPerimeter=0;" parent="qbExKh2GQzYHgT6TWYTY-1" source="hM18RylwCYSOnlRyK38Z-165" target="hM18RylwCYSOnlRyK38Z-132" edge="1">
          <mxGeometry relative="1" as="geometry">
            <mxPoint x="520" y="391" as="sourcePoint" />
            <mxPoint x="508" y="408" as="targetPoint" />
          </mxGeometry>
        </mxCell>
        <mxCell id="hM18RylwCYSOnlRyK38Z-183" value="" style="rounded=0;orthogonalLoop=1;jettySize=auto;html=1;fontFamily=Manrope;fontSize=12;fontColor=#FFFFFF;endArrow=oval;endFill=1;startArrow=oval;startFill=1;strokeColor=#98A2AE;entryX=0.5;entryY=0;entryDx=0;entryDy=0;exitX=0.5;exitY=1;exitDx=0;exitDy=0;endSize=3;startSize=3;" parent="qbExKh2GQzYHgT6TWYTY-1" source="hM18RylwCYSOnlRyK38Z-156" target="hM18RylwCYSOnlRyK38Z-138" edge="1">
          <mxGeometry relative="1" as="geometry">
            <mxPoint x="552" y="391" as="sourcePoint" />
            <mxPoint x="507" y="408" as="targetPoint" />
          </mxGeometry>
        </mxCell>
        <mxCell id="hM18RylwCYSOnlRyK38Z-184" value="" style="rounded=0;orthogonalLoop=1;jettySize=auto;html=1;fontFamily=Manrope;fontSize=12;fontColor=#FFFFFF;endArrow=oval;endFill=1;startArrow=oval;startFill=1;strokeColor=#98A2AE;entryX=0.508;entryY=1.11;entryDx=0;entryDy=0;endSize=3;startSize=3;entryPerimeter=0;" parent="qbExKh2GQzYHgT6TWYTY-1" target="hM18RylwCYSOnlRyK38Z-168" edge="1">
          <mxGeometry relative="1" as="geometry">
            <mxPoint x="532" y="403" as="sourcePoint" />
            <mxPoint x="537" y="408" as="targetPoint" />
          </mxGeometry>
        </mxCell>
        <mxCell id="hM18RylwCYSOnlRyK38Z-185" value="" style="rounded=0;orthogonalLoop=1;jettySize=auto;html=1;fontFamily=Manrope;fontSize=12;fontColor=#FFFFFF;endArrow=oval;endFill=1;startArrow=oval;startFill=1;strokeColor=#98A2AE;entryX=0.506;entryY=0.965;entryDx=0;entryDy=0;endSize=3;startSize=3;entryPerimeter=0;exitX=0.5;exitY=0;exitDx=0;exitDy=0;" parent="qbExKh2GQzYHgT6TWYTY-1" source="hM18RylwCYSOnlRyK38Z-147" target="hM18RylwCYSOnlRyK38Z-165" edge="1">
          <mxGeometry relative="1" as="geometry">
            <mxPoint x="537" y="408" as="sourcePoint" />
            <mxPoint x="552" y="391" as="targetPoint" />
          </mxGeometry>
        </mxCell>
        <mxCell id="hM18RylwCYSOnlRyK38Z-186" value="" style="rounded=0;orthogonalLoop=1;jettySize=auto;html=1;fontFamily=Manrope;fontSize=12;fontColor=#FFFFFF;endArrow=oval;endFill=1;startArrow=oval;startFill=1;strokeColor=#98A2AE;endSize=3;startSize=3;exitX=0.48;exitY=-0.117;exitDx=0;exitDy=0;exitPerimeter=0;" parent="qbExKh2GQzYHgT6TWYTY-1" source="hM18RylwCYSOnlRyK38Z-150" edge="1">
          <mxGeometry relative="1" as="geometry">
            <mxPoint x="569" y="408" as="sourcePoint" />
            <mxPoint x="515" y="386" as="targetPoint" />
          </mxGeometry>
        </mxCell>
        <mxCell id="hM18RylwCYSOnlRyK38Z-187" value="" style="rounded=0;orthogonalLoop=1;jettySize=auto;html=1;fontFamily=Manrope;fontSize=12;fontColor=#FFFFFF;endArrow=oval;endFill=1;startArrow=oval;startFill=1;strokeColor=#98A2AE;endSize=3;startSize=3;exitX=0.5;exitY=0;exitDx=0;exitDy=0;entryX=0.5;entryY=1;entryDx=0;entryDy=0;" parent="qbExKh2GQzYHgT6TWYTY-1" source="hM18RylwCYSOnlRyK38Z-168" target="hM18RylwCYSOnlRyK38Z-174" edge="1">
          <mxGeometry relative="1" as="geometry">
            <mxPoint x="569" y="408" as="sourcePoint" />
            <mxPoint x="520" y="391" as="targetPoint" />
          </mxGeometry>
        </mxCell>
        <mxCell id="hM18RylwCYSOnlRyK38Z-188" value="" style="rounded=0;orthogonalLoop=1;jettySize=auto;html=1;fontFamily=Manrope;fontSize=12;fontColor=#FFFFFF;endArrow=oval;endFill=1;startArrow=oval;startFill=1;strokeColor=#98A2AE;endSize=3;startSize=3;exitX=0.5;exitY=0;exitDx=0;exitDy=0;" parent="qbExKh2GQzYHgT6TWYTY-1" source="hM18RylwCYSOnlRyK38Z-156" edge="1">
          <mxGeometry relative="1" as="geometry">
            <mxPoint x="551" y="372" as="sourcePoint" />
            <mxPoint x="531" y="349" as="targetPoint" />
          </mxGeometry>
        </mxCell>
        <mxCell id="hM18RylwCYSOnlRyK38Z-189" value="" style="group" parent="qbExKh2GQzYHgT6TWYTY-1" vertex="1" connectable="0">
          <mxGeometry x="473" y="312" width="23" height="21" as="geometry" />
        </mxCell>
        <mxCell id="hM18RylwCYSOnlRyK38Z-190" value="" style="rounded=1;whiteSpace=wrap;html=1;arcSize=8;" parent="hM18RylwCYSOnlRyK38Z-189" vertex="1">
          <mxGeometry width="23" height="21" as="geometry" />
        </mxCell>
        <mxCell id="hM18RylwCYSOnlRyK38Z-191" value="" style="group;aspect=fixed;" parent="hM18RylwCYSOnlRyK38Z-189" vertex="1" connectable="0">
          <mxGeometry x="2.8899999999999864" y="2" width="17" height="17" as="geometry" />
        </mxCell>
        <mxCell id="hM18RylwCYSOnlRyK38Z-192" value="" style="group" parent="hM18RylwCYSOnlRyK38Z-191" vertex="1" connectable="0">
          <mxGeometry width="17" height="17" as="geometry" />
        </mxCell>
        <mxCell id="hM18RylwCYSOnlRyK38Z-193" value="" style="whiteSpace=wrap;html=1;aspect=fixed;fillColor=#001135;strokeColor=none;connectable=1;allowArrows=1;fontFamily=Manrope;fontSource=https%3A%2F%2Ffonts.googleapis.com%2Fcss%3Ffamily%3DManrope;" parent="hM18RylwCYSOnlRyK38Z-192" vertex="1">
          <mxGeometry width="17" height="17" as="geometry" />
        </mxCell>
        <mxCell id="hM18RylwCYSOnlRyK38Z-194" value="" style="endArrow=open;html=1;edgeStyle=orthogonalEdgeStyle;rounded=0;endFill=0;startSize=6;endSize=2;strokeColor=#FFFFFF;fontFamily=Manrope;fontSource=https%3A%2F%2Ffonts.googleapis.com%2Fcss%3Ffamily%3DManrope;strokeWidth=0.5;" parent="hM18RylwCYSOnlRyK38Z-192" edge="1">
          <mxGeometry width="28.333333333333336" height="28.333333333333336" as="geometry">
            <mxPoint x="1.6999999999999997" y="6.799999999999999" as="sourcePoint" />
            <mxPoint x="6.233333333333333" y="1.6999999999999997" as="targetPoint" />
            <Array as="points">
              <mxPoint x="6.233333333333333" y="6.799999999999999" />
            </Array>
          </mxGeometry>
        </mxCell>
        <mxCell id="hM18RylwCYSOnlRyK38Z-195" value="" style="endArrow=open;html=1;edgeStyle=orthogonalEdgeStyle;rounded=0;endFill=0;startSize=6;endSize=2;strokeColor=#FFFFFF;fontFamily=Manrope;fontSource=https%3A%2F%2Ffonts.googleapis.com%2Fcss%3Ffamily%3DManrope;strokeWidth=0.5;" parent="hM18RylwCYSOnlRyK38Z-192" edge="1">
          <mxGeometry width="28.333333333333336" height="28.333333333333336" as="geometry">
            <mxPoint x="6.233333333333333" y="15.299999999999999" as="sourcePoint" />
            <mxPoint x="1.6999999999999997" y="10.766666666666666" as="targetPoint" />
            <Array as="points">
              <mxPoint x="6.233333333333333" y="10.766666666666666" />
            </Array>
          </mxGeometry>
        </mxCell>
        <mxCell id="hM18RylwCYSOnlRyK38Z-196" value="" style="endArrow=open;html=1;edgeStyle=orthogonalEdgeStyle;rounded=0;endFill=0;startSize=6;endSize=2;strokeColor=#FFFFFF;fontFamily=Manrope;fontSource=https%3A%2F%2Ffonts.googleapis.com%2Fcss%3Ffamily%3DManrope;strokeWidth=0.5;" parent="hM18RylwCYSOnlRyK38Z-192" edge="1">
          <mxGeometry width="28.333333333333336" height="28.333333333333336" as="geometry">
            <mxPoint x="10.199999999999998" y="1.6999999999999997" as="sourcePoint" />
            <mxPoint x="15.299999999999999" y="6.799999999999999" as="targetPoint" />
            <Array as="points">
              <mxPoint x="10.199999999999998" y="6.799999999999999" />
            </Array>
          </mxGeometry>
        </mxCell>
        <mxCell id="hM18RylwCYSOnlRyK38Z-197" value="" style="endArrow=open;html=1;edgeStyle=orthogonalEdgeStyle;rounded=0;endFill=0;startSize=6;endSize=2;strokeColor=#FFFFFF;fontFamily=Manrope;fontSource=https%3A%2F%2Ffonts.googleapis.com%2Fcss%3Ffamily%3DManrope;strokeWidth=0.5;" parent="hM18RylwCYSOnlRyK38Z-192" edge="1">
          <mxGeometry width="28.333333333333336" height="28.333333333333336" as="geometry">
            <mxPoint x="15.299999999999999" y="10.766666666666666" as="sourcePoint" />
            <mxPoint x="10.199999999999998" y="15.299999999999999" as="targetPoint" />
            <Array as="points">
              <mxPoint x="10.199999999999998" y="10.766666666666666" />
            </Array>
          </mxGeometry>
        </mxCell>
        <mxCell id="hM18RylwCYSOnlRyK38Z-198" value="" style="rounded=0;orthogonalLoop=1;jettySize=auto;html=1;fontFamily=Manrope;fontSize=12;fontColor=#FFFFFF;endArrow=oval;endFill=1;startArrow=oval;startFill=1;strokeColor=#98A2AE;endSize=3;startSize=3;exitX=0;exitY=0.5;exitDx=0;exitDy=0;entryX=1;entryY=0.5;entryDx=0;entryDy=0;" parent="qbExKh2GQzYHgT6TWYTY-1" source="hM18RylwCYSOnlRyK38Z-190" target="hM18RylwCYSOnlRyK38Z-112" edge="1">
          <mxGeometry relative="1" as="geometry">
            <mxPoint x="460" y="372" as="sourcePoint" />
            <mxPoint x="445" y="354" as="targetPoint" />
          </mxGeometry>
        </mxCell>
        <mxCell id="hM18RylwCYSOnlRyK38Z-199" value="" style="rounded=0;orthogonalLoop=1;jettySize=auto;html=1;fontFamily=Manrope;fontSize=12;fontColor=#FFFFFF;endArrow=oval;endFill=1;startArrow=oval;startFill=1;strokeColor=#98A2AE;endSize=3;startSize=3;exitX=1;exitY=0.5;exitDx=0;exitDy=0;entryX=0;entryY=0.5;entryDx=0;entryDy=0;" parent="qbExKh2GQzYHgT6TWYTY-1" source="hM18RylwCYSOnlRyK38Z-190" target="hM18RylwCYSOnlRyK38Z-174" edge="1">
          <mxGeometry relative="1" as="geometry">
            <mxPoint x="478" y="328" as="sourcePoint" />
            <mxPoint x="456" y="344" as="targetPoint" />
          </mxGeometry>
        </mxCell>
      </root>
    </mxGraphModel>
  </diagram>
</mxfile>
